<mxfile host="app.diagrams.net" modified="2023-09-03T07:04:06.497Z" agent="Mozilla/5.0 (Macintosh; Intel Mac OS X 10_15_7) AppleWebKit/537.36 (KHTML, like Gecko) Chrome/116.0.0.0 Safari/537.36" etag="pGN9eOH1pHemgKvddbAD" version="21.7.2" type="github">
  <diagram name="페이지-1" id="UflM9vgrxg68O4ixU8i2">
    <mxGraphModel dx="1050" dy="577" grid="1" gridSize="10" guides="1" tooltips="1" connect="1" arrows="1" fold="1" page="1" pageScale="1" pageWidth="827" pageHeight="1169" math="0" shadow="0">
      <root>
        <mxCell id="0" />
        <mxCell id="1" parent="0" />
        <mxCell id="CuJ7pr3B0lwYhuTaBker-20" value="" style="rounded=0;whiteSpace=wrap;html=1;" vertex="1" parent="1">
          <mxGeometry x="610" y="190" width="200" height="230" as="geometry" />
        </mxCell>
        <mxCell id="CuJ7pr3B0lwYhuTaBker-15" value="" style="rounded=0;whiteSpace=wrap;html=1;" vertex="1" parent="1">
          <mxGeometry x="361" y="190" width="200" height="230" as="geometry" />
        </mxCell>
        <mxCell id="CuJ7pr3B0lwYhuTaBker-12" value="" style="rounded=0;whiteSpace=wrap;html=1;" vertex="1" parent="1">
          <mxGeometry x="120" y="190" width="200" height="230" as="geometry" />
        </mxCell>
        <mxCell id="CuJ7pr3B0lwYhuTaBker-1" value="" style="shape=image;verticalLabelPosition=bottom;verticalAlign=top;imageAspect=0;aspect=fixed;image=data:image/svg+xml,PHN2ZyB4bWxuczpkYz0iaHR0cDovL3B1cmwub3JnL2RjL2VsZW1lbnRzLzEuMS8iIHhtbG5zOmNjPSJodHRwOi8vY3JlYXRpdmVjb21tb25zLm9yZy9ucyMiIHhtbG5zOnJkZj0iaHR0cDovL3d3dy53My5vcmcvMTk5OS8wMi8yMi1yZGYtc3ludGF4LW5zIyIgeG1sbnM6c3ZnPSJodHRwOi8vd3d3LnczLm9yZy8yMDAwL3N2ZyIgeG1sbnM9Imh0dHA6Ly93d3cudzMub3JnLzIwMDAvc3ZnIiB4bWxuczpzb2RpcG9kaT0iaHR0cDovL3NvZGlwb2RpLnNvdXJjZWZvcmdlLm5ldC9EVEQvc29kaXBvZGktMC5kdGQiIHhtbG5zOmlua3NjYXBlPSJodHRwOi8vd3d3Lmlua3NjYXBlLm9yZy9uYW1lc3BhY2VzL2lua3NjYXBlIiB3aWR0aD0iMTguMDM1MzM0bW0iIGhlaWdodD0iMTcuNTAwMzc4bW0iIHZpZXdCb3g9IjAgMCAxOC4wMzUzMzQgMTcuNTAwMzc4IiB2ZXJzaW9uPSIxLjEiIGlkPSJzdmcxMTUzMSIgaW5rc2NhcGU6dmVyc2lvbj0iMC45MSByMTM3MjUiIHNvZGlwb2RpOmRvY25hbWU9ImFwaS5zdmciPiYjeGE7ICA8ZGVmcyBpZD0iZGVmczExNTI1Ii8+JiN4YTsgIDxzb2RpcG9kaTpuYW1lZHZpZXcgaWQ9ImJhc2UiIHBhZ2Vjb2xvcj0iI2ZmZmZmZiIgYm9yZGVyY29sb3I9IiM2NjY2NjYiIGJvcmRlcm9wYWNpdHk9IjEuMCIgaW5rc2NhcGU6cGFnZW9wYWNpdHk9IjAuMCIgaW5rc2NhcGU6cGFnZXNoYWRvdz0iMiIgaW5rc2NhcGU6em9vbT0iOCIgaW5rc2NhcGU6Y3g9IjE2Ljk2ODYyMSIgaW5rc2NhcGU6Y3k9IjMzLjUwOTA4MSIgaW5rc2NhcGU6ZG9jdW1lbnQtdW5pdHM9Im1tIiBpbmtzY2FwZTpjdXJyZW50LWxheWVyPSJsYXllcjEiIHNob3dncmlkPSJmYWxzZSIgaW5rc2NhcGU6d2luZG93LXdpZHRoPSIxNDQwIiBpbmtzY2FwZTp3aW5kb3ctaGVpZ2h0PSI3NzEiIGlua3NjYXBlOndpbmRvdy14PSI1NSIgaW5rc2NhcGU6d2luZG93LXk9IjAiIGlua3NjYXBlOndpbmRvdy1tYXhpbWl6ZWQ9IjAiIGZpdC1tYXJnaW4tdG9wPSIwIiBmaXQtbWFyZ2luLWxlZnQ9IjAiIGZpdC1tYXJnaW4tcmlnaHQ9IjAiIGZpdC1tYXJnaW4tYm90dG9tPSIwIi8+JiN4YTsgICYjeGE7ICA8ZyBpbmtzY2FwZTpsYWJlbD0iQ2FscXVlIDEiIGlua3NjYXBlOmdyb3VwbW9kZT0ibGF5ZXIiIGlkPSJsYXllcjEiIHRyYW5zZm9ybT0idHJhbnNsYXRlKC0wLjk5MjYyNjM4LC0xLjE3NDE4MSkiPiYjeGE7ICAgIDxnIGlkPSJnNzAiIHRyYW5zZm9ybT0ibWF0cml4KDEuMDE0ODg4NywwLDAsMS4wMTQ4ODg3LDE2LjkwMjE0NiwtMi42OTg3MjYpIj4mI3hhOyAgICAgIDxwYXRoIGlua3NjYXBlOmV4cG9ydC15ZHBpPSIyNTAuNTUiIGlua3NjYXBlOmV4cG9ydC14ZHBpPSIyNTAuNTUiIGlua3NjYXBlOmV4cG9ydC1maWxlbmFtZT0ibmV3LnBuZyIgaW5rc2NhcGU6Y29ubmVjdG9yLWN1cnZhdHVyZT0iMCIgaWQ9InBhdGgzMDU1IiBkPSJtIC02Ljg0OTIwMTUsNC4yNzI0NjY4IGEgMS4xMTkxMjU1LDEuMTA5OTY3MSAwIDAgMCAtMC40Mjg4ODE4LDAuMTA4NTMwMyBsIC01Ljg1MjQwMzcsMi43OTYzMzk0IGEgMS4xMTkxMjU1LDEuMTA5OTY3MSAwIDAgMCAtMC42MDU1MjQsMC43NTI5NzU5IGwgLTEuNDQzODI4LDYuMjgxMjg0NiBhIDEuMTE5MTI1NSwxLjEwOTk2NzEgMCAwIDAgMC4xNTE5NDMsMC44NTEwMjggMS4xMTkxMjU1LDEuMTA5OTY3MSAwIDAgMCAwLjA2MzYyLDAuMDg4MzIgbCA0LjA1MDgsNS4wMzY1NTUgYSAxLjExOTEyNTUsMS4xMDk5NjcxIDAgMCAwIDAuODc0OTc5LDAuNDE3NjU0IGwgNi40OTYxMDExLC0wLjAwMTUgYSAxLjExOTEyNTUsMS4xMDk5NjcxIDAgMCAwIDAuODc0OTc4OCwtMC40MTY5MDYgTCAxLjM4MTg4NzIsMTUuMTQ5NDUzIEEgMS4xMTkxMjU1LDEuMTA5OTY3MSAwIDAgMCAxLjU5ODE5ODYsMTQuMjEwMTA0IEwgMC4xNTIxMjY1Nyw3LjkyODgxNTQgQSAxLjExOTEyNTUsMS4xMDk5NjcxIDAgMCAwIC0wLjQ1MzM5Nzk0LDcuMTc1ODM5NiBMIC02LjMwNjU0OTYsNC4zODA5OTcxIEEgMS4xMTkxMjU1LDEuMTA5OTY3MSAwIDAgMCAtNi44NDkyMDE1LDQuMjcyNDY2OCBaIiBzdHlsZT0iZmlsbDojMzI2Y2U1O2ZpbGwtb3BhY2l0eToxO3N0cm9rZTpub25lO3N0cm9rZS13aWR0aDowO3N0cm9rZS1taXRlcmxpbWl0OjQ7c3Ryb2tlLWRhc2hhcnJheTpub25lO3N0cm9rZS1vcGFjaXR5OjEiLz4mI3hhOyAgICAgIDxwYXRoIGlkPSJwYXRoMzA1NC0yLTkiIGQ9Ik0gLTYuODUyMzQzNSwzLjgxNzYzNzIgQSAxLjE4MTQzMDQsMS4xNzE3NjIgMCAwIDAgLTcuMzA0NDI4NCwzLjkzMjkwNCBsIC02LjE3ODc0MjYsMi45NTEyNzU4IGEgMS4xODE0MzA0LDEuMTcxNzYyIDAgMCAwIC0wLjYzOTIwNiwwLjc5NDg5MSBsIC0xLjUyMzkxNSw2LjYzMDgyODIgYSAxLjE4MTQzMDQsMS4xNzE3NjIgMCAwIDAgMC4xNjAxNzUsMC44OTg5MyAxLjE4MTQzMDQsMS4xNzE3NjIgMCAwIDAgMC4wNjczNiwwLjA5MjgxIGwgNC4yNzYwOTQsNS4zMTcyMzYgYSAxLjE4MTQzMDQsMS4xNzE3NjIgMCAwIDAgMC45MjM2MywwLjQ0MDg1OCBsIDYuODU3NjE4OCwtMC4wMDE1IGEgMS4xODE0MzA0LDEuMTcxNzYyIDAgMCAwIDAuOTIzNjMwOCwtMC40NDAxMSBsIDQuMjc0NTk2NiwtNS4zMTc5ODUgYSAxLjE4MTQzMDQsMS4xNzE3NjIgMCAwIDAgMC4yMjgyODgsLTAuOTkwOTkzIEwgMC41Mzg5NDQzOSw3LjY3NzU3MzggQSAxLjE4MTQzMDQsMS4xNzE3NjIgMCAwIDAgLTAuMTAwMjYxMDEsNi44ODM0MzEzIEwgLTYuMjc5MDAzNywzLjkzMjE1NTUgQSAxLjE4MTQzMDQsMS4xNzE3NjIgMCAwIDAgLTYuODUyMzQzNSwzLjgxNzYzNzIgWiBtIDAuMDAyOTksMC40NTUwNzg5IGEgMS4xMTkxMjU1LDEuMTA5OTY3MSAwIDAgMSAwLjU0MjY1MTcsMC4xMDg1MzAzIGwgNS44NTMxNTE2OSwyLjc5NDg0MjUgQSAxLjExOTEyNTUsMS4xMDk5NjcxIDAgMCAxIDAuMTUxOTc4MTEsNy45MjkwNjQ4IEwgMS41OTgwNTEsMTQuMjEwMzUgYSAxLjExOTEyNTUsMS4xMDk5NjcxIDAgMCAxIC0wLjIxNjMxMjMsMC45MzkzNDggbCAtNC4wNDkzMDMyLDUuMDM3MzA0IGEgMS4xMTkxMjU1LDEuMTA5OTY3MSAwIDAgMSAtMC44NzQ5Nzg5LDAuNDE2OTA2IGwgLTYuNDk2MTAwNiwwLjAwMTUgYSAxLjExOTEyNTUsMS4xMDk5NjcxIDAgMCAxIC0wLjg3NDk3OSwtMC40MTc2NTIgbCAtNC4wNTA4LC01LjAzNjU1NCBhIDEuMTE5MTI1NSwxLjEwOTk2NzEgMCAwIDEgLTAuMDYzNjIsLTAuMDg4MzIgMS4xMTkxMjU1LDEuMTA5OTY3MSAwIDAgMSAtMC4xNTE5NDIsLTAuODUxMDI4IGwgMS40NDM4MjcsLTYuMjgxMjg1MyBhIDEuMTE5MTI1NSwxLjEwOTk2NzEgMCAwIDEgMC42MDU1MjQsLTAuNzUyOTc1OCBsIDUuODUyNDAzNiwtMi43OTYzMzk1IGEgMS4xMTkxMjU1LDEuMTA5OTY3MSAwIDAgMSAwLjQyODg4MTksLTAuMTA4NTMwMyB6IiBzdHlsZT0iY29sb3I6IzAwMDAwMDtmb250LXN0eWxlOm5vcm1hbDtmb250LXZhcmlhbnQ6bm9ybWFsO2ZvbnQtd2VpZ2h0Om5vcm1hbDtmb250LXN0cmV0Y2g6bm9ybWFsO2ZvbnQtc2l6ZTptZWRpdW07bGluZS1oZWlnaHQ6bm9ybWFsO2ZvbnQtZmFtaWx5OlNhbnM7LWlua3NjYXBlLWZvbnQtc3BlY2lmaWNhdGlvbjpTYW5zO3RleHQtaW5kZW50OjA7dGV4dC1hbGlnbjpzdGFydDt0ZXh0LWRlY29yYXRpb246bm9uZTt0ZXh0LWRlY29yYXRpb24tbGluZTpub25lO2xldHRlci1zcGFjaW5nOm5vcm1hbDt3b3JkLXNwYWNpbmc6bm9ybWFsO3RleHQtdHJhbnNmb3JtOm5vbmU7d3JpdGluZy1tb2RlOmxyLXRiO2RpcmVjdGlvbjpsdHI7YmFzZWxpbmUtc2hpZnQ6YmFzZWxpbmU7dGV4dC1hbmNob3I6c3RhcnQ7ZGlzcGxheTppbmxpbmU7b3ZlcmZsb3c6dmlzaWJsZTt2aXNpYmlsaXR5OnZpc2libGU7ZmlsbDojZmZmZmZmO2ZpbGwtb3BhY2l0eToxO2ZpbGwtcnVsZTpub256ZXJvO3N0cm9rZTpub25lO3N0cm9rZS13aWR0aDowO3N0cm9rZS1taXRlcmxpbWl0OjQ7c3Ryb2tlLWRhc2hhcnJheTpub25lO21hcmtlcjpub25lO2VuYWJsZS1iYWNrZ3JvdW5kOmFjY3VtdWxhdGUiIGlua3NjYXBlOmNvbm5lY3Rvci1jdXJ2YXR1cmU9IjAiLz4mI3hhOyAgICA8L2c+JiN4YTsgICAgPHRleHQgaWQ9InRleHQyMDY2IiB5PSIxNi44MTE3NzUiIHg9IjEwLjA1NTc2OSIgc3R5bGU9ImZvbnQtc3R5bGU6bm9ybWFsO2ZvbnQtd2VpZ2h0Om5vcm1hbDtmb250LXNpemU6MTAuNTgzMzMzMDJweDtsaW5lLWhlaWdodDo2LjYxNDU4MzQ5cHg7Zm9udC1mYW1pbHk6U2FucztsZXR0ZXItc3BhY2luZzowcHg7d29yZC1zcGFjaW5nOjBweDtmaWxsOiNmZmZmZmY7ZmlsbC1vcGFjaXR5OjE7c3Ryb2tlOm5vbmU7c3Ryb2tlLXdpZHRoOjAuMjY0NTgzMzJweDtzdHJva2UtbGluZWNhcDpidXR0O3N0cm9rZS1saW5lam9pbjptaXRlcjtzdHJva2Utb3BhY2l0eToxIiB4bWw6c3BhY2U9InByZXNlcnZlIj48dHNwYW4gc3R5bGU9ImZvbnQtc3R5bGU6bm9ybWFsO2ZvbnQtdmFyaWFudDpub3JtYWw7Zm9udC13ZWlnaHQ6bm9ybWFsO2ZvbnQtc3RyZXRjaDpub3JtYWw7Zm9udC1zaXplOjIuODIyMjIyMjNweDtmb250LWZhbWlseTpBcmlhbDstaW5rc2NhcGUtZm9udC1zcGVjaWZpY2F0aW9uOidBcmlhbCwgTm9ybWFsJzt0ZXh0LWFsaWduOmNlbnRlcjt3cml0aW5nLW1vZGU6bHItdGI7dGV4dC1hbmNob3I6bWlkZGxlO2ZpbGw6I2ZmZmZmZjtmaWxsLW9wYWNpdHk6MTtzdHJva2Utd2lkdGg6MC4yNjQ1ODMzMnB4IiB5PSIxNi44MTE3NzUiIHg9IjEwLjA1NTc2OSIgaWQ9InRzcGFuMjA2NCIgc29kaXBvZGk6cm9sZT0ibGluZSI+YXBpPC90c3Bhbj48L3RleHQ+JiN4YTsgICAgPHBhdGggaWQ9InBhdGgxOTg0IiBkPSJtIDkuOTkyMjU3NCw0LjQ0Njk5MjUgYyAtMC4xMzgzMjM0LC0wLjAwNDQgLTMuOTk1MzEzOSwxLjg5MTc3OTEgLTQuMDQ1NzQyOSwxLjk4OTAyNDEgLTAuMTIxMTUzLDAuMjMzNjgyIC0wLjk5ODgwMiw0LjI4MTQ3ODQgLTAuOTQ3MjM1LDQuMzY4NzI0NCAwLjAzLDAuMDUwNjUgMC42NjIxOTksMC44NTIzMDUgMS40MDQ1NjcsMS43ODA3NzEgbCAxLjM0OTc5OCwxLjY4Nzc1NCAyLjIyMTU3NDMsMC4wMDExIDIuMjIxNTcyMiwwLjAwMTEgMS40MTI4MTksLTEuNzY1Nzg0IDEuNDEzODgsLTEuNzY1MjY1IC0wLjQ5NDU2LC0yLjE2ODg2MDcgQyAxNC4yNTY3Myw3LjM4MjgxNTUgMTQuMDEzMjksNi4zODcyNzU2IDEzLjk4ODQyLDYuMzYzMjg1NiAxMy45MTg5Miw2LjI5NjQwNTYgMTAuMDY3MjQsNC40NDk1NDY1IDkuOTkyMjU3NCw0LjQ0NzEyNTUgWiBtIDAuMjM2MTY2NiwxLjk4MjgyNDEgYyAwLjE4NjYzNywwLjAwOCAwLjIwNTc5MiwwLjI5MTU3MSAwLjYwNTEyOCwwLjMyMTQyNyAwLjUyMTYsMC4wMzkgMC40NjU1MDgsLTAuNDQ2NjUxIDAuODY0NTUzLC0wLjEwODUyMiAwLjM5OTA0NCwwLjMzODEyNSAtMC4wODg5LDAuMzYyNjQxIDAuMDM1MTQsMC44NzA3NDkgMC4xMjQwOSwwLjUwODEwNDEgMC41Njg4MDEsMC4zMDUwOTkxIDAuMzcwNTIzLDAuNzg5MDk4NyAtMC4xOTgyNzksMC40ODQwMDIgLTAuMzcyNjEzLDAuMDI3MjggLTAuODE3NTEsMC4zMDIzMDggLTAuNDQ0ODk3LDAuMjc1MDIzIC0wLjExNDU2NCwwLjYzNTM0NiAtMC42MzYxMzgsMC41OTYzNDcgLTAuNTIxNjUyLC0wLjAzOSAtMC4xNDA0NjcsLTAuMzQ2MDY1IC0wLjUzOTUxLC0wLjY4NDE5NyBDIDkuNzExNTY2LDguMTc4ODk1NSA5LjQ3MDM3MTgsOC42MDQ0ODczIDkuMzQ2MzA4OCw4LjA5NjM3OTcgOS4yMjIyMTg4LDcuNTg4MjcxNiA5LjYzMjI0NCw3Ljg1NTM2MjUgOS44MzA1MjMsNy4zNzEzNjA3IDEwLjAyOTIyNCw2Ljg4NzMxMzYgOS41NDk0Mjg4LDYuNzkwMTA3NiA5Ljk5NDM1MjQsNi41MTUwODE2IGMgMC4wNTU2NCwtMC4wMzQzNCAwLjEwMTg5MDYsLTAuMDU2ODggMC4xNDIxMDU2LC0wLjA3MDI4IDAuMDM1MDgsLTAuMDExNjcgMC4wNjUzMywtMC4wMTYxNCAwLjA5MTk3LC0wLjAxNDk3IHogbSAwLjUyMTQ5MywwLjU3MjA1OSBjIC0wLjA3NTc4LC01LjMwNmUtNCAtMC4xNTEyMDksMC4wMTAyMSAtMC4yMjM3NTgsMC4wMzIwNCAtMC40MDAzOTMsMC4xMjA3MzIgLTAuNjI2OTU0LDAuNTQzMzIxOSAtMC41MDU5MDksMC45NDM2MTMgMC4xMjA5NCwwLjM5OTkxOTcgMC41NDMxMSwwLjYyNjE0ODcgMC45NDMxMDcsMC41MDUzOTM3IDAuMzk5ODM4LC0wLjEyMDc0NiAwLjYyNjI2OCwtMC41NDI2MTA3IDAuNTA1OTA5LC0wLjk0MjU3ODggQyAxMS4zNzM1MTYsNy4yMjI1MjM2IDExLjA4MTgzNyw3LjAwNDE4OTYgMTAuNzQ5OTE3LDcuMDAxODc3NiBaIE0gNy43NTcyNjk1LDguMzAzNjAzMyBjIDAuMDM5NjksNy45ZS00IDAuMDg4MzIsMC4wMDkgMC4xNDgyOTkxLDAuMDI3MzkgMC40Nzk5Mjc5LDAuMTQ3MTM4IC0wLjAwNzcsMC4zOTk1MDMgMC4zMzQzNTQsMC43NjY4NzkgMC4zNDIwNTMxLDAuMzY3Mzc3IDAuNjI4NTE4MiwtMC4xMDEwODYgMC43NDEwNDUyLDAuMzg4MDkxIDAuMTEyNTI3LDAuNDg5MTc3NyAtMC4zNDk5OTEzLDAuMTkyOTIxIC0wLjQ5NzEyNjEsMC42NzI4Mjc3IC0wLjE0NzE2MTIsMC40Nzk5MDQgMC40MDE0NzkxLDAuNDk0MDgzIDAuMDM0MTEsMC44MzYxMjMgLTAuMzY3Mzc0LDAuMzQyMDQxIC0wLjM0MTgxNTEsLTAuMjA2MDYgLTAuODMwOTUwMSwtMC4wOTM1MyAtMC40ODkxODgsMC4xMTI1MjcgLTAuMjI3MDM5LDAuNTk0NjU0IC0wLjcwNjk0LDAuNDQ3NTE2IC0wLjQ3OTkyOCwtMC4xNDcxMzcgMC4wMDc3LC0wLjM5OTUgLTAuMzM0MzU0LC0wLjc2Njg3NiAtMC4zNDIwNTQsLTAuMzY3Mzc5IC0wLjYyODUxOCwwLjEwMDU3MSAtMC43NDEwNDUsLTAuMzg4NjA3IC0wLjExMjUyOCwtMC40ODkxOCAwLjM0OTk5MSwtMC4xOTI5MjQgMC40OTcxMjUsLTAuNjcyODI2NyAwLjE0NzE2MiwtMC40Nzk5MDcgLTAuNDAxOTgxLC0wLjQ5MzU3IC0wLjAzNDYxLC0wLjgzNTYxIDAuMzY3Mzc0LC0wLjM0MjA0MyAwLjM0MjI5MSwwLjIwNjA2NSAwLjgzMTQ1MywwLjA5MzU0IDAuNDI4MDQzLC0wLjA5ODQ2IDAuMjgwNjQzLC0wLjQ3OTYwNyAwLjU1ODY0MSwtMC40NzQ5MDYgeiBtIDMuNTY3MjE2NSwwLjUyNDUxNiBjIDAuMDQ1NTEsNS4zNmUtNCAwLjEwMDgwNywwLjAxMjQzIDAuMTcwMDIyLDAuMDM5MjcgMC41NTMyNywwLjIxNDczOSAtMC4xNzUyMzQsMC41NDU4OTQgMC4yNTM3MzUsMC45NTYwMTM3IDAuNDI4OTY5LDAuNDEwMTE4IDAuNzI3NDcyLC0wLjMzMjc0MTcgMC45NjY4NjcsMC4yMTAzMjMgMC4yMzkzNjksMC41NDMwNjUgLTAuNTEwNDM0LDAuMjYyNDMyIC0wLjQ5NzEyNiwwLjg1NTc2MyAwLjAxMzIzLDAuNTkzMzMxIDAuNzQ5NTkxLDAuMjc4NzIgMC41MzQ4MjksMC44MzE5OSAtMC4yMTQ3MDksMC41NTMyNjggLTAuNTQ1ODg4LC0wLjE3NTI0NyAtMC45NTU5OTIsMC4yNTM3MyAtMC40MTAxMzEsMC40Mjg5NzcgMC4zMzIyMSwwLjcyNjk3MiAtMC4yMTA4NDcsMC45NjYzNDggLTAuNTQzMDU3LDAuMjM5MzggLTAuMjYxMzgyLC0wLjUwOTkzOSAtMC44NTQ3MzYsLTAuNDk2NjA5IC0wLjU5MzMyOCwwLjAxMzMzIC0wLjI3OTIxNSwwLjc0OTA3MiAtMC44MzI1MSwwLjUzNDMzNCBDIDkuMzQ1NDg0OCwxMi43NjQ1NDMgMTAuMDczOTg3LDEyLjQzMzM4OCA5LjY0NDk5MywxMi4wMjMyNjggOS4yMTYwMjM4LDExLjYxMzE0OCA4LjkxODAyMzgsMTIuMzU2MDA4IDguNjc4NjU0NiwxMS44MTI5NDUgOC40MzkyODY3LDExLjI2OTg4IDkuMTg4NTU5OCwxMS41NTEwMzIgOS4xNzUyNzc4LDEwLjk1NzcwMSA5LjE2MTc4NzgsMTAuMzY0MzcgOC40MjU2ODY3LDEwLjY3ODQ2MiA4LjY0MDQyMjUsMTAuMTI1MTkyIDguODU1MTU4OCw5LjU3MTkyMjMgOS4xODY4MTM4LDEwLjMwMDk1NSA5LjU5Njk0NSw5Ljg3MTk3OCAxMC4wMDcwNDgsOS40NDMwMDEzIDkuMjY0MTc3OCw5LjE0NDQ5MDMgOS44MDcyNjIsOC45MDUxMTQzIGMgMC41NDMwNTUsLTAuMjM5Mzc3IDAuMjYxOTEsMC41MDk5MzkgMC44NTUyMzcsMC40OTY2MDkgMC41MTkxOTIsLTAuMDExNjcgMC4zNDM0MjksLTAuNTc2NDA4IDAuNjYxOTg3LC0wLjU3MzYwOCB6IG0gLTMuODgxNDA5NSwwLjI1NTI4IGMgLTAuNDE3OTg4LC0xLjU4ZS00IC0wLjc1Njk0NiwwLjMzODU2NCAtMC43NTcwNzgsMC43NTY1NDQ3IC0xLjU5ZS00LDAuNDE4MTgyIDAuMzM4OTA1LDAuNzU3MjE5IDAuNzU3MDc4LDAuNzU3MDYgMC40MTc5NjMxLC0xLjQ4ZS00IDAuNzU2NjgyLC0wLjMzOTA5NSAwLjc1NjUyMzksLTAuNzU3MDYgQyA4LjE5OTQ2NzUsOS40MjIxODAzIDcuODYwODI3Niw5LjA4MzU0NzMgNy40NDMwNzY1LDkuMDgzMzk5MyBaIE0gMTAuNjk2NjMsOS44MDg0MjEgYyAtMC42MTU2ODQsNC4yZS01IC0xLjExNDg0NiwwLjQ5ODk4MyAtMS4xMTUxOSwxLjExNDY2MSAtMi4zOGUtNCwwLjYxNjA4MiAwLjQ5OTEwOSwxLjExNTY1IDEuMTE1MTksMS4xMTU2OTIgMC42MTYyNjgsMi4yMmUtNCAxLjExNTkwNywtMC40OTk0MjUgMS4xMTU2NjksLTEuMTE1NjkyIDAsLTAuNjE1ODY2IC0wLjQ5OTc5OCwtMS4xMTQ4ODMgLTEuMTE1NjY5LC0xLjExNDY2MSB6IiBzdHlsZT0ib3BhY2l0eToxO2ZpbGw6I2ZmZmZmZjtmaWxsLW9wYWNpdHk6MTtzdHJva2U6I2VlZWVlZTtzdHJva2Utd2lkdGg6MDtzdHJva2UtbWl0ZXJsaW1pdDoxMDtzdHJva2UtZGFzaGFycmF5Om5vbmU7c3Ryb2tlLWRhc2hvZmZzZXQ6MTEuMjM2NDIzNDk7c3Ryb2tlLW9wYWNpdHk6MSIgaW5rc2NhcGU6Y29ubmVjdG9yLWN1cnZhdHVyZT0iMCIgc29kaXBvZGk6bm9kZXR5cGVzPSJjY2NjY2NjY2NjY2Njc2NjY2Njc2NjY2NjY2NjY2NjY2Njc2NzY2NjY2NjY2NjY2NjY2NjY2NjY2Njc2NjY2NjY2NjY2NjY2NjIi8+JiN4YTsgIDwvZz4mI3hhOzwvc3ZnPg==" vertex="1" parent="1">
          <mxGeometry x="50" y="240" width="60" height="60" as="geometry" />
        </mxCell>
        <mxCell id="CuJ7pr3B0lwYhuTaBker-8" value="WEB" style="shape=image;verticalLabelPosition=bottom;verticalAlign=top;imageAspect=0;aspect=fixed;image=data:image/svg+xml,PHN2ZyB4bWxuczpkYz0iaHR0cDovL3B1cmwub3JnL2RjL2VsZW1lbnRzLzEuMS8iIHhtbG5zOmNjPSJodHRwOi8vY3JlYXRpdmVjb21tb25zLm9yZy9ucyMiIHhtbG5zOnJkZj0iaHR0cDovL3d3dy53My5vcmcvMTk5OS8wMi8yMi1yZGYtc3ludGF4LW5zIyIgeG1sbnM6c3ZnPSJodHRwOi8vd3d3LnczLm9yZy8yMDAwL3N2ZyIgeG1sbnM9Imh0dHA6Ly93d3cudzMub3JnLzIwMDAvc3ZnIiB4bWxuczpzb2RpcG9kaT0iaHR0cDovL3NvZGlwb2RpLnNvdXJjZWZvcmdlLm5ldC9EVEQvc29kaXBvZGktMC5kdGQiIHhtbG5zOmlua3NjYXBlPSJodHRwOi8vd3d3Lmlua3NjYXBlLm9yZy9uYW1lc3BhY2VzL2lua3NjYXBlIiB3aWR0aD0iMTguMDM1MzM0bW0iIGhlaWdodD0iMTcuNTAwMzc4bW0iIHZpZXdCb3g9IjAgMCAxOC4wMzUzMzQgMTcuNTAwMzc4IiB2ZXJzaW9uPSIxLjEiIGlkPSJzdmcxMzgyNiIgaW5rc2NhcGU6dmVyc2lvbj0iMC45MSByMTM3MjUiIHNvZGlwb2RpOmRvY25hbWU9ImRlcGxveS5zdmciPiYjeGE7ICA8ZGVmcyBpZD0iZGVmczEzODIwIi8+JiN4YTsgIDxzb2RpcG9kaTpuYW1lZHZpZXcgaWQ9ImJhc2UiIHBhZ2Vjb2xvcj0iI2ZmZmZmZiIgYm9yZGVyY29sb3I9IiM2NjY2NjYiIGJvcmRlcm9wYWNpdHk9IjEuMCIgaW5rc2NhcGU6cGFnZW9wYWNpdHk9IjAuMCIgaW5rc2NhcGU6cGFnZXNoYWRvdz0iMiIgaW5rc2NhcGU6em9vbT0iOCIgaW5rc2NhcGU6Y3g9IjYuODQ3NDk2IiBpbmtzY2FwZTpjeT0iMzMuNzUyMjM5IiBpbmtzY2FwZTpkb2N1bWVudC11bml0cz0ibW0iIGlua3NjYXBlOmN1cnJlbnQtbGF5ZXI9ImxheWVyMSIgc2hvd2dyaWQ9ImZhbHNlIiBpbmtzY2FwZTp3aW5kb3ctd2lkdGg9IjE0NDAiIGlua3NjYXBlOndpbmRvdy1oZWlnaHQ9Ijc3NSIgaW5rc2NhcGU6d2luZG93LXg9IjAiIGlua3NjYXBlOndpbmRvdy15PSIxIiBpbmtzY2FwZTp3aW5kb3ctbWF4aW1pemVkPSIxIiBmaXQtbWFyZ2luLXRvcD0iMCIgZml0LW1hcmdpbi1sZWZ0PSIwIiBmaXQtbWFyZ2luLXJpZ2h0PSIwIiBmaXQtbWFyZ2luLWJvdHRvbT0iMCIvPiYjeGE7ICAmI3hhOyAgPGcgaW5rc2NhcGU6bGFiZWw9IkNhbHF1ZSAxIiBpbmtzY2FwZTpncm91cG1vZGU9ImxheWVyIiBpZD0ibGF5ZXIxIiB0cmFuc2Zvcm09InRyYW5zbGF0ZSgtMC45OTI2MjYzOCwtMS4xNzQxODEpIj4mI3hhOyAgICA8ZyBpZD0iZzcwIiB0cmFuc2Zvcm09Im1hdHJpeCgxLjAxNDg4ODcsMCwwLDEuMDE0ODg4NywxNi45MDIxNDYsLTIuNjk4NzI2KSI+JiN4YTsgICAgICA8cGF0aCBpbmtzY2FwZTpleHBvcnQteWRwaT0iMjUwLjU1IiBpbmtzY2FwZTpleHBvcnQteGRwaT0iMjUwLjU1IiBpbmtzY2FwZTpleHBvcnQtZmlsZW5hbWU9Im5ldy5wbmciIGlua3NjYXBlOmNvbm5lY3Rvci1jdXJ2YXR1cmU9IjAiIGlkPSJwYXRoMzA1NSIgZD0ibSAtNi44NDkyMDE1LDQuMjcyNDY2OCBhIDEuMTE5MTI1NSwxLjEwOTk2NzEgMCAwIDAgLTAuNDI4ODgxOCwwLjEwODUzMDMgbCAtNS44NTI0MDM3LDIuNzk2MzM5NCBhIDEuMTE5MTI1NSwxLjEwOTk2NzEgMCAwIDAgLTAuNjA1NTI0LDAuNzUyOTc1OSBsIC0xLjQ0MzgyOCw2LjI4MTI4NDYgYSAxLjExOTEyNTUsMS4xMDk5NjcxIDAgMCAwIDAuMTUxOTQzLDAuODUxMDI4IDEuMTE5MTI1NSwxLjEwOTk2NzEgMCAwIDAgMC4wNjM2MiwwLjA4ODMyIGwgNC4wNTA4LDUuMDM2NTU1IGEgMS4xMTkxMjU1LDEuMTA5OTY3MSAwIDAgMCAwLjg3NDk3OSwwLjQxNzY1NCBsIDYuNDk2MTAxMSwtMC4wMDE1IGEgMS4xMTkxMjU1LDEuMTA5OTY3MSAwIDAgMCAwLjg3NDk3ODgsLTAuNDE2OTA2IEwgMS4zODE4ODcyLDE1LjE0OTQ1MyBBIDEuMTE5MTI1NSwxLjEwOTk2NzEgMCAwIDAgMS41OTgxOTg2LDE0LjIxMDEwNCBMIDAuMTUyMTI2NTcsNy45Mjg4MTU0IEEgMS4xMTkxMjU1LDEuMTA5OTY3MSAwIDAgMCAtMC40NTMzOTc5NCw3LjE3NTgzOTYgTCAtNi4zMDY1NDk2LDQuMzgwOTk3MSBBIDEuMTE5MTI1NSwxLjEwOTk2NzEgMCAwIDAgLTYuODQ5MjAxNSw0LjI3MjQ2NjggWiIgc3R5bGU9ImZpbGw6IzMyNmNlNTtmaWxsLW9wYWNpdHk6MTtzdHJva2U6bm9uZTtzdHJva2Utd2lkdGg6MDtzdHJva2UtbWl0ZXJsaW1pdDo0O3N0cm9rZS1kYXNoYXJyYXk6bm9uZTtzdHJva2Utb3BhY2l0eToxIi8+JiN4YTsgICAgICA8cGF0aCBpZD0icGF0aDMwNTQtMi05IiBkPSJNIC02Ljg1MjM0MzUsMy44MTc2MzcyIEEgMS4xODE0MzA0LDEuMTcxNzYyIDAgMCAwIC03LjMwNDQyODQsMy45MzI5MDQgbCAtNi4xNzg3NDI2LDIuOTUxMjc1OCBhIDEuMTgxNDMwNCwxLjE3MTc2MiAwIDAgMCAtMC42MzkyMDYsMC43OTQ4OTEgbCAtMS41MjM5MTUsNi42MzA4MjgyIGEgMS4xODE0MzA0LDEuMTcxNzYyIDAgMCAwIDAuMTYwMTc1LDAuODk4OTMgMS4xODE0MzA0LDEuMTcxNzYyIDAgMCAwIDAuMDY3MzYsMC4wOTI4MSBsIDQuMjc2MDk0LDUuMzE3MjM2IGEgMS4xODE0MzA0LDEuMTcxNzYyIDAgMCAwIDAuOTIzNjMsMC40NDA4NTggbCA2Ljg1NzYxODgsLTAuMDAxNSBhIDEuMTgxNDMwNCwxLjE3MTc2MiAwIDAgMCAwLjkyMzYzMDgsLTAuNDQwMTEgbCA0LjI3NDU5NjYsLTUuMzE3OTg1IGEgMS4xODE0MzA0LDEuMTcxNzYyIDAgMCAwIDAuMjI4Mjg4LC0wLjk5MDk5MyBMIDAuNTM4OTQ0MzksNy42Nzc1NzM4IEEgMS4xODE0MzA0LDEuMTcxNzYyIDAgMCAwIC0wLjEwMDI2MTAxLDYuODgzNDMxMyBMIC02LjI3OTAwMzcsMy45MzIxNTU1IEEgMS4xODE0MzA0LDEuMTcxNzYyIDAgMCAwIC02Ljg1MjM0MzUsMy44MTc2MzcyIFogbSAwLjAwMjk5LDAuNDU1MDc4OSBhIDEuMTE5MTI1NSwxLjEwOTk2NzEgMCAwIDEgMC41NDI2NTE3LDAuMTA4NTMwMyBsIDUuODUzMTUxNjksMi43OTQ4NDI1IEEgMS4xMTkxMjU1LDEuMTA5OTY3MSAwIDAgMSAwLjE1MTk3ODExLDcuOTI5MDY0OCBMIDEuNTk4MDUxLDE0LjIxMDM1IGEgMS4xMTkxMjU1LDEuMTA5OTY3MSAwIDAgMSAtMC4yMTYzMTIzLDAuOTM5MzQ4IGwgLTQuMDQ5MzAzMiw1LjAzNzMwNCBhIDEuMTE5MTI1NSwxLjEwOTk2NzEgMCAwIDEgLTAuODc0OTc4OSwwLjQxNjkwNiBsIC02LjQ5NjEwMDYsMC4wMDE1IGEgMS4xMTkxMjU1LDEuMTA5OTY3MSAwIDAgMSAtMC44NzQ5NzksLTAuNDE3NjUyIGwgLTQuMDUwOCwtNS4wMzY1NTQgYSAxLjExOTEyNTUsMS4xMDk5NjcxIDAgMCAxIC0wLjA2MzYyLC0wLjA4ODMyIDEuMTE5MTI1NSwxLjEwOTk2NzEgMCAwIDEgLTAuMTUxOTQyLC0wLjg1MTAyOCBsIDEuNDQzODI3LC02LjI4MTI4NTMgYSAxLjExOTEyNTUsMS4xMDk5NjcxIDAgMCAxIDAuNjA1NTI0LC0wLjc1Mjk3NTggbCA1Ljg1MjQwMzYsLTIuNzk2MzM5NSBhIDEuMTE5MTI1NSwxLjEwOTk2NzEgMCAwIDEgMC40Mjg4ODE5LC0wLjEwODUzMDMgeiIgc3R5bGU9ImNvbG9yOiMwMDAwMDA7Zm9udC1zdHlsZTpub3JtYWw7Zm9udC12YXJpYW50Om5vcm1hbDtmb250LXdlaWdodDpub3JtYWw7Zm9udC1zdHJldGNoOm5vcm1hbDtmb250LXNpemU6bWVkaXVtO2xpbmUtaGVpZ2h0Om5vcm1hbDtmb250LWZhbWlseTpTYW5zOy1pbmtzY2FwZS1mb250LXNwZWNpZmljYXRpb246U2Fuczt0ZXh0LWluZGVudDowO3RleHQtYWxpZ246c3RhcnQ7dGV4dC1kZWNvcmF0aW9uOm5vbmU7dGV4dC1kZWNvcmF0aW9uLWxpbmU6bm9uZTtsZXR0ZXItc3BhY2luZzpub3JtYWw7d29yZC1zcGFjaW5nOm5vcm1hbDt0ZXh0LXRyYW5zZm9ybTpub25lO3dyaXRpbmctbW9kZTpsci10YjtkaXJlY3Rpb246bHRyO2Jhc2VsaW5lLXNoaWZ0OmJhc2VsaW5lO3RleHQtYW5jaG9yOnN0YXJ0O2Rpc3BsYXk6aW5saW5lO292ZXJmbG93OnZpc2libGU7dmlzaWJpbGl0eTp2aXNpYmxlO2ZpbGw6I2ZmZmZmZjtmaWxsLW9wYWNpdHk6MTtmaWxsLXJ1bGU6bm9uemVybztzdHJva2U6bm9uZTtzdHJva2Utd2lkdGg6MDtzdHJva2UtbWl0ZXJsaW1pdDo0O3N0cm9rZS1kYXNoYXJyYXk6bm9uZTttYXJrZXI6bm9uZTtlbmFibGUtYmFja2dyb3VuZDphY2N1bXVsYXRlIiBpbmtzY2FwZTpjb25uZWN0b3ItY3VydmF0dXJlPSIwIi8+JiN4YTsgICAgPC9nPiYjeGE7ICAgIDx0ZXh0IGlkPSJ0ZXh0MjA2NiIgeT0iMTYuODExNzc1IiB4PSI5Ljk3NDQ2NDQiIHN0eWxlPSJmb250LXN0eWxlOm5vcm1hbDtmb250LXdlaWdodDpub3JtYWw7Zm9udC1zaXplOjEwLjU4MzMzMzAycHg7bGluZS1oZWlnaHQ6Ni42MTQ1ODM0OXB4O2ZvbnQtZmFtaWx5OlNhbnM7bGV0dGVyLXNwYWNpbmc6MHB4O3dvcmQtc3BhY2luZzowcHg7ZmlsbDojZmZmZmZmO2ZpbGwtb3BhY2l0eToxO3N0cm9rZTpub25lO3N0cm9rZS13aWR0aDowLjI2NDU4MzMycHg7c3Ryb2tlLWxpbmVjYXA6YnV0dDtzdHJva2UtbGluZWpvaW46bWl0ZXI7c3Ryb2tlLW9wYWNpdHk6MSIgeG1sOnNwYWNlPSJwcmVzZXJ2ZSI+PHRzcGFuIHN0eWxlPSJmb250LXN0eWxlOm5vcm1hbDtmb250LXZhcmlhbnQ6bm9ybWFsO2ZvbnQtd2VpZ2h0Om5vcm1hbDtmb250LXN0cmV0Y2g6bm9ybWFsO2ZvbnQtc2l6ZToyLjgyMjIyMjIzcHg7Zm9udC1mYW1pbHk6QXJpYWw7LWlua3NjYXBlLWZvbnQtc3BlY2lmaWNhdGlvbjonQXJpYWwsIE5vcm1hbCc7dGV4dC1hbGlnbjpjZW50ZXI7d3JpdGluZy1tb2RlOmxyLXRiO3RleHQtYW5jaG9yOm1pZGRsZTtmaWxsOiNmZmZmZmY7ZmlsbC1vcGFjaXR5OjE7c3Ryb2tlLXdpZHRoOjAuMjY0NTgzMzJweCIgeT0iMTYuODExNzc1IiB4PSI5Ljk3NDQ2NDQiIGlkPSJ0c3BhbjIwNjQiIHNvZGlwb2RpOnJvbGU9ImxpbmUiPmRlcGxveTwvdHNwYW4+PC90ZXh0PiYjeGE7ICAgIDxnIGlkPSJnMzM0MCIgdHJhbnNmb3JtPSJ0cmFuc2xhdGUoLTAuNjUzODU1NDYsMCkiPiYjeGE7ICAgICAgPHBhdGggc3R5bGU9ImZpbGw6I2ZmZmZmZjtmaWxsLXJ1bGU6ZXZlbm9kZDtzdHJva2U6bm9uZTtzdHJva2Utd2lkdGg6MC4yNjQ1ODMzMjtzdHJva2UtbGluZWNhcDpzcXVhcmU7c3Ryb2tlLW1pdGVybGltaXQ6MTAiIGlua3NjYXBlOmNvbm5lY3Rvci1jdXJ2YXR1cmU9IjAiIGQ9Im0gMTAuMjI1MDYyLDEzLjczMTYzMiAwLDAgQyA3Ljc4MjQyMTgsMTMuODQ3MTc3IDUuNzA1MDExNiwxMS45NjgzODYgNS41NzUzNDE3LDkuNTI2NDYzNCA1LjQ0NTY1MTYsNy4wODQ1NDA1IDcuMzEyNDAxOCw0Ljk5NjI5MDUgOS43NTM1MzE4LDQuODUyNDc5NSBjIDIuNDQxMTIwMiwtMC4xNDM4MTEgNC41NDAxNDEyLDEuNzEwODEgNC42OTgwODEyLDQuMTUxMDY4MiBsIC0xLjc1NzA4MSwwLjExMzcyMDggYyAtMC4wOTU0LC0xLjQ3MzgxOCAtMS4zNjMxMSwtMi41OTM5MzUgLTIuODM3NDYwMiwtMi41MDcwOCAtMS40NzQzNCwwLjA4Njg2IC0yLjYwMTc4LDEuMzQ4MDc2MSAtMi41MjM0NiwyLjgyMjg5OTEgMC4wNzgzLDEuNDc0ODIyNCAxLjMzMywyLjYwOTUzODQgMi44MDgyNTAyLDIuNTM5NzUzNCB6IiBpZD0icGF0aDEyMjIiLz4mI3hhOyAgICAgIDxwYXRoIHN0eWxlPSJmaWxsOiNmZmZmZmY7ZmlsbC1ydWxlOmV2ZW5vZGQ7c3Ryb2tlOm5vbmU7c3Ryb2tlLXdpZHRoOjAuMjY0NTgzMzI7c3Ryb2tlLWxpbmVjYXA6c3F1YXJlO3N0cm9rZS1taXRlcmxpbWl0OjEwIiBpbmtzY2FwZTpjb25uZWN0b3ItY3VydmF0dXJlPSIwIiBkPSJtIDExLjEzNTU3NCw5LjAwODgwMTUgMS4zOTc0NSwzLjQyMDUwODUgMy4yMjYzLC0zLjQyMDUwODUgeiIgaWQ9InBhdGgxMjI0Ii8+JiN4YTsgICAgPC9nPiYjeGE7ICA8L2c+JiN4YTs8L3N2Zz4=" vertex="1" parent="1">
          <mxGeometry x="170" y="217.5" width="105" height="105" as="geometry" />
        </mxCell>
        <mxCell id="CuJ7pr3B0lwYhuTaBker-9" value="BACK" style="shape=image;verticalLabelPosition=bottom;verticalAlign=top;imageAspect=0;aspect=fixed;image=data:image/svg+xml,PHN2ZyB4bWxuczpkYz0iaHR0cDovL3B1cmwub3JnL2RjL2VsZW1lbnRzLzEuMS8iIHhtbG5zOmNjPSJodHRwOi8vY3JlYXRpdmVjb21tb25zLm9yZy9ucyMiIHhtbG5zOnJkZj0iaHR0cDovL3d3dy53My5vcmcvMTk5OS8wMi8yMi1yZGYtc3ludGF4LW5zIyIgeG1sbnM6c3ZnPSJodHRwOi8vd3d3LnczLm9yZy8yMDAwL3N2ZyIgeG1sbnM9Imh0dHA6Ly93d3cudzMub3JnLzIwMDAvc3ZnIiB4bWxuczpzb2RpcG9kaT0iaHR0cDovL3NvZGlwb2RpLnNvdXJjZWZvcmdlLm5ldC9EVEQvc29kaXBvZGktMC5kdGQiIHhtbG5zOmlua3NjYXBlPSJodHRwOi8vd3d3Lmlua3NjYXBlLm9yZy9uYW1lc3BhY2VzL2lua3NjYXBlIiB3aWR0aD0iMTguMDM1MzM0bW0iIGhlaWdodD0iMTcuNTAwMzc4bW0iIHZpZXdCb3g9IjAgMCAxOC4wMzUzMzQgMTcuNTAwMzc4IiB2ZXJzaW9uPSIxLjEiIGlkPSJzdmcxMzgyNiIgaW5rc2NhcGU6dmVyc2lvbj0iMC45MSByMTM3MjUiIHNvZGlwb2RpOmRvY25hbWU9ImRlcGxveS5zdmciPiYjeGE7ICA8ZGVmcyBpZD0iZGVmczEzODIwIi8+JiN4YTsgIDxzb2RpcG9kaTpuYW1lZHZpZXcgaWQ9ImJhc2UiIHBhZ2Vjb2xvcj0iI2ZmZmZmZiIgYm9yZGVyY29sb3I9IiM2NjY2NjYiIGJvcmRlcm9wYWNpdHk9IjEuMCIgaW5rc2NhcGU6cGFnZW9wYWNpdHk9IjAuMCIgaW5rc2NhcGU6cGFnZXNoYWRvdz0iMiIgaW5rc2NhcGU6em9vbT0iOCIgaW5rc2NhcGU6Y3g9IjYuODQ3NDk2IiBpbmtzY2FwZTpjeT0iMzMuNzUyMjM5IiBpbmtzY2FwZTpkb2N1bWVudC11bml0cz0ibW0iIGlua3NjYXBlOmN1cnJlbnQtbGF5ZXI9ImxheWVyMSIgc2hvd2dyaWQ9ImZhbHNlIiBpbmtzY2FwZTp3aW5kb3ctd2lkdGg9IjE0NDAiIGlua3NjYXBlOndpbmRvdy1oZWlnaHQ9Ijc3NSIgaW5rc2NhcGU6d2luZG93LXg9IjAiIGlua3NjYXBlOndpbmRvdy15PSIxIiBpbmtzY2FwZTp3aW5kb3ctbWF4aW1pemVkPSIxIiBmaXQtbWFyZ2luLXRvcD0iMCIgZml0LW1hcmdpbi1sZWZ0PSIwIiBmaXQtbWFyZ2luLXJpZ2h0PSIwIiBmaXQtbWFyZ2luLWJvdHRvbT0iMCIvPiYjeGE7ICAmI3hhOyAgPGcgaW5rc2NhcGU6bGFiZWw9IkNhbHF1ZSAxIiBpbmtzY2FwZTpncm91cG1vZGU9ImxheWVyIiBpZD0ibGF5ZXIxIiB0cmFuc2Zvcm09InRyYW5zbGF0ZSgtMC45OTI2MjYzOCwtMS4xNzQxODEpIj4mI3hhOyAgICA8ZyBpZD0iZzcwIiB0cmFuc2Zvcm09Im1hdHJpeCgxLjAxNDg4ODcsMCwwLDEuMDE0ODg4NywxNi45MDIxNDYsLTIuNjk4NzI2KSI+JiN4YTsgICAgICA8cGF0aCBpbmtzY2FwZTpleHBvcnQteWRwaT0iMjUwLjU1IiBpbmtzY2FwZTpleHBvcnQteGRwaT0iMjUwLjU1IiBpbmtzY2FwZTpleHBvcnQtZmlsZW5hbWU9Im5ldy5wbmciIGlua3NjYXBlOmNvbm5lY3Rvci1jdXJ2YXR1cmU9IjAiIGlkPSJwYXRoMzA1NSIgZD0ibSAtNi44NDkyMDE1LDQuMjcyNDY2OCBhIDEuMTE5MTI1NSwxLjEwOTk2NzEgMCAwIDAgLTAuNDI4ODgxOCwwLjEwODUzMDMgbCAtNS44NTI0MDM3LDIuNzk2MzM5NCBhIDEuMTE5MTI1NSwxLjEwOTk2NzEgMCAwIDAgLTAuNjA1NTI0LDAuNzUyOTc1OSBsIC0xLjQ0MzgyOCw2LjI4MTI4NDYgYSAxLjExOTEyNTUsMS4xMDk5NjcxIDAgMCAwIDAuMTUxOTQzLDAuODUxMDI4IDEuMTE5MTI1NSwxLjEwOTk2NzEgMCAwIDAgMC4wNjM2MiwwLjA4ODMyIGwgNC4wNTA4LDUuMDM2NTU1IGEgMS4xMTkxMjU1LDEuMTA5OTY3MSAwIDAgMCAwLjg3NDk3OSwwLjQxNzY1NCBsIDYuNDk2MTAxMSwtMC4wMDE1IGEgMS4xMTkxMjU1LDEuMTA5OTY3MSAwIDAgMCAwLjg3NDk3ODgsLTAuNDE2OTA2IEwgMS4zODE4ODcyLDE1LjE0OTQ1MyBBIDEuMTE5MTI1NSwxLjEwOTk2NzEgMCAwIDAgMS41OTgxOTg2LDE0LjIxMDEwNCBMIDAuMTUyMTI2NTcsNy45Mjg4MTU0IEEgMS4xMTkxMjU1LDEuMTA5OTY3MSAwIDAgMCAtMC40NTMzOTc5NCw3LjE3NTgzOTYgTCAtNi4zMDY1NDk2LDQuMzgwOTk3MSBBIDEuMTE5MTI1NSwxLjEwOTk2NzEgMCAwIDAgLTYuODQ5MjAxNSw0LjI3MjQ2NjggWiIgc3R5bGU9ImZpbGw6IzMyNmNlNTtmaWxsLW9wYWNpdHk6MTtzdHJva2U6bm9uZTtzdHJva2Utd2lkdGg6MDtzdHJva2UtbWl0ZXJsaW1pdDo0O3N0cm9rZS1kYXNoYXJyYXk6bm9uZTtzdHJva2Utb3BhY2l0eToxIi8+JiN4YTsgICAgICA8cGF0aCBpZD0icGF0aDMwNTQtMi05IiBkPSJNIC02Ljg1MjM0MzUsMy44MTc2MzcyIEEgMS4xODE0MzA0LDEuMTcxNzYyIDAgMCAwIC03LjMwNDQyODQsMy45MzI5MDQgbCAtNi4xNzg3NDI2LDIuOTUxMjc1OCBhIDEuMTgxNDMwNCwxLjE3MTc2MiAwIDAgMCAtMC42MzkyMDYsMC43OTQ4OTEgbCAtMS41MjM5MTUsNi42MzA4MjgyIGEgMS4xODE0MzA0LDEuMTcxNzYyIDAgMCAwIDAuMTYwMTc1LDAuODk4OTMgMS4xODE0MzA0LDEuMTcxNzYyIDAgMCAwIDAuMDY3MzYsMC4wOTI4MSBsIDQuMjc2MDk0LDUuMzE3MjM2IGEgMS4xODE0MzA0LDEuMTcxNzYyIDAgMCAwIDAuOTIzNjMsMC40NDA4NTggbCA2Ljg1NzYxODgsLTAuMDAxNSBhIDEuMTgxNDMwNCwxLjE3MTc2MiAwIDAgMCAwLjkyMzYzMDgsLTAuNDQwMTEgbCA0LjI3NDU5NjYsLTUuMzE3OTg1IGEgMS4xODE0MzA0LDEuMTcxNzYyIDAgMCAwIDAuMjI4Mjg4LC0wLjk5MDk5MyBMIDAuNTM4OTQ0MzksNy42Nzc1NzM4IEEgMS4xODE0MzA0LDEuMTcxNzYyIDAgMCAwIC0wLjEwMDI2MTAxLDYuODgzNDMxMyBMIC02LjI3OTAwMzcsMy45MzIxNTU1IEEgMS4xODE0MzA0LDEuMTcxNzYyIDAgMCAwIC02Ljg1MjM0MzUsMy44MTc2MzcyIFogbSAwLjAwMjk5LDAuNDU1MDc4OSBhIDEuMTE5MTI1NSwxLjEwOTk2NzEgMCAwIDEgMC41NDI2NTE3LDAuMTA4NTMwMyBsIDUuODUzMTUxNjksMi43OTQ4NDI1IEEgMS4xMTkxMjU1LDEuMTA5OTY3MSAwIDAgMSAwLjE1MTk3ODExLDcuOTI5MDY0OCBMIDEuNTk4MDUxLDE0LjIxMDM1IGEgMS4xMTkxMjU1LDEuMTA5OTY3MSAwIDAgMSAtMC4yMTYzMTIzLDAuOTM5MzQ4IGwgLTQuMDQ5MzAzMiw1LjAzNzMwNCBhIDEuMTE5MTI1NSwxLjEwOTk2NzEgMCAwIDEgLTAuODc0OTc4OSwwLjQxNjkwNiBsIC02LjQ5NjEwMDYsMC4wMDE1IGEgMS4xMTkxMjU1LDEuMTA5OTY3MSAwIDAgMSAtMC44NzQ5NzksLTAuNDE3NjUyIGwgLTQuMDUwOCwtNS4wMzY1NTQgYSAxLjExOTEyNTUsMS4xMDk5NjcxIDAgMCAxIC0wLjA2MzYyLC0wLjA4ODMyIDEuMTE5MTI1NSwxLjEwOTk2NzEgMCAwIDEgLTAuMTUxOTQyLC0wLjg1MTAyOCBsIDEuNDQzODI3LC02LjI4MTI4NTMgYSAxLjExOTEyNTUsMS4xMDk5NjcxIDAgMCAxIDAuNjA1NTI0LC0wLjc1Mjk3NTggbCA1Ljg1MjQwMzYsLTIuNzk2MzM5NSBhIDEuMTE5MTI1NSwxLjEwOTk2NzEgMCAwIDEgMC40Mjg4ODE5LC0wLjEwODUzMDMgeiIgc3R5bGU9ImNvbG9yOiMwMDAwMDA7Zm9udC1zdHlsZTpub3JtYWw7Zm9udC12YXJpYW50Om5vcm1hbDtmb250LXdlaWdodDpub3JtYWw7Zm9udC1zdHJldGNoOm5vcm1hbDtmb250LXNpemU6bWVkaXVtO2xpbmUtaGVpZ2h0Om5vcm1hbDtmb250LWZhbWlseTpTYW5zOy1pbmtzY2FwZS1mb250LXNwZWNpZmljYXRpb246U2Fuczt0ZXh0LWluZGVudDowO3RleHQtYWxpZ246c3RhcnQ7dGV4dC1kZWNvcmF0aW9uOm5vbmU7dGV4dC1kZWNvcmF0aW9uLWxpbmU6bm9uZTtsZXR0ZXItc3BhY2luZzpub3JtYWw7d29yZC1zcGFjaW5nOm5vcm1hbDt0ZXh0LXRyYW5zZm9ybTpub25lO3dyaXRpbmctbW9kZTpsci10YjtkaXJlY3Rpb246bHRyO2Jhc2VsaW5lLXNoaWZ0OmJhc2VsaW5lO3RleHQtYW5jaG9yOnN0YXJ0O2Rpc3BsYXk6aW5saW5lO292ZXJmbG93OnZpc2libGU7dmlzaWJpbGl0eTp2aXNpYmxlO2ZpbGw6I2ZmZmZmZjtmaWxsLW9wYWNpdHk6MTtmaWxsLXJ1bGU6bm9uemVybztzdHJva2U6bm9uZTtzdHJva2Utd2lkdGg6MDtzdHJva2UtbWl0ZXJsaW1pdDo0O3N0cm9rZS1kYXNoYXJyYXk6bm9uZTttYXJrZXI6bm9uZTtlbmFibGUtYmFja2dyb3VuZDphY2N1bXVsYXRlIiBpbmtzY2FwZTpjb25uZWN0b3ItY3VydmF0dXJlPSIwIi8+JiN4YTsgICAgPC9nPiYjeGE7ICAgIDx0ZXh0IGlkPSJ0ZXh0MjA2NiIgeT0iMTYuODExNzc1IiB4PSI5Ljk3NDQ2NDQiIHN0eWxlPSJmb250LXN0eWxlOm5vcm1hbDtmb250LXdlaWdodDpub3JtYWw7Zm9udC1zaXplOjEwLjU4MzMzMzAycHg7bGluZS1oZWlnaHQ6Ni42MTQ1ODM0OXB4O2ZvbnQtZmFtaWx5OlNhbnM7bGV0dGVyLXNwYWNpbmc6MHB4O3dvcmQtc3BhY2luZzowcHg7ZmlsbDojZmZmZmZmO2ZpbGwtb3BhY2l0eToxO3N0cm9rZTpub25lO3N0cm9rZS13aWR0aDowLjI2NDU4MzMycHg7c3Ryb2tlLWxpbmVjYXA6YnV0dDtzdHJva2UtbGluZWpvaW46bWl0ZXI7c3Ryb2tlLW9wYWNpdHk6MSIgeG1sOnNwYWNlPSJwcmVzZXJ2ZSI+PHRzcGFuIHN0eWxlPSJmb250LXN0eWxlOm5vcm1hbDtmb250LXZhcmlhbnQ6bm9ybWFsO2ZvbnQtd2VpZ2h0Om5vcm1hbDtmb250LXN0cmV0Y2g6bm9ybWFsO2ZvbnQtc2l6ZToyLjgyMjIyMjIzcHg7Zm9udC1mYW1pbHk6QXJpYWw7LWlua3NjYXBlLWZvbnQtc3BlY2lmaWNhdGlvbjonQXJpYWwsIE5vcm1hbCc7dGV4dC1hbGlnbjpjZW50ZXI7d3JpdGluZy1tb2RlOmxyLXRiO3RleHQtYW5jaG9yOm1pZGRsZTtmaWxsOiNmZmZmZmY7ZmlsbC1vcGFjaXR5OjE7c3Ryb2tlLXdpZHRoOjAuMjY0NTgzMzJweCIgeT0iMTYuODExNzc1IiB4PSI5Ljk3NDQ2NDQiIGlkPSJ0c3BhbjIwNjQiIHNvZGlwb2RpOnJvbGU9ImxpbmUiPmRlcGxveTwvdHNwYW4+PC90ZXh0PiYjeGE7ICAgIDxnIGlkPSJnMzM0MCIgdHJhbnNmb3JtPSJ0cmFuc2xhdGUoLTAuNjUzODU1NDYsMCkiPiYjeGE7ICAgICAgPHBhdGggc3R5bGU9ImZpbGw6I2ZmZmZmZjtmaWxsLXJ1bGU6ZXZlbm9kZDtzdHJva2U6bm9uZTtzdHJva2Utd2lkdGg6MC4yNjQ1ODMzMjtzdHJva2UtbGluZWNhcDpzcXVhcmU7c3Ryb2tlLW1pdGVybGltaXQ6MTAiIGlua3NjYXBlOmNvbm5lY3Rvci1jdXJ2YXR1cmU9IjAiIGQ9Im0gMTAuMjI1MDYyLDEzLjczMTYzMiAwLDAgQyA3Ljc4MjQyMTgsMTMuODQ3MTc3IDUuNzA1MDExNiwxMS45NjgzODYgNS41NzUzNDE3LDkuNTI2NDYzNCA1LjQ0NTY1MTYsNy4wODQ1NDA1IDcuMzEyNDAxOCw0Ljk5NjI5MDUgOS43NTM1MzE4LDQuODUyNDc5NSBjIDIuNDQxMTIwMiwtMC4xNDM4MTEgNC41NDAxNDEyLDEuNzEwODEgNC42OTgwODEyLDQuMTUxMDY4MiBsIC0xLjc1NzA4MSwwLjExMzcyMDggYyAtMC4wOTU0LC0xLjQ3MzgxOCAtMS4zNjMxMSwtMi41OTM5MzUgLTIuODM3NDYwMiwtMi41MDcwOCAtMS40NzQzNCwwLjA4Njg2IC0yLjYwMTc4LDEuMzQ4MDc2MSAtMi41MjM0NiwyLjgyMjg5OTEgMC4wNzgzLDEuNDc0ODIyNCAxLjMzMywyLjYwOTUzODQgMi44MDgyNTAyLDIuNTM5NzUzNCB6IiBpZD0icGF0aDEyMjIiLz4mI3hhOyAgICAgIDxwYXRoIHN0eWxlPSJmaWxsOiNmZmZmZmY7ZmlsbC1ydWxlOmV2ZW5vZGQ7c3Ryb2tlOm5vbmU7c3Ryb2tlLXdpZHRoOjAuMjY0NTgzMzI7c3Ryb2tlLWxpbmVjYXA6c3F1YXJlO3N0cm9rZS1taXRlcmxpbWl0OjEwIiBpbmtzY2FwZTpjb25uZWN0b3ItY3VydmF0dXJlPSIwIiBkPSJtIDExLjEzNTU3NCw5LjAwODgwMTUgMS4zOTc0NSwzLjQyMDUwODUgMy4yMjYzLC0zLjQyMDUwODUgeiIgaWQ9InBhdGgxMjI0Ii8+JiN4YTsgICAgPC9nPiYjeGE7ICA8L2c+JiN4YTs8L3N2Zz4=" vertex="1" parent="1">
          <mxGeometry x="408.5" y="217.5" width="105" height="105" as="geometry" />
        </mxCell>
        <mxCell id="CuJ7pr3B0lwYhuTaBker-10" value="AI" style="shape=image;verticalLabelPosition=bottom;verticalAlign=top;imageAspect=0;aspect=fixed;image=data:image/svg+xml,PHN2ZyB4bWxuczpkYz0iaHR0cDovL3B1cmwub3JnL2RjL2VsZW1lbnRzLzEuMS8iIHhtbG5zOmNjPSJodHRwOi8vY3JlYXRpdmVjb21tb25zLm9yZy9ucyMiIHhtbG5zOnJkZj0iaHR0cDovL3d3dy53My5vcmcvMTk5OS8wMi8yMi1yZGYtc3ludGF4LW5zIyIgeG1sbnM6c3ZnPSJodHRwOi8vd3d3LnczLm9yZy8yMDAwL3N2ZyIgeG1sbnM9Imh0dHA6Ly93d3cudzMub3JnLzIwMDAvc3ZnIiB4bWxuczpzb2RpcG9kaT0iaHR0cDovL3NvZGlwb2RpLnNvdXJjZWZvcmdlLm5ldC9EVEQvc29kaXBvZGktMC5kdGQiIHhtbG5zOmlua3NjYXBlPSJodHRwOi8vd3d3Lmlua3NjYXBlLm9yZy9uYW1lc3BhY2VzL2lua3NjYXBlIiB3aWR0aD0iMTguMDM1MzM0bW0iIGhlaWdodD0iMTcuNTAwMzc4bW0iIHZpZXdCb3g9IjAgMCAxOC4wMzUzMzQgMTcuNTAwMzc4IiB2ZXJzaW9uPSIxLjEiIGlkPSJzdmcxMzgyNiIgaW5rc2NhcGU6dmVyc2lvbj0iMC45MSByMTM3MjUiIHNvZGlwb2RpOmRvY25hbWU9ImRlcGxveS5zdmciPiYjeGE7ICA8ZGVmcyBpZD0iZGVmczEzODIwIi8+JiN4YTsgIDxzb2RpcG9kaTpuYW1lZHZpZXcgaWQ9ImJhc2UiIHBhZ2Vjb2xvcj0iI2ZmZmZmZiIgYm9yZGVyY29sb3I9IiM2NjY2NjYiIGJvcmRlcm9wYWNpdHk9IjEuMCIgaW5rc2NhcGU6cGFnZW9wYWNpdHk9IjAuMCIgaW5rc2NhcGU6cGFnZXNoYWRvdz0iMiIgaW5rc2NhcGU6em9vbT0iOCIgaW5rc2NhcGU6Y3g9IjYuODQ3NDk2IiBpbmtzY2FwZTpjeT0iMzMuNzUyMjM5IiBpbmtzY2FwZTpkb2N1bWVudC11bml0cz0ibW0iIGlua3NjYXBlOmN1cnJlbnQtbGF5ZXI9ImxheWVyMSIgc2hvd2dyaWQ9ImZhbHNlIiBpbmtzY2FwZTp3aW5kb3ctd2lkdGg9IjE0NDAiIGlua3NjYXBlOndpbmRvdy1oZWlnaHQ9Ijc3NSIgaW5rc2NhcGU6d2luZG93LXg9IjAiIGlua3NjYXBlOndpbmRvdy15PSIxIiBpbmtzY2FwZTp3aW5kb3ctbWF4aW1pemVkPSIxIiBmaXQtbWFyZ2luLXRvcD0iMCIgZml0LW1hcmdpbi1sZWZ0PSIwIiBmaXQtbWFyZ2luLXJpZ2h0PSIwIiBmaXQtbWFyZ2luLWJvdHRvbT0iMCIvPiYjeGE7ICAmI3hhOyAgPGcgaW5rc2NhcGU6bGFiZWw9IkNhbHF1ZSAxIiBpbmtzY2FwZTpncm91cG1vZGU9ImxheWVyIiBpZD0ibGF5ZXIxIiB0cmFuc2Zvcm09InRyYW5zbGF0ZSgtMC45OTI2MjYzOCwtMS4xNzQxODEpIj4mI3hhOyAgICA8ZyBpZD0iZzcwIiB0cmFuc2Zvcm09Im1hdHJpeCgxLjAxNDg4ODcsMCwwLDEuMDE0ODg4NywxNi45MDIxNDYsLTIuNjk4NzI2KSI+JiN4YTsgICAgICA8cGF0aCBpbmtzY2FwZTpleHBvcnQteWRwaT0iMjUwLjU1IiBpbmtzY2FwZTpleHBvcnQteGRwaT0iMjUwLjU1IiBpbmtzY2FwZTpleHBvcnQtZmlsZW5hbWU9Im5ldy5wbmciIGlua3NjYXBlOmNvbm5lY3Rvci1jdXJ2YXR1cmU9IjAiIGlkPSJwYXRoMzA1NSIgZD0ibSAtNi44NDkyMDE1LDQuMjcyNDY2OCBhIDEuMTE5MTI1NSwxLjEwOTk2NzEgMCAwIDAgLTAuNDI4ODgxOCwwLjEwODUzMDMgbCAtNS44NTI0MDM3LDIuNzk2MzM5NCBhIDEuMTE5MTI1NSwxLjEwOTk2NzEgMCAwIDAgLTAuNjA1NTI0LDAuNzUyOTc1OSBsIC0xLjQ0MzgyOCw2LjI4MTI4NDYgYSAxLjExOTEyNTUsMS4xMDk5NjcxIDAgMCAwIDAuMTUxOTQzLDAuODUxMDI4IDEuMTE5MTI1NSwxLjEwOTk2NzEgMCAwIDAgMC4wNjM2MiwwLjA4ODMyIGwgNC4wNTA4LDUuMDM2NTU1IGEgMS4xMTkxMjU1LDEuMTA5OTY3MSAwIDAgMCAwLjg3NDk3OSwwLjQxNzY1NCBsIDYuNDk2MTAxMSwtMC4wMDE1IGEgMS4xMTkxMjU1LDEuMTA5OTY3MSAwIDAgMCAwLjg3NDk3ODgsLTAuNDE2OTA2IEwgMS4zODE4ODcyLDE1LjE0OTQ1MyBBIDEuMTE5MTI1NSwxLjEwOTk2NzEgMCAwIDAgMS41OTgxOTg2LDE0LjIxMDEwNCBMIDAuMTUyMTI2NTcsNy45Mjg4MTU0IEEgMS4xMTkxMjU1LDEuMTA5OTY3MSAwIDAgMCAtMC40NTMzOTc5NCw3LjE3NTgzOTYgTCAtNi4zMDY1NDk2LDQuMzgwOTk3MSBBIDEuMTE5MTI1NSwxLjEwOTk2NzEgMCAwIDAgLTYuODQ5MjAxNSw0LjI3MjQ2NjggWiIgc3R5bGU9ImZpbGw6IzMyNmNlNTtmaWxsLW9wYWNpdHk6MTtzdHJva2U6bm9uZTtzdHJva2Utd2lkdGg6MDtzdHJva2UtbWl0ZXJsaW1pdDo0O3N0cm9rZS1kYXNoYXJyYXk6bm9uZTtzdHJva2Utb3BhY2l0eToxIi8+JiN4YTsgICAgICA8cGF0aCBpZD0icGF0aDMwNTQtMi05IiBkPSJNIC02Ljg1MjM0MzUsMy44MTc2MzcyIEEgMS4xODE0MzA0LDEuMTcxNzYyIDAgMCAwIC03LjMwNDQyODQsMy45MzI5MDQgbCAtNi4xNzg3NDI2LDIuOTUxMjc1OCBhIDEuMTgxNDMwNCwxLjE3MTc2MiAwIDAgMCAtMC42MzkyMDYsMC43OTQ4OTEgbCAtMS41MjM5MTUsNi42MzA4MjgyIGEgMS4xODE0MzA0LDEuMTcxNzYyIDAgMCAwIDAuMTYwMTc1LDAuODk4OTMgMS4xODE0MzA0LDEuMTcxNzYyIDAgMCAwIDAuMDY3MzYsMC4wOTI4MSBsIDQuMjc2MDk0LDUuMzE3MjM2IGEgMS4xODE0MzA0LDEuMTcxNzYyIDAgMCAwIDAuOTIzNjMsMC40NDA4NTggbCA2Ljg1NzYxODgsLTAuMDAxNSBhIDEuMTgxNDMwNCwxLjE3MTc2MiAwIDAgMCAwLjkyMzYzMDgsLTAuNDQwMTEgbCA0LjI3NDU5NjYsLTUuMzE3OTg1IGEgMS4xODE0MzA0LDEuMTcxNzYyIDAgMCAwIDAuMjI4Mjg4LC0wLjk5MDk5MyBMIDAuNTM4OTQ0MzksNy42Nzc1NzM4IEEgMS4xODE0MzA0LDEuMTcxNzYyIDAgMCAwIC0wLjEwMDI2MTAxLDYuODgzNDMxMyBMIC02LjI3OTAwMzcsMy45MzIxNTU1IEEgMS4xODE0MzA0LDEuMTcxNzYyIDAgMCAwIC02Ljg1MjM0MzUsMy44MTc2MzcyIFogbSAwLjAwMjk5LDAuNDU1MDc4OSBhIDEuMTE5MTI1NSwxLjEwOTk2NzEgMCAwIDEgMC41NDI2NTE3LDAuMTA4NTMwMyBsIDUuODUzMTUxNjksMi43OTQ4NDI1IEEgMS4xMTkxMjU1LDEuMTA5OTY3MSAwIDAgMSAwLjE1MTk3ODExLDcuOTI5MDY0OCBMIDEuNTk4MDUxLDE0LjIxMDM1IGEgMS4xMTkxMjU1LDEuMTA5OTY3MSAwIDAgMSAtMC4yMTYzMTIzLDAuOTM5MzQ4IGwgLTQuMDQ5MzAzMiw1LjAzNzMwNCBhIDEuMTE5MTI1NSwxLjEwOTk2NzEgMCAwIDEgLTAuODc0OTc4OSwwLjQxNjkwNiBsIC02LjQ5NjEwMDYsMC4wMDE1IGEgMS4xMTkxMjU1LDEuMTA5OTY3MSAwIDAgMSAtMC44NzQ5NzksLTAuNDE3NjUyIGwgLTQuMDUwOCwtNS4wMzY1NTQgYSAxLjExOTEyNTUsMS4xMDk5NjcxIDAgMCAxIC0wLjA2MzYyLC0wLjA4ODMyIDEuMTE5MTI1NSwxLjEwOTk2NzEgMCAwIDEgLTAuMTUxOTQyLC0wLjg1MTAyOCBsIDEuNDQzODI3LC02LjI4MTI4NTMgYSAxLjExOTEyNTUsMS4xMDk5NjcxIDAgMCAxIDAuNjA1NTI0LC0wLjc1Mjk3NTggbCA1Ljg1MjQwMzYsLTIuNzk2MzM5NSBhIDEuMTE5MTI1NSwxLjEwOTk2NzEgMCAwIDEgMC40Mjg4ODE5LC0wLjEwODUzMDMgeiIgc3R5bGU9ImNvbG9yOiMwMDAwMDA7Zm9udC1zdHlsZTpub3JtYWw7Zm9udC12YXJpYW50Om5vcm1hbDtmb250LXdlaWdodDpub3JtYWw7Zm9udC1zdHJldGNoOm5vcm1hbDtmb250LXNpemU6bWVkaXVtO2xpbmUtaGVpZ2h0Om5vcm1hbDtmb250LWZhbWlseTpTYW5zOy1pbmtzY2FwZS1mb250LXNwZWNpZmljYXRpb246U2Fuczt0ZXh0LWluZGVudDowO3RleHQtYWxpZ246c3RhcnQ7dGV4dC1kZWNvcmF0aW9uOm5vbmU7dGV4dC1kZWNvcmF0aW9uLWxpbmU6bm9uZTtsZXR0ZXItc3BhY2luZzpub3JtYWw7d29yZC1zcGFjaW5nOm5vcm1hbDt0ZXh0LXRyYW5zZm9ybTpub25lO3dyaXRpbmctbW9kZTpsci10YjtkaXJlY3Rpb246bHRyO2Jhc2VsaW5lLXNoaWZ0OmJhc2VsaW5lO3RleHQtYW5jaG9yOnN0YXJ0O2Rpc3BsYXk6aW5saW5lO292ZXJmbG93OnZpc2libGU7dmlzaWJpbGl0eTp2aXNpYmxlO2ZpbGw6I2ZmZmZmZjtmaWxsLW9wYWNpdHk6MTtmaWxsLXJ1bGU6bm9uemVybztzdHJva2U6bm9uZTtzdHJva2Utd2lkdGg6MDtzdHJva2UtbWl0ZXJsaW1pdDo0O3N0cm9rZS1kYXNoYXJyYXk6bm9uZTttYXJrZXI6bm9uZTtlbmFibGUtYmFja2dyb3VuZDphY2N1bXVsYXRlIiBpbmtzY2FwZTpjb25uZWN0b3ItY3VydmF0dXJlPSIwIi8+JiN4YTsgICAgPC9nPiYjeGE7ICAgIDx0ZXh0IGlkPSJ0ZXh0MjA2NiIgeT0iMTYuODExNzc1IiB4PSI5Ljk3NDQ2NDQiIHN0eWxlPSJmb250LXN0eWxlOm5vcm1hbDtmb250LXdlaWdodDpub3JtYWw7Zm9udC1zaXplOjEwLjU4MzMzMzAycHg7bGluZS1oZWlnaHQ6Ni42MTQ1ODM0OXB4O2ZvbnQtZmFtaWx5OlNhbnM7bGV0dGVyLXNwYWNpbmc6MHB4O3dvcmQtc3BhY2luZzowcHg7ZmlsbDojZmZmZmZmO2ZpbGwtb3BhY2l0eToxO3N0cm9rZTpub25lO3N0cm9rZS13aWR0aDowLjI2NDU4MzMycHg7c3Ryb2tlLWxpbmVjYXA6YnV0dDtzdHJva2UtbGluZWpvaW46bWl0ZXI7c3Ryb2tlLW9wYWNpdHk6MSIgeG1sOnNwYWNlPSJwcmVzZXJ2ZSI+PHRzcGFuIHN0eWxlPSJmb250LXN0eWxlOm5vcm1hbDtmb250LXZhcmlhbnQ6bm9ybWFsO2ZvbnQtd2VpZ2h0Om5vcm1hbDtmb250LXN0cmV0Y2g6bm9ybWFsO2ZvbnQtc2l6ZToyLjgyMjIyMjIzcHg7Zm9udC1mYW1pbHk6QXJpYWw7LWlua3NjYXBlLWZvbnQtc3BlY2lmaWNhdGlvbjonQXJpYWwsIE5vcm1hbCc7dGV4dC1hbGlnbjpjZW50ZXI7d3JpdGluZy1tb2RlOmxyLXRiO3RleHQtYW5jaG9yOm1pZGRsZTtmaWxsOiNmZmZmZmY7ZmlsbC1vcGFjaXR5OjE7c3Ryb2tlLXdpZHRoOjAuMjY0NTgzMzJweCIgeT0iMTYuODExNzc1IiB4PSI5Ljk3NDQ2NDQiIGlkPSJ0c3BhbjIwNjQiIHNvZGlwb2RpOnJvbGU9ImxpbmUiPmRlcGxveTwvdHNwYW4+PC90ZXh0PiYjeGE7ICAgIDxnIGlkPSJnMzM0MCIgdHJhbnNmb3JtPSJ0cmFuc2xhdGUoLTAuNjUzODU1NDYsMCkiPiYjeGE7ICAgICAgPHBhdGggc3R5bGU9ImZpbGw6I2ZmZmZmZjtmaWxsLXJ1bGU6ZXZlbm9kZDtzdHJva2U6bm9uZTtzdHJva2Utd2lkdGg6MC4yNjQ1ODMzMjtzdHJva2UtbGluZWNhcDpzcXVhcmU7c3Ryb2tlLW1pdGVybGltaXQ6MTAiIGlua3NjYXBlOmNvbm5lY3Rvci1jdXJ2YXR1cmU9IjAiIGQ9Im0gMTAuMjI1MDYyLDEzLjczMTYzMiAwLDAgQyA3Ljc4MjQyMTgsMTMuODQ3MTc3IDUuNzA1MDExNiwxMS45NjgzODYgNS41NzUzNDE3LDkuNTI2NDYzNCA1LjQ0NTY1MTYsNy4wODQ1NDA1IDcuMzEyNDAxOCw0Ljk5NjI5MDUgOS43NTM1MzE4LDQuODUyNDc5NSBjIDIuNDQxMTIwMiwtMC4xNDM4MTEgNC41NDAxNDEyLDEuNzEwODEgNC42OTgwODEyLDQuMTUxMDY4MiBsIC0xLjc1NzA4MSwwLjExMzcyMDggYyAtMC4wOTU0LC0xLjQ3MzgxOCAtMS4zNjMxMSwtMi41OTM5MzUgLTIuODM3NDYwMiwtMi41MDcwOCAtMS40NzQzNCwwLjA4Njg2IC0yLjYwMTc4LDEuMzQ4MDc2MSAtMi41MjM0NiwyLjgyMjg5OTEgMC4wNzgzLDEuNDc0ODIyNCAxLjMzMywyLjYwOTUzODQgMi44MDgyNTAyLDIuNTM5NzUzNCB6IiBpZD0icGF0aDEyMjIiLz4mI3hhOyAgICAgIDxwYXRoIHN0eWxlPSJmaWxsOiNmZmZmZmY7ZmlsbC1ydWxlOmV2ZW5vZGQ7c3Ryb2tlOm5vbmU7c3Ryb2tlLXdpZHRoOjAuMjY0NTgzMzI7c3Ryb2tlLWxpbmVjYXA6c3F1YXJlO3N0cm9rZS1taXRlcmxpbWl0OjEwIiBpbmtzY2FwZTpjb25uZWN0b3ItY3VydmF0dXJlPSIwIiBkPSJtIDExLjEzNTU3NCw5LjAwODgwMTUgMS4zOTc0NSwzLjQyMDUwODUgMy4yMjYzLC0zLjQyMDUwODUgeiIgaWQ9InBhdGgxMjI0Ii8+JiN4YTsgICAgPC9nPiYjeGE7ICA8L2c+JiN4YTs8L3N2Zz4=" vertex="1" parent="1">
          <mxGeometry x="657.5" y="217.5" width="105" height="105" as="geometry" />
        </mxCell>
        <mxCell id="CuJ7pr3B0lwYhuTaBker-11" value="" style="shape=image;verticalLabelPosition=bottom;verticalAlign=top;imageAspect=0;aspect=fixed;image=data:image/svg+xml,PHN2ZyB4bWxuczpkYz0iaHR0cDovL3B1cmwub3JnL2RjL2VsZW1lbnRzLzEuMS8iIHhtbG5zOmNjPSJodHRwOi8vY3JlYXRpdmVjb21tb25zLm9yZy9ucyMiIHhtbG5zOnJkZj0iaHR0cDovL3d3dy53My5vcmcvMTk5OS8wMi8yMi1yZGYtc3ludGF4LW5zIyIgeG1sbnM6c3ZnPSJodHRwOi8vd3d3LnczLm9yZy8yMDAwL3N2ZyIgeG1sbnM9Imh0dHA6Ly93d3cudzMub3JnLzIwMDAvc3ZnIiB4bWxuczpzb2RpcG9kaT0iaHR0cDovL3NvZGlwb2RpLnNvdXJjZWZvcmdlLm5ldC9EVEQvc29kaXBvZGktMC5kdGQiIHhtbG5zOmlua3NjYXBlPSJodHRwOi8vd3d3Lmlua3NjYXBlLm9yZy9uYW1lc3BhY2VzL2lua3NjYXBlIiB3aWR0aD0iMTguMDM1MzM0bW0iIGhlaWdodD0iMTcuNTAwMzc4bW0iIHZpZXdCb3g9IjAgMCAxOC4wMzUzMzQgMTcuNTAwMzc4IiB2ZXJzaW9uPSIxLjEiIGlkPSJzdmcxMzgyNiIgaW5rc2NhcGU6dmVyc2lvbj0iMC45MSByMTM3MjUiIHNvZGlwb2RpOmRvY25hbWU9InBvZC5zdmciPiYjeGE7ICA8ZGVmcyBpZD0iZGVmczEzODIwIi8+JiN4YTsgIDxzb2RpcG9kaTpuYW1lZHZpZXcgaWQ9ImJhc2UiIHBhZ2Vjb2xvcj0iI2ZmZmZmZiIgYm9yZGVyY29sb3I9IiM2NjY2NjYiIGJvcmRlcm9wYWNpdHk9IjEuMCIgaW5rc2NhcGU6cGFnZW9wYWNpdHk9IjAuMCIgaW5rc2NhcGU6cGFnZXNoYWRvdz0iMiIgaW5rc2NhcGU6em9vbT0iOCIgaW5rc2NhcGU6Y3g9IjE2Ljg0NzQ5NiIgaW5rc2NhcGU6Y3k9IjMzLjc1MjIzOSIgaW5rc2NhcGU6ZG9jdW1lbnQtdW5pdHM9Im1tIiBpbmtzY2FwZTpjdXJyZW50LWxheWVyPSJsYXllcjEiIHNob3dncmlkPSJmYWxzZSIgaW5rc2NhcGU6d2luZG93LXdpZHRoPSIxNDQwIiBpbmtzY2FwZTp3aW5kb3ctaGVpZ2h0PSI3NzUiIGlua3NjYXBlOndpbmRvdy14PSIwIiBpbmtzY2FwZTp3aW5kb3cteT0iMSIgaW5rc2NhcGU6d2luZG93LW1heGltaXplZD0iMSIgZml0LW1hcmdpbi10b3A9IjAiIGZpdC1tYXJnaW4tbGVmdD0iMCIgZml0LW1hcmdpbi1yaWdodD0iMCIgZml0LW1hcmdpbi1ib3R0b209IjAiLz4mI3hhOyAgJiN4YTsgIDxnIGlua3NjYXBlOmxhYmVsPSJDYWxxdWUgMSIgaW5rc2NhcGU6Z3JvdXBtb2RlPSJsYXllciIgaWQ9ImxheWVyMSIgdHJhbnNmb3JtPSJ0cmFuc2xhdGUoLTAuOTkyNjI2MzgsLTEuMTc0MTgxKSI+JiN4YTsgICAgPGcgaWQ9Imc3MCIgdHJhbnNmb3JtPSJtYXRyaXgoMS4wMTQ4ODg3LDAsMCwxLjAxNDg4ODcsMTYuOTAyMTQ2LC0yLjY5ODcyNikiPiYjeGE7ICAgICAgPHBhdGggaW5rc2NhcGU6ZXhwb3J0LXlkcGk9IjI1MC41NSIgaW5rc2NhcGU6ZXhwb3J0LXhkcGk9IjI1MC41NSIgaW5rc2NhcGU6ZXhwb3J0LWZpbGVuYW1lPSJuZXcucG5nIiBpbmtzY2FwZTpjb25uZWN0b3ItY3VydmF0dXJlPSIwIiBpZD0icGF0aDMwNTUiIGQ9Im0gLTYuODQ5MjAxNSw0LjI3MjQ2NjggYSAxLjExOTEyNTUsMS4xMDk5NjcxIDAgMCAwIC0wLjQyODg4MTgsMC4xMDg1MzAzIGwgLTUuODUyNDAzNywyLjc5NjMzOTQgYSAxLjExOTEyNTUsMS4xMDk5NjcxIDAgMCAwIC0wLjYwNTUyNCwwLjc1Mjk3NTkgbCAtMS40NDM4MjgsNi4yODEyODQ2IGEgMS4xMTkxMjU1LDEuMTA5OTY3MSAwIDAgMCAwLjE1MTk0MywwLjg1MTAyOCAxLjExOTEyNTUsMS4xMDk5NjcxIDAgMCAwIDAuMDYzNjIsMC4wODgzMiBsIDQuMDUwOCw1LjAzNjU1NSBhIDEuMTE5MTI1NSwxLjEwOTk2NzEgMCAwIDAgMC44NzQ5NzksMC40MTc2NTQgbCA2LjQ5NjEwMTEsLTAuMDAxNSBhIDEuMTE5MTI1NSwxLjEwOTk2NzEgMCAwIDAgMC44NzQ5Nzg4LC0wLjQxNjkwNiBMIDEuMzgxODg3MiwxNS4xNDk0NTMgQSAxLjExOTEyNTUsMS4xMDk5NjcxIDAgMCAwIDEuNTk4MTk4NiwxNC4yMTAxMDQgTCAwLjE1MjEyNjU3LDcuOTI4ODE1NCBBIDEuMTE5MTI1NSwxLjEwOTk2NzEgMCAwIDAgLTAuNDUzMzk3OTQsNy4xNzU4Mzk2IEwgLTYuMzA2NTQ5Niw0LjM4MDk5NzEgQSAxLjExOTEyNTUsMS4xMDk5NjcxIDAgMCAwIC02Ljg0OTIwMTUsNC4yNzI0NjY4IFoiIHN0eWxlPSJmaWxsOiMzMjZjZTU7ZmlsbC1vcGFjaXR5OjE7c3Ryb2tlOm5vbmU7c3Ryb2tlLXdpZHRoOjA7c3Ryb2tlLW1pdGVybGltaXQ6NDtzdHJva2UtZGFzaGFycmF5Om5vbmU7c3Ryb2tlLW9wYWNpdHk6MSIvPiYjeGE7ICAgICAgPHBhdGggaWQ9InBhdGgzMDU0LTItOSIgZD0iTSAtNi44NTIzNDM1LDMuODE3NjM3MiBBIDEuMTgxNDMwNCwxLjE3MTc2MiAwIDAgMCAtNy4zMDQ0Mjg0LDMuOTMyOTA0IGwgLTYuMTc4NzQyNiwyLjk1MTI3NTggYSAxLjE4MTQzMDQsMS4xNzE3NjIgMCAwIDAgLTAuNjM5MjA2LDAuNzk0ODkxIGwgLTEuNTIzOTE1LDYuNjMwODI4MiBhIDEuMTgxNDMwNCwxLjE3MTc2MiAwIDAgMCAwLjE2MDE3NSwwLjg5ODkzIDEuMTgxNDMwNCwxLjE3MTc2MiAwIDAgMCAwLjA2NzM2LDAuMDkyODEgbCA0LjI3NjA5NCw1LjMxNzIzNiBhIDEuMTgxNDMwNCwxLjE3MTc2MiAwIDAgMCAwLjkyMzYzLDAuNDQwODU4IGwgNi44NTc2MTg4LC0wLjAwMTUgYSAxLjE4MTQzMDQsMS4xNzE3NjIgMCAwIDAgMC45MjM2MzA4LC0wLjQ0MDExIGwgNC4yNzQ1OTY2LC01LjMxNzk4NSBhIDEuMTgxNDMwNCwxLjE3MTc2MiAwIDAgMCAwLjIyODI4OCwtMC45OTA5OTMgTCAwLjUzODk0NDM5LDcuNjc3NTczOCBBIDEuMTgxNDMwNCwxLjE3MTc2MiAwIDAgMCAtMC4xMDAyNjEwMSw2Ljg4MzQzMTMgTCAtNi4yNzkwMDM3LDMuOTMyMTU1NSBBIDEuMTgxNDMwNCwxLjE3MTc2MiAwIDAgMCAtNi44NTIzNDM1LDMuODE3NjM3MiBaIG0gMC4wMDI5OSwwLjQ1NTA3ODkgYSAxLjExOTEyNTUsMS4xMDk5NjcxIDAgMCAxIDAuNTQyNjUxNywwLjEwODUzMDMgbCA1Ljg1MzE1MTY5LDIuNzk0ODQyNSBBIDEuMTE5MTI1NSwxLjEwOTk2NzEgMCAwIDEgMC4xNTE5NzgxMSw3LjkyOTA2NDggTCAxLjU5ODA1MSwxNC4yMTAzNSBhIDEuMTE5MTI1NSwxLjEwOTk2NzEgMCAwIDEgLTAuMjE2MzEyMywwLjkzOTM0OCBsIC00LjA0OTMwMzIsNS4wMzczMDQgYSAxLjExOTEyNTUsMS4xMDk5NjcxIDAgMCAxIC0wLjg3NDk3ODksMC40MTY5MDYgbCAtNi40OTYxMDA2LDAuMDAxNSBhIDEuMTE5MTI1NSwxLjEwOTk2NzEgMCAwIDEgLTAuODc0OTc5LC0wLjQxNzY1MiBsIC00LjA1MDgsLTUuMDM2NTU0IGEgMS4xMTkxMjU1LDEuMTA5OTY3MSAwIDAgMSAtMC4wNjM2MiwtMC4wODgzMiAxLjExOTEyNTUsMS4xMDk5NjcxIDAgMCAxIC0wLjE1MTk0MiwtMC44NTEwMjggbCAxLjQ0MzgyNywtNi4yODEyODUzIGEgMS4xMTkxMjU1LDEuMTA5OTY3MSAwIDAgMSAwLjYwNTUyNCwtMC43NTI5NzU4IGwgNS44NTI0MDM2LC0yLjc5NjMzOTUgYSAxLjExOTEyNTUsMS4xMDk5NjcxIDAgMCAxIDAuNDI4ODgxOSwtMC4xMDg1MzAzIHoiIHN0eWxlPSJjb2xvcjojMDAwMDAwO2ZvbnQtc3R5bGU6bm9ybWFsO2ZvbnQtdmFyaWFudDpub3JtYWw7Zm9udC13ZWlnaHQ6bm9ybWFsO2ZvbnQtc3RyZXRjaDpub3JtYWw7Zm9udC1zaXplOm1lZGl1bTtsaW5lLWhlaWdodDpub3JtYWw7Zm9udC1mYW1pbHk6U2FuczstaW5rc2NhcGUtZm9udC1zcGVjaWZpY2F0aW9uOlNhbnM7dGV4dC1pbmRlbnQ6MDt0ZXh0LWFsaWduOnN0YXJ0O3RleHQtZGVjb3JhdGlvbjpub25lO3RleHQtZGVjb3JhdGlvbi1saW5lOm5vbmU7bGV0dGVyLXNwYWNpbmc6bm9ybWFsO3dvcmQtc3BhY2luZzpub3JtYWw7dGV4dC10cmFuc2Zvcm06bm9uZTt3cml0aW5nLW1vZGU6bHItdGI7ZGlyZWN0aW9uOmx0cjtiYXNlbGluZS1zaGlmdDpiYXNlbGluZTt0ZXh0LWFuY2hvcjpzdGFydDtkaXNwbGF5OmlubGluZTtvdmVyZmxvdzp2aXNpYmxlO3Zpc2liaWxpdHk6dmlzaWJsZTtmaWxsOiNmZmZmZmY7ZmlsbC1vcGFjaXR5OjE7ZmlsbC1ydWxlOm5vbnplcm87c3Ryb2tlOm5vbmU7c3Ryb2tlLXdpZHRoOjA7c3Ryb2tlLW1pdGVybGltaXQ6NDtzdHJva2UtZGFzaGFycmF5Om5vbmU7bWFya2VyOm5vbmU7ZW5hYmxlLWJhY2tncm91bmQ6YWNjdW11bGF0ZSIgaW5rc2NhcGU6Y29ubmVjdG9yLWN1cnZhdHVyZT0iMCIvPiYjeGE7ICAgIDwvZz4mI3hhOyAgICA8dGV4dCBpZD0idGV4dDIwNjYiIHk9IjE2LjgxMTc3NSIgeD0iMTAuMDE3MTgzIiBzdHlsZT0iZm9udC1zdHlsZTpub3JtYWw7Zm9udC13ZWlnaHQ6bm9ybWFsO2ZvbnQtc2l6ZToxMC41ODMzMzMwMnB4O2xpbmUtaGVpZ2h0OjYuNjE0NTgzNDlweDtmb250LWZhbWlseTpTYW5zO2xldHRlci1zcGFjaW5nOjBweDt3b3JkLXNwYWNpbmc6MHB4O2ZpbGw6I2ZmZmZmZjtmaWxsLW9wYWNpdHk6MTtzdHJva2U6bm9uZTtzdHJva2Utd2lkdGg6MC4yNjQ1ODMzMnB4O3N0cm9rZS1saW5lY2FwOmJ1dHQ7c3Ryb2tlLWxpbmVqb2luOm1pdGVyO3N0cm9rZS1vcGFjaXR5OjEiIHhtbDpzcGFjZT0icHJlc2VydmUiPjx0c3BhbiBzdHlsZT0iZm9udC1zdHlsZTpub3JtYWw7Zm9udC12YXJpYW50Om5vcm1hbDtmb250LXdlaWdodDpub3JtYWw7Zm9udC1zdHJldGNoOm5vcm1hbDtmb250LXNpemU6Mi44MjIyMjIyM3B4O2ZvbnQtZmFtaWx5OkFyaWFsOy1pbmtzY2FwZS1mb250LXNwZWNpZmljYXRpb246J0FyaWFsLCBOb3JtYWwnO3RleHQtYWxpZ246Y2VudGVyO3dyaXRpbmctbW9kZTpsci10Yjt0ZXh0LWFuY2hvcjptaWRkbGU7ZmlsbDojZmZmZmZmO2ZpbGwtb3BhY2l0eToxO3N0cm9rZS13aWR0aDowLjI2NDU4MzMycHgiIHk9IjE2LjgxMTc3NSIgeD0iMTAuMDE3MTgzIiBpZD0idHNwYW4yMDY0IiBzb2RpcG9kaTpyb2xlPSJsaW5lIj5wb2Q8L3RzcGFuPjwvdGV4dD4mI3hhOyAgICA8ZyBpZD0iZzMzNDEiIHRyYW5zZm9ybT0idHJhbnNsYXRlKDAuMTI3NjY2NjEsMCkiPiYjeGE7ICAgICAgPHBhdGggaW5rc2NhcGU6ZXhwb3J0LXlkcGk9IjM3Ni41Nzk5OSIgaW5rc2NhcGU6ZXhwb3J0LXhkcGk9IjM3Ni41Nzk5OSIgc3R5bGU9ImZpbGw6I2ZmZmZmZjtmaWxsLXJ1bGU6ZXZlbm9kZDtzdHJva2U6bm9uZTtzdHJva2Utd2lkdGg6MC4yNjQ1ODMzMjtzdHJva2UtbGluZWNhcDpzcXVhcmU7c3Ryb2tlLW1pdGVybGltaXQ6MTAiIGlua3NjYXBlOmNvbm5lY3Rvci1jdXJ2YXR1cmU9IjAiIGQ9Ik0gNi4yNjE3OTE0LDcuMDM2MDg2IDkuODgyNjMxNyw1Ljk4NjA4NyAxMy41MDM0NjIsNy4wMzYwODYgOS44ODI2MzE3LDguMDg2MDg3IFoiIGlkPSJwYXRoOTEwIi8+JiN4YTsgICAgICA8cGF0aCBpbmtzY2FwZTpleHBvcnQteWRwaT0iMzc2LjU3OTk5IiBpbmtzY2FwZTpleHBvcnQteGRwaT0iMzc2LjU3OTk5IiBzdHlsZT0iZmlsbDojZmZmZmZmO2ZpbGwtcnVsZTpldmVub2RkO3N0cm9rZTpub25lO3N0cm9rZS13aWR0aDowLjI2NDU4MzMyO3N0cm9rZS1saW5lY2FwOnNxdWFyZTtzdHJva2UtbWl0ZXJsaW1pdDoxMCIgaW5rc2NhcGU6Y29ubmVjdG9yLWN1cnZhdHVyZT0iMCIgZD0ibSA2LjI2MTc5MTQsNy40MzgxNyAwLDMuODUyNzc4IDMuMzczNjEwMywxLjg2ODc0OSAwLjAxNjcsLTQuNzEzMTkzIHoiIGlkPSJwYXRoOTEyIi8+JiN4YTsgICAgICA8cGF0aCBpbmtzY2FwZTpleHBvcnQteWRwaT0iMzc2LjU3OTk5IiBpbmtzY2FwZTpleHBvcnQteGRwaT0iMzc2LjU3OTk5IiBzdHlsZT0iZmlsbDojZmZmZmZmO2ZpbGwtcnVsZTpldmVub2RkO3N0cm9rZTpub25lO3N0cm9rZS13aWR0aDowLjI2NDU4MzMyO3N0cm9rZS1saW5lY2FwOnNxdWFyZTtzdHJva2UtbWl0ZXJsaW1pdDoxMCIgaW5rc2NhcGU6Y29ubmVjdG9yLWN1cnZhdHVyZT0iMCIgZD0ibSAxMy41MDM0NjIsNy40MzgxNyAwLDMuODUyNzc4IC0zLjM3MzYxLDEuODY4NzQ5IC0wLjAxNjcsLTQuNzEzMTkzIHoiIGlkPSJwYXRoOTE0Ii8+JiN4YTsgICAgPC9nPiYjeGE7ICA8L2c+JiN4YTs8L3N2Zz4=" vertex="1" parent="1">
          <mxGeometry x="150" y="360" width="40" height="40" as="geometry" />
        </mxCell>
        <mxCell id="CuJ7pr3B0lwYhuTaBker-14" value="" style="shape=image;verticalLabelPosition=bottom;verticalAlign=top;imageAspect=0;aspect=fixed;image=data:image/svg+xml,PHN2ZyB4bWxuczpkYz0iaHR0cDovL3B1cmwub3JnL2RjL2VsZW1lbnRzLzEuMS8iIHhtbG5zOmNjPSJodHRwOi8vY3JlYXRpdmVjb21tb25zLm9yZy9ucyMiIHhtbG5zOnJkZj0iaHR0cDovL3d3dy53My5vcmcvMTk5OS8wMi8yMi1yZGYtc3ludGF4LW5zIyIgeG1sbnM6c3ZnPSJodHRwOi8vd3d3LnczLm9yZy8yMDAwL3N2ZyIgeG1sbnM9Imh0dHA6Ly93d3cudzMub3JnLzIwMDAvc3ZnIiB4bWxuczpzb2RpcG9kaT0iaHR0cDovL3NvZGlwb2RpLnNvdXJjZWZvcmdlLm5ldC9EVEQvc29kaXBvZGktMC5kdGQiIHhtbG5zOmlua3NjYXBlPSJodHRwOi8vd3d3Lmlua3NjYXBlLm9yZy9uYW1lc3BhY2VzL2lua3NjYXBlIiB3aWR0aD0iMTguMDM1MzM0bW0iIGhlaWdodD0iMTcuNTAwMzc4bW0iIHZpZXdCb3g9IjAgMCAxOC4wMzUzMzQgMTcuNTAwMzc4IiB2ZXJzaW9uPSIxLjEiIGlkPSJzdmcxMzgyNiIgaW5rc2NhcGU6dmVyc2lvbj0iMC45MSByMTM3MjUiIHNvZGlwb2RpOmRvY25hbWU9InBvZC5zdmciPiYjeGE7ICA8ZGVmcyBpZD0iZGVmczEzODIwIi8+JiN4YTsgIDxzb2RpcG9kaTpuYW1lZHZpZXcgaWQ9ImJhc2UiIHBhZ2Vjb2xvcj0iI2ZmZmZmZiIgYm9yZGVyY29sb3I9IiM2NjY2NjYiIGJvcmRlcm9wYWNpdHk9IjEuMCIgaW5rc2NhcGU6cGFnZW9wYWNpdHk9IjAuMCIgaW5rc2NhcGU6cGFnZXNoYWRvdz0iMiIgaW5rc2NhcGU6em9vbT0iOCIgaW5rc2NhcGU6Y3g9IjE2Ljg0NzQ5NiIgaW5rc2NhcGU6Y3k9IjMzLjc1MjIzOSIgaW5rc2NhcGU6ZG9jdW1lbnQtdW5pdHM9Im1tIiBpbmtzY2FwZTpjdXJyZW50LWxheWVyPSJsYXllcjEiIHNob3dncmlkPSJmYWxzZSIgaW5rc2NhcGU6d2luZG93LXdpZHRoPSIxNDQwIiBpbmtzY2FwZTp3aW5kb3ctaGVpZ2h0PSI3NzUiIGlua3NjYXBlOndpbmRvdy14PSIwIiBpbmtzY2FwZTp3aW5kb3cteT0iMSIgaW5rc2NhcGU6d2luZG93LW1heGltaXplZD0iMSIgZml0LW1hcmdpbi10b3A9IjAiIGZpdC1tYXJnaW4tbGVmdD0iMCIgZml0LW1hcmdpbi1yaWdodD0iMCIgZml0LW1hcmdpbi1ib3R0b209IjAiLz4mI3hhOyAgJiN4YTsgIDxnIGlua3NjYXBlOmxhYmVsPSJDYWxxdWUgMSIgaW5rc2NhcGU6Z3JvdXBtb2RlPSJsYXllciIgaWQ9ImxheWVyMSIgdHJhbnNmb3JtPSJ0cmFuc2xhdGUoLTAuOTkyNjI2MzgsLTEuMTc0MTgxKSI+JiN4YTsgICAgPGcgaWQ9Imc3MCIgdHJhbnNmb3JtPSJtYXRyaXgoMS4wMTQ4ODg3LDAsMCwxLjAxNDg4ODcsMTYuOTAyMTQ2LC0yLjY5ODcyNikiPiYjeGE7ICAgICAgPHBhdGggaW5rc2NhcGU6ZXhwb3J0LXlkcGk9IjI1MC41NSIgaW5rc2NhcGU6ZXhwb3J0LXhkcGk9IjI1MC41NSIgaW5rc2NhcGU6ZXhwb3J0LWZpbGVuYW1lPSJuZXcucG5nIiBpbmtzY2FwZTpjb25uZWN0b3ItY3VydmF0dXJlPSIwIiBpZD0icGF0aDMwNTUiIGQ9Im0gLTYuODQ5MjAxNSw0LjI3MjQ2NjggYSAxLjExOTEyNTUsMS4xMDk5NjcxIDAgMCAwIC0wLjQyODg4MTgsMC4xMDg1MzAzIGwgLTUuODUyNDAzNywyLjc5NjMzOTQgYSAxLjExOTEyNTUsMS4xMDk5NjcxIDAgMCAwIC0wLjYwNTUyNCwwLjc1Mjk3NTkgbCAtMS40NDM4MjgsNi4yODEyODQ2IGEgMS4xMTkxMjU1LDEuMTA5OTY3MSAwIDAgMCAwLjE1MTk0MywwLjg1MTAyOCAxLjExOTEyNTUsMS4xMDk5NjcxIDAgMCAwIDAuMDYzNjIsMC4wODgzMiBsIDQuMDUwOCw1LjAzNjU1NSBhIDEuMTE5MTI1NSwxLjEwOTk2NzEgMCAwIDAgMC44NzQ5NzksMC40MTc2NTQgbCA2LjQ5NjEwMTEsLTAuMDAxNSBhIDEuMTE5MTI1NSwxLjEwOTk2NzEgMCAwIDAgMC44NzQ5Nzg4LC0wLjQxNjkwNiBMIDEuMzgxODg3MiwxNS4xNDk0NTMgQSAxLjExOTEyNTUsMS4xMDk5NjcxIDAgMCAwIDEuNTk4MTk4NiwxNC4yMTAxMDQgTCAwLjE1MjEyNjU3LDcuOTI4ODE1NCBBIDEuMTE5MTI1NSwxLjEwOTk2NzEgMCAwIDAgLTAuNDUzMzk3OTQsNy4xNzU4Mzk2IEwgLTYuMzA2NTQ5Niw0LjM4MDk5NzEgQSAxLjExOTEyNTUsMS4xMDk5NjcxIDAgMCAwIC02Ljg0OTIwMTUsNC4yNzI0NjY4IFoiIHN0eWxlPSJmaWxsOiMzMjZjZTU7ZmlsbC1vcGFjaXR5OjE7c3Ryb2tlOm5vbmU7c3Ryb2tlLXdpZHRoOjA7c3Ryb2tlLW1pdGVybGltaXQ6NDtzdHJva2UtZGFzaGFycmF5Om5vbmU7c3Ryb2tlLW9wYWNpdHk6MSIvPiYjeGE7ICAgICAgPHBhdGggaWQ9InBhdGgzMDU0LTItOSIgZD0iTSAtNi44NTIzNDM1LDMuODE3NjM3MiBBIDEuMTgxNDMwNCwxLjE3MTc2MiAwIDAgMCAtNy4zMDQ0Mjg0LDMuOTMyOTA0IGwgLTYuMTc4NzQyNiwyLjk1MTI3NTggYSAxLjE4MTQzMDQsMS4xNzE3NjIgMCAwIDAgLTAuNjM5MjA2LDAuNzk0ODkxIGwgLTEuNTIzOTE1LDYuNjMwODI4MiBhIDEuMTgxNDMwNCwxLjE3MTc2MiAwIDAgMCAwLjE2MDE3NSwwLjg5ODkzIDEuMTgxNDMwNCwxLjE3MTc2MiAwIDAgMCAwLjA2NzM2LDAuMDkyODEgbCA0LjI3NjA5NCw1LjMxNzIzNiBhIDEuMTgxNDMwNCwxLjE3MTc2MiAwIDAgMCAwLjkyMzYzLDAuNDQwODU4IGwgNi44NTc2MTg4LC0wLjAwMTUgYSAxLjE4MTQzMDQsMS4xNzE3NjIgMCAwIDAgMC45MjM2MzA4LC0wLjQ0MDExIGwgNC4yNzQ1OTY2LC01LjMxNzk4NSBhIDEuMTgxNDMwNCwxLjE3MTc2MiAwIDAgMCAwLjIyODI4OCwtMC45OTA5OTMgTCAwLjUzODk0NDM5LDcuNjc3NTczOCBBIDEuMTgxNDMwNCwxLjE3MTc2MiAwIDAgMCAtMC4xMDAyNjEwMSw2Ljg4MzQzMTMgTCAtNi4yNzkwMDM3LDMuOTMyMTU1NSBBIDEuMTgxNDMwNCwxLjE3MTc2MiAwIDAgMCAtNi44NTIzNDM1LDMuODE3NjM3MiBaIG0gMC4wMDI5OSwwLjQ1NTA3ODkgYSAxLjExOTEyNTUsMS4xMDk5NjcxIDAgMCAxIDAuNTQyNjUxNywwLjEwODUzMDMgbCA1Ljg1MzE1MTY5LDIuNzk0ODQyNSBBIDEuMTE5MTI1NSwxLjEwOTk2NzEgMCAwIDEgMC4xNTE5NzgxMSw3LjkyOTA2NDggTCAxLjU5ODA1MSwxNC4yMTAzNSBhIDEuMTE5MTI1NSwxLjEwOTk2NzEgMCAwIDEgLTAuMjE2MzEyMywwLjkzOTM0OCBsIC00LjA0OTMwMzIsNS4wMzczMDQgYSAxLjExOTEyNTUsMS4xMDk5NjcxIDAgMCAxIC0wLjg3NDk3ODksMC40MTY5MDYgbCAtNi40OTYxMDA2LDAuMDAxNSBhIDEuMTE5MTI1NSwxLjEwOTk2NzEgMCAwIDEgLTAuODc0OTc5LC0wLjQxNzY1MiBsIC00LjA1MDgsLTUuMDM2NTU0IGEgMS4xMTkxMjU1LDEuMTA5OTY3MSAwIDAgMSAtMC4wNjM2MiwtMC4wODgzMiAxLjExOTEyNTUsMS4xMDk5NjcxIDAgMCAxIC0wLjE1MTk0MiwtMC44NTEwMjggbCAxLjQ0MzgyNywtNi4yODEyODUzIGEgMS4xMTkxMjU1LDEuMTA5OTY3MSAwIDAgMSAwLjYwNTUyNCwtMC43NTI5NzU4IGwgNS44NTI0MDM2LC0yLjc5NjMzOTUgYSAxLjExOTEyNTUsMS4xMDk5NjcxIDAgMCAxIDAuNDI4ODgxOSwtMC4xMDg1MzAzIHoiIHN0eWxlPSJjb2xvcjojMDAwMDAwO2ZvbnQtc3R5bGU6bm9ybWFsO2ZvbnQtdmFyaWFudDpub3JtYWw7Zm9udC13ZWlnaHQ6bm9ybWFsO2ZvbnQtc3RyZXRjaDpub3JtYWw7Zm9udC1zaXplOm1lZGl1bTtsaW5lLWhlaWdodDpub3JtYWw7Zm9udC1mYW1pbHk6U2FuczstaW5rc2NhcGUtZm9udC1zcGVjaWZpY2F0aW9uOlNhbnM7dGV4dC1pbmRlbnQ6MDt0ZXh0LWFsaWduOnN0YXJ0O3RleHQtZGVjb3JhdGlvbjpub25lO3RleHQtZGVjb3JhdGlvbi1saW5lOm5vbmU7bGV0dGVyLXNwYWNpbmc6bm9ybWFsO3dvcmQtc3BhY2luZzpub3JtYWw7dGV4dC10cmFuc2Zvcm06bm9uZTt3cml0aW5nLW1vZGU6bHItdGI7ZGlyZWN0aW9uOmx0cjtiYXNlbGluZS1zaGlmdDpiYXNlbGluZTt0ZXh0LWFuY2hvcjpzdGFydDtkaXNwbGF5OmlubGluZTtvdmVyZmxvdzp2aXNpYmxlO3Zpc2liaWxpdHk6dmlzaWJsZTtmaWxsOiNmZmZmZmY7ZmlsbC1vcGFjaXR5OjE7ZmlsbC1ydWxlOm5vbnplcm87c3Ryb2tlOm5vbmU7c3Ryb2tlLXdpZHRoOjA7c3Ryb2tlLW1pdGVybGltaXQ6NDtzdHJva2UtZGFzaGFycmF5Om5vbmU7bWFya2VyOm5vbmU7ZW5hYmxlLWJhY2tncm91bmQ6YWNjdW11bGF0ZSIgaW5rc2NhcGU6Y29ubmVjdG9yLWN1cnZhdHVyZT0iMCIvPiYjeGE7ICAgIDwvZz4mI3hhOyAgICA8dGV4dCBpZD0idGV4dDIwNjYiIHk9IjE2LjgxMTc3NSIgeD0iMTAuMDE3MTgzIiBzdHlsZT0iZm9udC1zdHlsZTpub3JtYWw7Zm9udC13ZWlnaHQ6bm9ybWFsO2ZvbnQtc2l6ZToxMC41ODMzMzMwMnB4O2xpbmUtaGVpZ2h0OjYuNjE0NTgzNDlweDtmb250LWZhbWlseTpTYW5zO2xldHRlci1zcGFjaW5nOjBweDt3b3JkLXNwYWNpbmc6MHB4O2ZpbGw6I2ZmZmZmZjtmaWxsLW9wYWNpdHk6MTtzdHJva2U6bm9uZTtzdHJva2Utd2lkdGg6MC4yNjQ1ODMzMnB4O3N0cm9rZS1saW5lY2FwOmJ1dHQ7c3Ryb2tlLWxpbmVqb2luOm1pdGVyO3N0cm9rZS1vcGFjaXR5OjEiIHhtbDpzcGFjZT0icHJlc2VydmUiPjx0c3BhbiBzdHlsZT0iZm9udC1zdHlsZTpub3JtYWw7Zm9udC12YXJpYW50Om5vcm1hbDtmb250LXdlaWdodDpub3JtYWw7Zm9udC1zdHJldGNoOm5vcm1hbDtmb250LXNpemU6Mi44MjIyMjIyM3B4O2ZvbnQtZmFtaWx5OkFyaWFsOy1pbmtzY2FwZS1mb250LXNwZWNpZmljYXRpb246J0FyaWFsLCBOb3JtYWwnO3RleHQtYWxpZ246Y2VudGVyO3dyaXRpbmctbW9kZTpsci10Yjt0ZXh0LWFuY2hvcjptaWRkbGU7ZmlsbDojZmZmZmZmO2ZpbGwtb3BhY2l0eToxO3N0cm9rZS13aWR0aDowLjI2NDU4MzMycHgiIHk9IjE2LjgxMTc3NSIgeD0iMTAuMDE3MTgzIiBpZD0idHNwYW4yMDY0IiBzb2RpcG9kaTpyb2xlPSJsaW5lIj5wb2Q8L3RzcGFuPjwvdGV4dD4mI3hhOyAgICA8ZyBpZD0iZzMzNDEiIHRyYW5zZm9ybT0idHJhbnNsYXRlKDAuMTI3NjY2NjEsMCkiPiYjeGE7ICAgICAgPHBhdGggaW5rc2NhcGU6ZXhwb3J0LXlkcGk9IjM3Ni41Nzk5OSIgaW5rc2NhcGU6ZXhwb3J0LXhkcGk9IjM3Ni41Nzk5OSIgc3R5bGU9ImZpbGw6I2ZmZmZmZjtmaWxsLXJ1bGU6ZXZlbm9kZDtzdHJva2U6bm9uZTtzdHJva2Utd2lkdGg6MC4yNjQ1ODMzMjtzdHJva2UtbGluZWNhcDpzcXVhcmU7c3Ryb2tlLW1pdGVybGltaXQ6MTAiIGlua3NjYXBlOmNvbm5lY3Rvci1jdXJ2YXR1cmU9IjAiIGQ9Ik0gNi4yNjE3OTE0LDcuMDM2MDg2IDkuODgyNjMxNyw1Ljk4NjA4NyAxMy41MDM0NjIsNy4wMzYwODYgOS44ODI2MzE3LDguMDg2MDg3IFoiIGlkPSJwYXRoOTEwIi8+JiN4YTsgICAgICA8cGF0aCBpbmtzY2FwZTpleHBvcnQteWRwaT0iMzc2LjU3OTk5IiBpbmtzY2FwZTpleHBvcnQteGRwaT0iMzc2LjU3OTk5IiBzdHlsZT0iZmlsbDojZmZmZmZmO2ZpbGwtcnVsZTpldmVub2RkO3N0cm9rZTpub25lO3N0cm9rZS13aWR0aDowLjI2NDU4MzMyO3N0cm9rZS1saW5lY2FwOnNxdWFyZTtzdHJva2UtbWl0ZXJsaW1pdDoxMCIgaW5rc2NhcGU6Y29ubmVjdG9yLWN1cnZhdHVyZT0iMCIgZD0ibSA2LjI2MTc5MTQsNy40MzgxNyAwLDMuODUyNzc4IDMuMzczNjEwMywxLjg2ODc0OSAwLjAxNjcsLTQuNzEzMTkzIHoiIGlkPSJwYXRoOTEyIi8+JiN4YTsgICAgICA8cGF0aCBpbmtzY2FwZTpleHBvcnQteWRwaT0iMzc2LjU3OTk5IiBpbmtzY2FwZTpleHBvcnQteGRwaT0iMzc2LjU3OTk5IiBzdHlsZT0iZmlsbDojZmZmZmZmO2ZpbGwtcnVsZTpldmVub2RkO3N0cm9rZTpub25lO3N0cm9rZS13aWR0aDowLjI2NDU4MzMyO3N0cm9rZS1saW5lY2FwOnNxdWFyZTtzdHJva2UtbWl0ZXJsaW1pdDoxMCIgaW5rc2NhcGU6Y29ubmVjdG9yLWN1cnZhdHVyZT0iMCIgZD0ibSAxMy41MDM0NjIsNy40MzgxNyAwLDMuODUyNzc4IC0zLjM3MzYxLDEuODY4NzQ5IC0wLjAxNjcsLTQuNzEzMTkzIHoiIGlkPSJwYXRoOTE0Ii8+JiN4YTsgICAgPC9nPiYjeGE7ICA8L2c+JiN4YTs8L3N2Zz4=" vertex="1" parent="1">
          <mxGeometry x="250" y="360" width="40" height="40" as="geometry" />
        </mxCell>
        <mxCell id="CuJ7pr3B0lwYhuTaBker-24" style="edgeStyle=orthogonalEdgeStyle;rounded=0;orthogonalLoop=1;jettySize=auto;html=1;exitX=0.5;exitY=0;exitDx=0;exitDy=0;entryX=0;entryY=0.5;entryDx=0;entryDy=0;" edge="1" parent="1" source="CuJ7pr3B0lwYhuTaBker-17" target="CuJ7pr3B0lwYhuTaBker-23">
          <mxGeometry relative="1" as="geometry" />
        </mxCell>
        <mxCell id="CuJ7pr3B0lwYhuTaBker-17" value="" style="shape=image;verticalLabelPosition=bottom;verticalAlign=top;imageAspect=0;aspect=fixed;image=data:image/svg+xml,PHN2ZyB4bWxuczpkYz0iaHR0cDovL3B1cmwub3JnL2RjL2VsZW1lbnRzLzEuMS8iIHhtbG5zOmNjPSJodHRwOi8vY3JlYXRpdmVjb21tb25zLm9yZy9ucyMiIHhtbG5zOnJkZj0iaHR0cDovL3d3dy53My5vcmcvMTk5OS8wMi8yMi1yZGYtc3ludGF4LW5zIyIgeG1sbnM6c3ZnPSJodHRwOi8vd3d3LnczLm9yZy8yMDAwL3N2ZyIgeG1sbnM9Imh0dHA6Ly93d3cudzMub3JnLzIwMDAvc3ZnIiB4bWxuczpzb2RpcG9kaT0iaHR0cDovL3NvZGlwb2RpLnNvdXJjZWZvcmdlLm5ldC9EVEQvc29kaXBvZGktMC5kdGQiIHhtbG5zOmlua3NjYXBlPSJodHRwOi8vd3d3Lmlua3NjYXBlLm9yZy9uYW1lc3BhY2VzL2lua3NjYXBlIiB3aWR0aD0iMTguMDM1MzM0bW0iIGhlaWdodD0iMTcuNTAwMzc4bW0iIHZpZXdCb3g9IjAgMCAxOC4wMzUzMzQgMTcuNTAwMzc4IiB2ZXJzaW9uPSIxLjEiIGlkPSJzdmcxMzgyNiIgaW5rc2NhcGU6dmVyc2lvbj0iMC45MSByMTM3MjUiIHNvZGlwb2RpOmRvY25hbWU9InBvZC5zdmciPiYjeGE7ICA8ZGVmcyBpZD0iZGVmczEzODIwIi8+JiN4YTsgIDxzb2RpcG9kaTpuYW1lZHZpZXcgaWQ9ImJhc2UiIHBhZ2Vjb2xvcj0iI2ZmZmZmZiIgYm9yZGVyY29sb3I9IiM2NjY2NjYiIGJvcmRlcm9wYWNpdHk9IjEuMCIgaW5rc2NhcGU6cGFnZW9wYWNpdHk9IjAuMCIgaW5rc2NhcGU6cGFnZXNoYWRvdz0iMiIgaW5rc2NhcGU6em9vbT0iOCIgaW5rc2NhcGU6Y3g9IjE2Ljg0NzQ5NiIgaW5rc2NhcGU6Y3k9IjMzLjc1MjIzOSIgaW5rc2NhcGU6ZG9jdW1lbnQtdW5pdHM9Im1tIiBpbmtzY2FwZTpjdXJyZW50LWxheWVyPSJsYXllcjEiIHNob3dncmlkPSJmYWxzZSIgaW5rc2NhcGU6d2luZG93LXdpZHRoPSIxNDQwIiBpbmtzY2FwZTp3aW5kb3ctaGVpZ2h0PSI3NzUiIGlua3NjYXBlOndpbmRvdy14PSIwIiBpbmtzY2FwZTp3aW5kb3cteT0iMSIgaW5rc2NhcGU6d2luZG93LW1heGltaXplZD0iMSIgZml0LW1hcmdpbi10b3A9IjAiIGZpdC1tYXJnaW4tbGVmdD0iMCIgZml0LW1hcmdpbi1yaWdodD0iMCIgZml0LW1hcmdpbi1ib3R0b209IjAiLz4mI3hhOyAgJiN4YTsgIDxnIGlua3NjYXBlOmxhYmVsPSJDYWxxdWUgMSIgaW5rc2NhcGU6Z3JvdXBtb2RlPSJsYXllciIgaWQ9ImxheWVyMSIgdHJhbnNmb3JtPSJ0cmFuc2xhdGUoLTAuOTkyNjI2MzgsLTEuMTc0MTgxKSI+JiN4YTsgICAgPGcgaWQ9Imc3MCIgdHJhbnNmb3JtPSJtYXRyaXgoMS4wMTQ4ODg3LDAsMCwxLjAxNDg4ODcsMTYuOTAyMTQ2LC0yLjY5ODcyNikiPiYjeGE7ICAgICAgPHBhdGggaW5rc2NhcGU6ZXhwb3J0LXlkcGk9IjI1MC41NSIgaW5rc2NhcGU6ZXhwb3J0LXhkcGk9IjI1MC41NSIgaW5rc2NhcGU6ZXhwb3J0LWZpbGVuYW1lPSJuZXcucG5nIiBpbmtzY2FwZTpjb25uZWN0b3ItY3VydmF0dXJlPSIwIiBpZD0icGF0aDMwNTUiIGQ9Im0gLTYuODQ5MjAxNSw0LjI3MjQ2NjggYSAxLjExOTEyNTUsMS4xMDk5NjcxIDAgMCAwIC0wLjQyODg4MTgsMC4xMDg1MzAzIGwgLTUuODUyNDAzNywyLjc5NjMzOTQgYSAxLjExOTEyNTUsMS4xMDk5NjcxIDAgMCAwIC0wLjYwNTUyNCwwLjc1Mjk3NTkgbCAtMS40NDM4MjgsNi4yODEyODQ2IGEgMS4xMTkxMjU1LDEuMTA5OTY3MSAwIDAgMCAwLjE1MTk0MywwLjg1MTAyOCAxLjExOTEyNTUsMS4xMDk5NjcxIDAgMCAwIDAuMDYzNjIsMC4wODgzMiBsIDQuMDUwOCw1LjAzNjU1NSBhIDEuMTE5MTI1NSwxLjEwOTk2NzEgMCAwIDAgMC44NzQ5NzksMC40MTc2NTQgbCA2LjQ5NjEwMTEsLTAuMDAxNSBhIDEuMTE5MTI1NSwxLjEwOTk2NzEgMCAwIDAgMC44NzQ5Nzg4LC0wLjQxNjkwNiBMIDEuMzgxODg3MiwxNS4xNDk0NTMgQSAxLjExOTEyNTUsMS4xMDk5NjcxIDAgMCAwIDEuNTk4MTk4NiwxNC4yMTAxMDQgTCAwLjE1MjEyNjU3LDcuOTI4ODE1NCBBIDEuMTE5MTI1NSwxLjEwOTk2NzEgMCAwIDAgLTAuNDUzMzk3OTQsNy4xNzU4Mzk2IEwgLTYuMzA2NTQ5Niw0LjM4MDk5NzEgQSAxLjExOTEyNTUsMS4xMDk5NjcxIDAgMCAwIC02Ljg0OTIwMTUsNC4yNzI0NjY4IFoiIHN0eWxlPSJmaWxsOiMzMjZjZTU7ZmlsbC1vcGFjaXR5OjE7c3Ryb2tlOm5vbmU7c3Ryb2tlLXdpZHRoOjA7c3Ryb2tlLW1pdGVybGltaXQ6NDtzdHJva2UtZGFzaGFycmF5Om5vbmU7c3Ryb2tlLW9wYWNpdHk6MSIvPiYjeGE7ICAgICAgPHBhdGggaWQ9InBhdGgzMDU0LTItOSIgZD0iTSAtNi44NTIzNDM1LDMuODE3NjM3MiBBIDEuMTgxNDMwNCwxLjE3MTc2MiAwIDAgMCAtNy4zMDQ0Mjg0LDMuOTMyOTA0IGwgLTYuMTc4NzQyNiwyLjk1MTI3NTggYSAxLjE4MTQzMDQsMS4xNzE3NjIgMCAwIDAgLTAuNjM5MjA2LDAuNzk0ODkxIGwgLTEuNTIzOTE1LDYuNjMwODI4MiBhIDEuMTgxNDMwNCwxLjE3MTc2MiAwIDAgMCAwLjE2MDE3NSwwLjg5ODkzIDEuMTgxNDMwNCwxLjE3MTc2MiAwIDAgMCAwLjA2NzM2LDAuMDkyODEgbCA0LjI3NjA5NCw1LjMxNzIzNiBhIDEuMTgxNDMwNCwxLjE3MTc2MiAwIDAgMCAwLjkyMzYzLDAuNDQwODU4IGwgNi44NTc2MTg4LC0wLjAwMTUgYSAxLjE4MTQzMDQsMS4xNzE3NjIgMCAwIDAgMC45MjM2MzA4LC0wLjQ0MDExIGwgNC4yNzQ1OTY2LC01LjMxNzk4NSBhIDEuMTgxNDMwNCwxLjE3MTc2MiAwIDAgMCAwLjIyODI4OCwtMC45OTA5OTMgTCAwLjUzODk0NDM5LDcuNjc3NTczOCBBIDEuMTgxNDMwNCwxLjE3MTc2MiAwIDAgMCAtMC4xMDAyNjEwMSw2Ljg4MzQzMTMgTCAtNi4yNzkwMDM3LDMuOTMyMTU1NSBBIDEuMTgxNDMwNCwxLjE3MTc2MiAwIDAgMCAtNi44NTIzNDM1LDMuODE3NjM3MiBaIG0gMC4wMDI5OSwwLjQ1NTA3ODkgYSAxLjExOTEyNTUsMS4xMDk5NjcxIDAgMCAxIDAuNTQyNjUxNywwLjEwODUzMDMgbCA1Ljg1MzE1MTY5LDIuNzk0ODQyNSBBIDEuMTE5MTI1NSwxLjEwOTk2NzEgMCAwIDEgMC4xNTE5NzgxMSw3LjkyOTA2NDggTCAxLjU5ODA1MSwxNC4yMTAzNSBhIDEuMTE5MTI1NSwxLjEwOTk2NzEgMCAwIDEgLTAuMjE2MzEyMywwLjkzOTM0OCBsIC00LjA0OTMwMzIsNS4wMzczMDQgYSAxLjExOTEyNTUsMS4xMDk5NjcxIDAgMCAxIC0wLjg3NDk3ODksMC40MTY5MDYgbCAtNi40OTYxMDA2LDAuMDAxNSBhIDEuMTE5MTI1NSwxLjEwOTk2NzEgMCAwIDEgLTAuODc0OTc5LC0wLjQxNzY1MiBsIC00LjA1MDgsLTUuMDM2NTU0IGEgMS4xMTkxMjU1LDEuMTA5OTY3MSAwIDAgMSAtMC4wNjM2MiwtMC4wODgzMiAxLjExOTEyNTUsMS4xMDk5NjcxIDAgMCAxIC0wLjE1MTk0MiwtMC44NTEwMjggbCAxLjQ0MzgyNywtNi4yODEyODUzIGEgMS4xMTkxMjU1LDEuMTA5OTY3MSAwIDAgMSAwLjYwNTUyNCwtMC43NTI5NzU4IGwgNS44NTI0MDM2LC0yLjc5NjMzOTUgYSAxLjExOTEyNTUsMS4xMDk5NjcxIDAgMCAxIDAuNDI4ODgxOSwtMC4xMDg1MzAzIHoiIHN0eWxlPSJjb2xvcjojMDAwMDAwO2ZvbnQtc3R5bGU6bm9ybWFsO2ZvbnQtdmFyaWFudDpub3JtYWw7Zm9udC13ZWlnaHQ6bm9ybWFsO2ZvbnQtc3RyZXRjaDpub3JtYWw7Zm9udC1zaXplOm1lZGl1bTtsaW5lLWhlaWdodDpub3JtYWw7Zm9udC1mYW1pbHk6U2FuczstaW5rc2NhcGUtZm9udC1zcGVjaWZpY2F0aW9uOlNhbnM7dGV4dC1pbmRlbnQ6MDt0ZXh0LWFsaWduOnN0YXJ0O3RleHQtZGVjb3JhdGlvbjpub25lO3RleHQtZGVjb3JhdGlvbi1saW5lOm5vbmU7bGV0dGVyLXNwYWNpbmc6bm9ybWFsO3dvcmQtc3BhY2luZzpub3JtYWw7dGV4dC10cmFuc2Zvcm06bm9uZTt3cml0aW5nLW1vZGU6bHItdGI7ZGlyZWN0aW9uOmx0cjtiYXNlbGluZS1zaGlmdDpiYXNlbGluZTt0ZXh0LWFuY2hvcjpzdGFydDtkaXNwbGF5OmlubGluZTtvdmVyZmxvdzp2aXNpYmxlO3Zpc2liaWxpdHk6dmlzaWJsZTtmaWxsOiNmZmZmZmY7ZmlsbC1vcGFjaXR5OjE7ZmlsbC1ydWxlOm5vbnplcm87c3Ryb2tlOm5vbmU7c3Ryb2tlLXdpZHRoOjA7c3Ryb2tlLW1pdGVybGltaXQ6NDtzdHJva2UtZGFzaGFycmF5Om5vbmU7bWFya2VyOm5vbmU7ZW5hYmxlLWJhY2tncm91bmQ6YWNjdW11bGF0ZSIgaW5rc2NhcGU6Y29ubmVjdG9yLWN1cnZhdHVyZT0iMCIvPiYjeGE7ICAgIDwvZz4mI3hhOyAgICA8dGV4dCBpZD0idGV4dDIwNjYiIHk9IjE2LjgxMTc3NSIgeD0iMTAuMDE3MTgzIiBzdHlsZT0iZm9udC1zdHlsZTpub3JtYWw7Zm9udC13ZWlnaHQ6bm9ybWFsO2ZvbnQtc2l6ZToxMC41ODMzMzMwMnB4O2xpbmUtaGVpZ2h0OjYuNjE0NTgzNDlweDtmb250LWZhbWlseTpTYW5zO2xldHRlci1zcGFjaW5nOjBweDt3b3JkLXNwYWNpbmc6MHB4O2ZpbGw6I2ZmZmZmZjtmaWxsLW9wYWNpdHk6MTtzdHJva2U6bm9uZTtzdHJva2Utd2lkdGg6MC4yNjQ1ODMzMnB4O3N0cm9rZS1saW5lY2FwOmJ1dHQ7c3Ryb2tlLWxpbmVqb2luOm1pdGVyO3N0cm9rZS1vcGFjaXR5OjEiIHhtbDpzcGFjZT0icHJlc2VydmUiPjx0c3BhbiBzdHlsZT0iZm9udC1zdHlsZTpub3JtYWw7Zm9udC12YXJpYW50Om5vcm1hbDtmb250LXdlaWdodDpub3JtYWw7Zm9udC1zdHJldGNoOm5vcm1hbDtmb250LXNpemU6Mi44MjIyMjIyM3B4O2ZvbnQtZmFtaWx5OkFyaWFsOy1pbmtzY2FwZS1mb250LXNwZWNpZmljYXRpb246J0FyaWFsLCBOb3JtYWwnO3RleHQtYWxpZ246Y2VudGVyO3dyaXRpbmctbW9kZTpsci10Yjt0ZXh0LWFuY2hvcjptaWRkbGU7ZmlsbDojZmZmZmZmO2ZpbGwtb3BhY2l0eToxO3N0cm9rZS13aWR0aDowLjI2NDU4MzMycHgiIHk9IjE2LjgxMTc3NSIgeD0iMTAuMDE3MTgzIiBpZD0idHNwYW4yMDY0IiBzb2RpcG9kaTpyb2xlPSJsaW5lIj5wb2Q8L3RzcGFuPjwvdGV4dD4mI3hhOyAgICA8ZyBpZD0iZzMzNDEiIHRyYW5zZm9ybT0idHJhbnNsYXRlKDAuMTI3NjY2NjEsMCkiPiYjeGE7ICAgICAgPHBhdGggaW5rc2NhcGU6ZXhwb3J0LXlkcGk9IjM3Ni41Nzk5OSIgaW5rc2NhcGU6ZXhwb3J0LXhkcGk9IjM3Ni41Nzk5OSIgc3R5bGU9ImZpbGw6I2ZmZmZmZjtmaWxsLXJ1bGU6ZXZlbm9kZDtzdHJva2U6bm9uZTtzdHJva2Utd2lkdGg6MC4yNjQ1ODMzMjtzdHJva2UtbGluZWNhcDpzcXVhcmU7c3Ryb2tlLW1pdGVybGltaXQ6MTAiIGlua3NjYXBlOmNvbm5lY3Rvci1jdXJ2YXR1cmU9IjAiIGQ9Ik0gNi4yNjE3OTE0LDcuMDM2MDg2IDkuODgyNjMxNyw1Ljk4NjA4NyAxMy41MDM0NjIsNy4wMzYwODYgOS44ODI2MzE3LDguMDg2MDg3IFoiIGlkPSJwYXRoOTEwIi8+JiN4YTsgICAgICA8cGF0aCBpbmtzY2FwZTpleHBvcnQteWRwaT0iMzc2LjU3OTk5IiBpbmtzY2FwZTpleHBvcnQteGRwaT0iMzc2LjU3OTk5IiBzdHlsZT0iZmlsbDojZmZmZmZmO2ZpbGwtcnVsZTpldmVub2RkO3N0cm9rZTpub25lO3N0cm9rZS13aWR0aDowLjI2NDU4MzMyO3N0cm9rZS1saW5lY2FwOnNxdWFyZTtzdHJva2UtbWl0ZXJsaW1pdDoxMCIgaW5rc2NhcGU6Y29ubmVjdG9yLWN1cnZhdHVyZT0iMCIgZD0ibSA2LjI2MTc5MTQsNy40MzgxNyAwLDMuODUyNzc4IDMuMzczNjEwMywxLjg2ODc0OSAwLjAxNjcsLTQuNzEzMTkzIHoiIGlkPSJwYXRoOTEyIi8+JiN4YTsgICAgICA8cGF0aCBpbmtzY2FwZTpleHBvcnQteWRwaT0iMzc2LjU3OTk5IiBpbmtzY2FwZTpleHBvcnQteGRwaT0iMzc2LjU3OTk5IiBzdHlsZT0iZmlsbDojZmZmZmZmO2ZpbGwtcnVsZTpldmVub2RkO3N0cm9rZTpub25lO3N0cm9rZS13aWR0aDowLjI2NDU4MzMyO3N0cm9rZS1saW5lY2FwOnNxdWFyZTtzdHJva2UtbWl0ZXJsaW1pdDoxMCIgaW5rc2NhcGU6Y29ubmVjdG9yLWN1cnZhdHVyZT0iMCIgZD0ibSAxMy41MDM0NjIsNy40MzgxNyAwLDMuODUyNzc4IC0zLjM3MzYxLDEuODY4NzQ5IC0wLjAxNjcsLTQuNzEzMTkzIHoiIGlkPSJwYXRoOTE0Ii8+JiN4YTsgICAgPC9nPiYjeGE7ICA8L2c+JiN4YTs8L3N2Zz4=" vertex="1" parent="1">
          <mxGeometry x="380" y="360" width="40" height="40" as="geometry" />
        </mxCell>
        <mxCell id="CuJ7pr3B0lwYhuTaBker-25" style="edgeStyle=orthogonalEdgeStyle;rounded=0;orthogonalLoop=1;jettySize=auto;html=1;exitX=0.5;exitY=0;exitDx=0;exitDy=0;entryX=0.5;entryY=1;entryDx=0;entryDy=0;" edge="1" parent="1" source="CuJ7pr3B0lwYhuTaBker-18" target="CuJ7pr3B0lwYhuTaBker-23">
          <mxGeometry relative="1" as="geometry" />
        </mxCell>
        <mxCell id="CuJ7pr3B0lwYhuTaBker-18" value="" style="shape=image;verticalLabelPosition=bottom;verticalAlign=top;imageAspect=0;aspect=fixed;image=data:image/svg+xml,PHN2ZyB4bWxuczpkYz0iaHR0cDovL3B1cmwub3JnL2RjL2VsZW1lbnRzLzEuMS8iIHhtbG5zOmNjPSJodHRwOi8vY3JlYXRpdmVjb21tb25zLm9yZy9ucyMiIHhtbG5zOnJkZj0iaHR0cDovL3d3dy53My5vcmcvMTk5OS8wMi8yMi1yZGYtc3ludGF4LW5zIyIgeG1sbnM6c3ZnPSJodHRwOi8vd3d3LnczLm9yZy8yMDAwL3N2ZyIgeG1sbnM9Imh0dHA6Ly93d3cudzMub3JnLzIwMDAvc3ZnIiB4bWxuczpzb2RpcG9kaT0iaHR0cDovL3NvZGlwb2RpLnNvdXJjZWZvcmdlLm5ldC9EVEQvc29kaXBvZGktMC5kdGQiIHhtbG5zOmlua3NjYXBlPSJodHRwOi8vd3d3Lmlua3NjYXBlLm9yZy9uYW1lc3BhY2VzL2lua3NjYXBlIiB3aWR0aD0iMTguMDM1MzM0bW0iIGhlaWdodD0iMTcuNTAwMzc4bW0iIHZpZXdCb3g9IjAgMCAxOC4wMzUzMzQgMTcuNTAwMzc4IiB2ZXJzaW9uPSIxLjEiIGlkPSJzdmcxMzgyNiIgaW5rc2NhcGU6dmVyc2lvbj0iMC45MSByMTM3MjUiIHNvZGlwb2RpOmRvY25hbWU9InBvZC5zdmciPiYjeGE7ICA8ZGVmcyBpZD0iZGVmczEzODIwIi8+JiN4YTsgIDxzb2RpcG9kaTpuYW1lZHZpZXcgaWQ9ImJhc2UiIHBhZ2Vjb2xvcj0iI2ZmZmZmZiIgYm9yZGVyY29sb3I9IiM2NjY2NjYiIGJvcmRlcm9wYWNpdHk9IjEuMCIgaW5rc2NhcGU6cGFnZW9wYWNpdHk9IjAuMCIgaW5rc2NhcGU6cGFnZXNoYWRvdz0iMiIgaW5rc2NhcGU6em9vbT0iOCIgaW5rc2NhcGU6Y3g9IjE2Ljg0NzQ5NiIgaW5rc2NhcGU6Y3k9IjMzLjc1MjIzOSIgaW5rc2NhcGU6ZG9jdW1lbnQtdW5pdHM9Im1tIiBpbmtzY2FwZTpjdXJyZW50LWxheWVyPSJsYXllcjEiIHNob3dncmlkPSJmYWxzZSIgaW5rc2NhcGU6d2luZG93LXdpZHRoPSIxNDQwIiBpbmtzY2FwZTp3aW5kb3ctaGVpZ2h0PSI3NzUiIGlua3NjYXBlOndpbmRvdy14PSIwIiBpbmtzY2FwZTp3aW5kb3cteT0iMSIgaW5rc2NhcGU6d2luZG93LW1heGltaXplZD0iMSIgZml0LW1hcmdpbi10b3A9IjAiIGZpdC1tYXJnaW4tbGVmdD0iMCIgZml0LW1hcmdpbi1yaWdodD0iMCIgZml0LW1hcmdpbi1ib3R0b209IjAiLz4mI3hhOyAgJiN4YTsgIDxnIGlua3NjYXBlOmxhYmVsPSJDYWxxdWUgMSIgaW5rc2NhcGU6Z3JvdXBtb2RlPSJsYXllciIgaWQ9ImxheWVyMSIgdHJhbnNmb3JtPSJ0cmFuc2xhdGUoLTAuOTkyNjI2MzgsLTEuMTc0MTgxKSI+JiN4YTsgICAgPGcgaWQ9Imc3MCIgdHJhbnNmb3JtPSJtYXRyaXgoMS4wMTQ4ODg3LDAsMCwxLjAxNDg4ODcsMTYuOTAyMTQ2LC0yLjY5ODcyNikiPiYjeGE7ICAgICAgPHBhdGggaW5rc2NhcGU6ZXhwb3J0LXlkcGk9IjI1MC41NSIgaW5rc2NhcGU6ZXhwb3J0LXhkcGk9IjI1MC41NSIgaW5rc2NhcGU6ZXhwb3J0LWZpbGVuYW1lPSJuZXcucG5nIiBpbmtzY2FwZTpjb25uZWN0b3ItY3VydmF0dXJlPSIwIiBpZD0icGF0aDMwNTUiIGQ9Im0gLTYuODQ5MjAxNSw0LjI3MjQ2NjggYSAxLjExOTEyNTUsMS4xMDk5NjcxIDAgMCAwIC0wLjQyODg4MTgsMC4xMDg1MzAzIGwgLTUuODUyNDAzNywyLjc5NjMzOTQgYSAxLjExOTEyNTUsMS4xMDk5NjcxIDAgMCAwIC0wLjYwNTUyNCwwLjc1Mjk3NTkgbCAtMS40NDM4MjgsNi4yODEyODQ2IGEgMS4xMTkxMjU1LDEuMTA5OTY3MSAwIDAgMCAwLjE1MTk0MywwLjg1MTAyOCAxLjExOTEyNTUsMS4xMDk5NjcxIDAgMCAwIDAuMDYzNjIsMC4wODgzMiBsIDQuMDUwOCw1LjAzNjU1NSBhIDEuMTE5MTI1NSwxLjEwOTk2NzEgMCAwIDAgMC44NzQ5NzksMC40MTc2NTQgbCA2LjQ5NjEwMTEsLTAuMDAxNSBhIDEuMTE5MTI1NSwxLjEwOTk2NzEgMCAwIDAgMC44NzQ5Nzg4LC0wLjQxNjkwNiBMIDEuMzgxODg3MiwxNS4xNDk0NTMgQSAxLjExOTEyNTUsMS4xMDk5NjcxIDAgMCAwIDEuNTk4MTk4NiwxNC4yMTAxMDQgTCAwLjE1MjEyNjU3LDcuOTI4ODE1NCBBIDEuMTE5MTI1NSwxLjEwOTk2NzEgMCAwIDAgLTAuNDUzMzk3OTQsNy4xNzU4Mzk2IEwgLTYuMzA2NTQ5Niw0LjM4MDk5NzEgQSAxLjExOTEyNTUsMS4xMDk5NjcxIDAgMCAwIC02Ljg0OTIwMTUsNC4yNzI0NjY4IFoiIHN0eWxlPSJmaWxsOiMzMjZjZTU7ZmlsbC1vcGFjaXR5OjE7c3Ryb2tlOm5vbmU7c3Ryb2tlLXdpZHRoOjA7c3Ryb2tlLW1pdGVybGltaXQ6NDtzdHJva2UtZGFzaGFycmF5Om5vbmU7c3Ryb2tlLW9wYWNpdHk6MSIvPiYjeGE7ICAgICAgPHBhdGggaWQ9InBhdGgzMDU0LTItOSIgZD0iTSAtNi44NTIzNDM1LDMuODE3NjM3MiBBIDEuMTgxNDMwNCwxLjE3MTc2MiAwIDAgMCAtNy4zMDQ0Mjg0LDMuOTMyOTA0IGwgLTYuMTc4NzQyNiwyLjk1MTI3NTggYSAxLjE4MTQzMDQsMS4xNzE3NjIgMCAwIDAgLTAuNjM5MjA2LDAuNzk0ODkxIGwgLTEuNTIzOTE1LDYuNjMwODI4MiBhIDEuMTgxNDMwNCwxLjE3MTc2MiAwIDAgMCAwLjE2MDE3NSwwLjg5ODkzIDEuMTgxNDMwNCwxLjE3MTc2MiAwIDAgMCAwLjA2NzM2LDAuMDkyODEgbCA0LjI3NjA5NCw1LjMxNzIzNiBhIDEuMTgxNDMwNCwxLjE3MTc2MiAwIDAgMCAwLjkyMzYzLDAuNDQwODU4IGwgNi44NTc2MTg4LC0wLjAwMTUgYSAxLjE4MTQzMDQsMS4xNzE3NjIgMCAwIDAgMC45MjM2MzA4LC0wLjQ0MDExIGwgNC4yNzQ1OTY2LC01LjMxNzk4NSBhIDEuMTgxNDMwNCwxLjE3MTc2MiAwIDAgMCAwLjIyODI4OCwtMC45OTA5OTMgTCAwLjUzODk0NDM5LDcuNjc3NTczOCBBIDEuMTgxNDMwNCwxLjE3MTc2MiAwIDAgMCAtMC4xMDAyNjEwMSw2Ljg4MzQzMTMgTCAtNi4yNzkwMDM3LDMuOTMyMTU1NSBBIDEuMTgxNDMwNCwxLjE3MTc2MiAwIDAgMCAtNi44NTIzNDM1LDMuODE3NjM3MiBaIG0gMC4wMDI5OSwwLjQ1NTA3ODkgYSAxLjExOTEyNTUsMS4xMDk5NjcxIDAgMCAxIDAuNTQyNjUxNywwLjEwODUzMDMgbCA1Ljg1MzE1MTY5LDIuNzk0ODQyNSBBIDEuMTE5MTI1NSwxLjEwOTk2NzEgMCAwIDEgMC4xNTE5NzgxMSw3LjkyOTA2NDggTCAxLjU5ODA1MSwxNC4yMTAzNSBhIDEuMTE5MTI1NSwxLjEwOTk2NzEgMCAwIDEgLTAuMjE2MzEyMywwLjkzOTM0OCBsIC00LjA0OTMwMzIsNS4wMzczMDQgYSAxLjExOTEyNTUsMS4xMDk5NjcxIDAgMCAxIC0wLjg3NDk3ODksMC40MTY5MDYgbCAtNi40OTYxMDA2LDAuMDAxNSBhIDEuMTE5MTI1NSwxLjEwOTk2NzEgMCAwIDEgLTAuODc0OTc5LC0wLjQxNzY1MiBsIC00LjA1MDgsLTUuMDM2NTU0IGEgMS4xMTkxMjU1LDEuMTA5OTY3MSAwIDAgMSAtMC4wNjM2MiwtMC4wODgzMiAxLjExOTEyNTUsMS4xMDk5NjcxIDAgMCAxIC0wLjE1MTk0MiwtMC44NTEwMjggbCAxLjQ0MzgyNywtNi4yODEyODUzIGEgMS4xMTkxMjU1LDEuMTA5OTY3MSAwIDAgMSAwLjYwNTUyNCwtMC43NTI5NzU4IGwgNS44NTI0MDM2LC0yLjc5NjMzOTUgYSAxLjExOTEyNTUsMS4xMDk5NjcxIDAgMCAxIDAuNDI4ODgxOSwtMC4xMDg1MzAzIHoiIHN0eWxlPSJjb2xvcjojMDAwMDAwO2ZvbnQtc3R5bGU6bm9ybWFsO2ZvbnQtdmFyaWFudDpub3JtYWw7Zm9udC13ZWlnaHQ6bm9ybWFsO2ZvbnQtc3RyZXRjaDpub3JtYWw7Zm9udC1zaXplOm1lZGl1bTtsaW5lLWhlaWdodDpub3JtYWw7Zm9udC1mYW1pbHk6U2FuczstaW5rc2NhcGUtZm9udC1zcGVjaWZpY2F0aW9uOlNhbnM7dGV4dC1pbmRlbnQ6MDt0ZXh0LWFsaWduOnN0YXJ0O3RleHQtZGVjb3JhdGlvbjpub25lO3RleHQtZGVjb3JhdGlvbi1saW5lOm5vbmU7bGV0dGVyLXNwYWNpbmc6bm9ybWFsO3dvcmQtc3BhY2luZzpub3JtYWw7dGV4dC10cmFuc2Zvcm06bm9uZTt3cml0aW5nLW1vZGU6bHItdGI7ZGlyZWN0aW9uOmx0cjtiYXNlbGluZS1zaGlmdDpiYXNlbGluZTt0ZXh0LWFuY2hvcjpzdGFydDtkaXNwbGF5OmlubGluZTtvdmVyZmxvdzp2aXNpYmxlO3Zpc2liaWxpdHk6dmlzaWJsZTtmaWxsOiNmZmZmZmY7ZmlsbC1vcGFjaXR5OjE7ZmlsbC1ydWxlOm5vbnplcm87c3Ryb2tlOm5vbmU7c3Ryb2tlLXdpZHRoOjA7c3Ryb2tlLW1pdGVybGltaXQ6NDtzdHJva2UtZGFzaGFycmF5Om5vbmU7bWFya2VyOm5vbmU7ZW5hYmxlLWJhY2tncm91bmQ6YWNjdW11bGF0ZSIgaW5rc2NhcGU6Y29ubmVjdG9yLWN1cnZhdHVyZT0iMCIvPiYjeGE7ICAgIDwvZz4mI3hhOyAgICA8dGV4dCBpZD0idGV4dDIwNjYiIHk9IjE2LjgxMTc3NSIgeD0iMTAuMDE3MTgzIiBzdHlsZT0iZm9udC1zdHlsZTpub3JtYWw7Zm9udC13ZWlnaHQ6bm9ybWFsO2ZvbnQtc2l6ZToxMC41ODMzMzMwMnB4O2xpbmUtaGVpZ2h0OjYuNjE0NTgzNDlweDtmb250LWZhbWlseTpTYW5zO2xldHRlci1zcGFjaW5nOjBweDt3b3JkLXNwYWNpbmc6MHB4O2ZpbGw6I2ZmZmZmZjtmaWxsLW9wYWNpdHk6MTtzdHJva2U6bm9uZTtzdHJva2Utd2lkdGg6MC4yNjQ1ODMzMnB4O3N0cm9rZS1saW5lY2FwOmJ1dHQ7c3Ryb2tlLWxpbmVqb2luOm1pdGVyO3N0cm9rZS1vcGFjaXR5OjEiIHhtbDpzcGFjZT0icHJlc2VydmUiPjx0c3BhbiBzdHlsZT0iZm9udC1zdHlsZTpub3JtYWw7Zm9udC12YXJpYW50Om5vcm1hbDtmb250LXdlaWdodDpub3JtYWw7Zm9udC1zdHJldGNoOm5vcm1hbDtmb250LXNpemU6Mi44MjIyMjIyM3B4O2ZvbnQtZmFtaWx5OkFyaWFsOy1pbmtzY2FwZS1mb250LXNwZWNpZmljYXRpb246J0FyaWFsLCBOb3JtYWwnO3RleHQtYWxpZ246Y2VudGVyO3dyaXRpbmctbW9kZTpsci10Yjt0ZXh0LWFuY2hvcjptaWRkbGU7ZmlsbDojZmZmZmZmO2ZpbGwtb3BhY2l0eToxO3N0cm9rZS13aWR0aDowLjI2NDU4MzMycHgiIHk9IjE2LjgxMTc3NSIgeD0iMTAuMDE3MTgzIiBpZD0idHNwYW4yMDY0IiBzb2RpcG9kaTpyb2xlPSJsaW5lIj5wb2Q8L3RzcGFuPjwvdGV4dD4mI3hhOyAgICA8ZyBpZD0iZzMzNDEiIHRyYW5zZm9ybT0idHJhbnNsYXRlKDAuMTI3NjY2NjEsMCkiPiYjeGE7ICAgICAgPHBhdGggaW5rc2NhcGU6ZXhwb3J0LXlkcGk9IjM3Ni41Nzk5OSIgaW5rc2NhcGU6ZXhwb3J0LXhkcGk9IjM3Ni41Nzk5OSIgc3R5bGU9ImZpbGw6I2ZmZmZmZjtmaWxsLXJ1bGU6ZXZlbm9kZDtzdHJva2U6bm9uZTtzdHJva2Utd2lkdGg6MC4yNjQ1ODMzMjtzdHJva2UtbGluZWNhcDpzcXVhcmU7c3Ryb2tlLW1pdGVybGltaXQ6MTAiIGlua3NjYXBlOmNvbm5lY3Rvci1jdXJ2YXR1cmU9IjAiIGQ9Ik0gNi4yNjE3OTE0LDcuMDM2MDg2IDkuODgyNjMxNyw1Ljk4NjA4NyAxMy41MDM0NjIsNy4wMzYwODYgOS44ODI2MzE3LDguMDg2MDg3IFoiIGlkPSJwYXRoOTEwIi8+JiN4YTsgICAgICA8cGF0aCBpbmtzY2FwZTpleHBvcnQteWRwaT0iMzc2LjU3OTk5IiBpbmtzY2FwZTpleHBvcnQteGRwaT0iMzc2LjU3OTk5IiBzdHlsZT0iZmlsbDojZmZmZmZmO2ZpbGwtcnVsZTpldmVub2RkO3N0cm9rZTpub25lO3N0cm9rZS13aWR0aDowLjI2NDU4MzMyO3N0cm9rZS1saW5lY2FwOnNxdWFyZTtzdHJva2UtbWl0ZXJsaW1pdDoxMCIgaW5rc2NhcGU6Y29ubmVjdG9yLWN1cnZhdHVyZT0iMCIgZD0ibSA2LjI2MTc5MTQsNy40MzgxNyAwLDMuODUyNzc4IDMuMzczNjEwMywxLjg2ODc0OSAwLjAxNjcsLTQuNzEzMTkzIHoiIGlkPSJwYXRoOTEyIi8+JiN4YTsgICAgICA8cGF0aCBpbmtzY2FwZTpleHBvcnQteWRwaT0iMzc2LjU3OTk5IiBpbmtzY2FwZTpleHBvcnQteGRwaT0iMzc2LjU3OTk5IiBzdHlsZT0iZmlsbDojZmZmZmZmO2ZpbGwtcnVsZTpldmVub2RkO3N0cm9rZTpub25lO3N0cm9rZS13aWR0aDowLjI2NDU4MzMyO3N0cm9rZS1saW5lY2FwOnNxdWFyZTtzdHJva2UtbWl0ZXJsaW1pdDoxMCIgaW5rc2NhcGU6Y29ubmVjdG9yLWN1cnZhdHVyZT0iMCIgZD0ibSAxMy41MDM0NjIsNy40MzgxNyAwLDMuODUyNzc4IC0zLjM3MzYxLDEuODY4NzQ5IC0wLjAxNjcsLTQuNzEzMTkzIHoiIGlkPSJwYXRoOTE0Ii8+JiN4YTsgICAgPC9nPiYjeGE7ICA8L2c+JiN4YTs8L3N2Zz4=" vertex="1" parent="1">
          <mxGeometry x="441" y="360" width="40" height="40" as="geometry" />
        </mxCell>
        <mxCell id="CuJ7pr3B0lwYhuTaBker-26" style="edgeStyle=orthogonalEdgeStyle;rounded=0;orthogonalLoop=1;jettySize=auto;html=1;exitX=0.5;exitY=0;exitDx=0;exitDy=0;entryX=1;entryY=0.5;entryDx=0;entryDy=0;" edge="1" parent="1" source="CuJ7pr3B0lwYhuTaBker-19" target="CuJ7pr3B0lwYhuTaBker-23">
          <mxGeometry relative="1" as="geometry" />
        </mxCell>
        <mxCell id="CuJ7pr3B0lwYhuTaBker-19" value="" style="shape=image;verticalLabelPosition=bottom;verticalAlign=top;imageAspect=0;aspect=fixed;image=data:image/svg+xml,PHN2ZyB4bWxuczpkYz0iaHR0cDovL3B1cmwub3JnL2RjL2VsZW1lbnRzLzEuMS8iIHhtbG5zOmNjPSJodHRwOi8vY3JlYXRpdmVjb21tb25zLm9yZy9ucyMiIHhtbG5zOnJkZj0iaHR0cDovL3d3dy53My5vcmcvMTk5OS8wMi8yMi1yZGYtc3ludGF4LW5zIyIgeG1sbnM6c3ZnPSJodHRwOi8vd3d3LnczLm9yZy8yMDAwL3N2ZyIgeG1sbnM9Imh0dHA6Ly93d3cudzMub3JnLzIwMDAvc3ZnIiB4bWxuczpzb2RpcG9kaT0iaHR0cDovL3NvZGlwb2RpLnNvdXJjZWZvcmdlLm5ldC9EVEQvc29kaXBvZGktMC5kdGQiIHhtbG5zOmlua3NjYXBlPSJodHRwOi8vd3d3Lmlua3NjYXBlLm9yZy9uYW1lc3BhY2VzL2lua3NjYXBlIiB3aWR0aD0iMTguMDM1MzM0bW0iIGhlaWdodD0iMTcuNTAwMzc4bW0iIHZpZXdCb3g9IjAgMCAxOC4wMzUzMzQgMTcuNTAwMzc4IiB2ZXJzaW9uPSIxLjEiIGlkPSJzdmcxMzgyNiIgaW5rc2NhcGU6dmVyc2lvbj0iMC45MSByMTM3MjUiIHNvZGlwb2RpOmRvY25hbWU9InBvZC5zdmciPiYjeGE7ICA8ZGVmcyBpZD0iZGVmczEzODIwIi8+JiN4YTsgIDxzb2RpcG9kaTpuYW1lZHZpZXcgaWQ9ImJhc2UiIHBhZ2Vjb2xvcj0iI2ZmZmZmZiIgYm9yZGVyY29sb3I9IiM2NjY2NjYiIGJvcmRlcm9wYWNpdHk9IjEuMCIgaW5rc2NhcGU6cGFnZW9wYWNpdHk9IjAuMCIgaW5rc2NhcGU6cGFnZXNoYWRvdz0iMiIgaW5rc2NhcGU6em9vbT0iOCIgaW5rc2NhcGU6Y3g9IjE2Ljg0NzQ5NiIgaW5rc2NhcGU6Y3k9IjMzLjc1MjIzOSIgaW5rc2NhcGU6ZG9jdW1lbnQtdW5pdHM9Im1tIiBpbmtzY2FwZTpjdXJyZW50LWxheWVyPSJsYXllcjEiIHNob3dncmlkPSJmYWxzZSIgaW5rc2NhcGU6d2luZG93LXdpZHRoPSIxNDQwIiBpbmtzY2FwZTp3aW5kb3ctaGVpZ2h0PSI3NzUiIGlua3NjYXBlOndpbmRvdy14PSIwIiBpbmtzY2FwZTp3aW5kb3cteT0iMSIgaW5rc2NhcGU6d2luZG93LW1heGltaXplZD0iMSIgZml0LW1hcmdpbi10b3A9IjAiIGZpdC1tYXJnaW4tbGVmdD0iMCIgZml0LW1hcmdpbi1yaWdodD0iMCIgZml0LW1hcmdpbi1ib3R0b209IjAiLz4mI3hhOyAgJiN4YTsgIDxnIGlua3NjYXBlOmxhYmVsPSJDYWxxdWUgMSIgaW5rc2NhcGU6Z3JvdXBtb2RlPSJsYXllciIgaWQ9ImxheWVyMSIgdHJhbnNmb3JtPSJ0cmFuc2xhdGUoLTAuOTkyNjI2MzgsLTEuMTc0MTgxKSI+JiN4YTsgICAgPGcgaWQ9Imc3MCIgdHJhbnNmb3JtPSJtYXRyaXgoMS4wMTQ4ODg3LDAsMCwxLjAxNDg4ODcsMTYuOTAyMTQ2LC0yLjY5ODcyNikiPiYjeGE7ICAgICAgPHBhdGggaW5rc2NhcGU6ZXhwb3J0LXlkcGk9IjI1MC41NSIgaW5rc2NhcGU6ZXhwb3J0LXhkcGk9IjI1MC41NSIgaW5rc2NhcGU6ZXhwb3J0LWZpbGVuYW1lPSJuZXcucG5nIiBpbmtzY2FwZTpjb25uZWN0b3ItY3VydmF0dXJlPSIwIiBpZD0icGF0aDMwNTUiIGQ9Im0gLTYuODQ5MjAxNSw0LjI3MjQ2NjggYSAxLjExOTEyNTUsMS4xMDk5NjcxIDAgMCAwIC0wLjQyODg4MTgsMC4xMDg1MzAzIGwgLTUuODUyNDAzNywyLjc5NjMzOTQgYSAxLjExOTEyNTUsMS4xMDk5NjcxIDAgMCAwIC0wLjYwNTUyNCwwLjc1Mjk3NTkgbCAtMS40NDM4MjgsNi4yODEyODQ2IGEgMS4xMTkxMjU1LDEuMTA5OTY3MSAwIDAgMCAwLjE1MTk0MywwLjg1MTAyOCAxLjExOTEyNTUsMS4xMDk5NjcxIDAgMCAwIDAuMDYzNjIsMC4wODgzMiBsIDQuMDUwOCw1LjAzNjU1NSBhIDEuMTE5MTI1NSwxLjEwOTk2NzEgMCAwIDAgMC44NzQ5NzksMC40MTc2NTQgbCA2LjQ5NjEwMTEsLTAuMDAxNSBhIDEuMTE5MTI1NSwxLjEwOTk2NzEgMCAwIDAgMC44NzQ5Nzg4LC0wLjQxNjkwNiBMIDEuMzgxODg3MiwxNS4xNDk0NTMgQSAxLjExOTEyNTUsMS4xMDk5NjcxIDAgMCAwIDEuNTk4MTk4NiwxNC4yMTAxMDQgTCAwLjE1MjEyNjU3LDcuOTI4ODE1NCBBIDEuMTE5MTI1NSwxLjEwOTk2NzEgMCAwIDAgLTAuNDUzMzk3OTQsNy4xNzU4Mzk2IEwgLTYuMzA2NTQ5Niw0LjM4MDk5NzEgQSAxLjExOTEyNTUsMS4xMDk5NjcxIDAgMCAwIC02Ljg0OTIwMTUsNC4yNzI0NjY4IFoiIHN0eWxlPSJmaWxsOiMzMjZjZTU7ZmlsbC1vcGFjaXR5OjE7c3Ryb2tlOm5vbmU7c3Ryb2tlLXdpZHRoOjA7c3Ryb2tlLW1pdGVybGltaXQ6NDtzdHJva2UtZGFzaGFycmF5Om5vbmU7c3Ryb2tlLW9wYWNpdHk6MSIvPiYjeGE7ICAgICAgPHBhdGggaWQ9InBhdGgzMDU0LTItOSIgZD0iTSAtNi44NTIzNDM1LDMuODE3NjM3MiBBIDEuMTgxNDMwNCwxLjE3MTc2MiAwIDAgMCAtNy4zMDQ0Mjg0LDMuOTMyOTA0IGwgLTYuMTc4NzQyNiwyLjk1MTI3NTggYSAxLjE4MTQzMDQsMS4xNzE3NjIgMCAwIDAgLTAuNjM5MjA2LDAuNzk0ODkxIGwgLTEuNTIzOTE1LDYuNjMwODI4MiBhIDEuMTgxNDMwNCwxLjE3MTc2MiAwIDAgMCAwLjE2MDE3NSwwLjg5ODkzIDEuMTgxNDMwNCwxLjE3MTc2MiAwIDAgMCAwLjA2NzM2LDAuMDkyODEgbCA0LjI3NjA5NCw1LjMxNzIzNiBhIDEuMTgxNDMwNCwxLjE3MTc2MiAwIDAgMCAwLjkyMzYzLDAuNDQwODU4IGwgNi44NTc2MTg4LC0wLjAwMTUgYSAxLjE4MTQzMDQsMS4xNzE3NjIgMCAwIDAgMC45MjM2MzA4LC0wLjQ0MDExIGwgNC4yNzQ1OTY2LC01LjMxNzk4NSBhIDEuMTgxNDMwNCwxLjE3MTc2MiAwIDAgMCAwLjIyODI4OCwtMC45OTA5OTMgTCAwLjUzODk0NDM5LDcuNjc3NTczOCBBIDEuMTgxNDMwNCwxLjE3MTc2MiAwIDAgMCAtMC4xMDAyNjEwMSw2Ljg4MzQzMTMgTCAtNi4yNzkwMDM3LDMuOTMyMTU1NSBBIDEuMTgxNDMwNCwxLjE3MTc2MiAwIDAgMCAtNi44NTIzNDM1LDMuODE3NjM3MiBaIG0gMC4wMDI5OSwwLjQ1NTA3ODkgYSAxLjExOTEyNTUsMS4xMDk5NjcxIDAgMCAxIDAuNTQyNjUxNywwLjEwODUzMDMgbCA1Ljg1MzE1MTY5LDIuNzk0ODQyNSBBIDEuMTE5MTI1NSwxLjEwOTk2NzEgMCAwIDEgMC4xNTE5NzgxMSw3LjkyOTA2NDggTCAxLjU5ODA1MSwxNC4yMTAzNSBhIDEuMTE5MTI1NSwxLjEwOTk2NzEgMCAwIDEgLTAuMjE2MzEyMywwLjkzOTM0OCBsIC00LjA0OTMwMzIsNS4wMzczMDQgYSAxLjExOTEyNTUsMS4xMDk5NjcxIDAgMCAxIC0wLjg3NDk3ODksMC40MTY5MDYgbCAtNi40OTYxMDA2LDAuMDAxNSBhIDEuMTE5MTI1NSwxLjEwOTk2NzEgMCAwIDEgLTAuODc0OTc5LC0wLjQxNzY1MiBsIC00LjA1MDgsLTUuMDM2NTU0IGEgMS4xMTkxMjU1LDEuMTA5OTY3MSAwIDAgMSAtMC4wNjM2MiwtMC4wODgzMiAxLjExOTEyNTUsMS4xMDk5NjcxIDAgMCAxIC0wLjE1MTk0MiwtMC44NTEwMjggbCAxLjQ0MzgyNywtNi4yODEyODUzIGEgMS4xMTkxMjU1LDEuMTA5OTY3MSAwIDAgMSAwLjYwNTUyNCwtMC43NTI5NzU4IGwgNS44NTI0MDM2LC0yLjc5NjMzOTUgYSAxLjExOTEyNTUsMS4xMDk5NjcxIDAgMCAxIDAuNDI4ODgxOSwtMC4xMDg1MzAzIHoiIHN0eWxlPSJjb2xvcjojMDAwMDAwO2ZvbnQtc3R5bGU6bm9ybWFsO2ZvbnQtdmFyaWFudDpub3JtYWw7Zm9udC13ZWlnaHQ6bm9ybWFsO2ZvbnQtc3RyZXRjaDpub3JtYWw7Zm9udC1zaXplOm1lZGl1bTtsaW5lLWhlaWdodDpub3JtYWw7Zm9udC1mYW1pbHk6U2FuczstaW5rc2NhcGUtZm9udC1zcGVjaWZpY2F0aW9uOlNhbnM7dGV4dC1pbmRlbnQ6MDt0ZXh0LWFsaWduOnN0YXJ0O3RleHQtZGVjb3JhdGlvbjpub25lO3RleHQtZGVjb3JhdGlvbi1saW5lOm5vbmU7bGV0dGVyLXNwYWNpbmc6bm9ybWFsO3dvcmQtc3BhY2luZzpub3JtYWw7dGV4dC10cmFuc2Zvcm06bm9uZTt3cml0aW5nLW1vZGU6bHItdGI7ZGlyZWN0aW9uOmx0cjtiYXNlbGluZS1zaGlmdDpiYXNlbGluZTt0ZXh0LWFuY2hvcjpzdGFydDtkaXNwbGF5OmlubGluZTtvdmVyZmxvdzp2aXNpYmxlO3Zpc2liaWxpdHk6dmlzaWJsZTtmaWxsOiNmZmZmZmY7ZmlsbC1vcGFjaXR5OjE7ZmlsbC1ydWxlOm5vbnplcm87c3Ryb2tlOm5vbmU7c3Ryb2tlLXdpZHRoOjA7c3Ryb2tlLW1pdGVybGltaXQ6NDtzdHJva2UtZGFzaGFycmF5Om5vbmU7bWFya2VyOm5vbmU7ZW5hYmxlLWJhY2tncm91bmQ6YWNjdW11bGF0ZSIgaW5rc2NhcGU6Y29ubmVjdG9yLWN1cnZhdHVyZT0iMCIvPiYjeGE7ICAgIDwvZz4mI3hhOyAgICA8dGV4dCBpZD0idGV4dDIwNjYiIHk9IjE2LjgxMTc3NSIgeD0iMTAuMDE3MTgzIiBzdHlsZT0iZm9udC1zdHlsZTpub3JtYWw7Zm9udC13ZWlnaHQ6bm9ybWFsO2ZvbnQtc2l6ZToxMC41ODMzMzMwMnB4O2xpbmUtaGVpZ2h0OjYuNjE0NTgzNDlweDtmb250LWZhbWlseTpTYW5zO2xldHRlci1zcGFjaW5nOjBweDt3b3JkLXNwYWNpbmc6MHB4O2ZpbGw6I2ZmZmZmZjtmaWxsLW9wYWNpdHk6MTtzdHJva2U6bm9uZTtzdHJva2Utd2lkdGg6MC4yNjQ1ODMzMnB4O3N0cm9rZS1saW5lY2FwOmJ1dHQ7c3Ryb2tlLWxpbmVqb2luOm1pdGVyO3N0cm9rZS1vcGFjaXR5OjEiIHhtbDpzcGFjZT0icHJlc2VydmUiPjx0c3BhbiBzdHlsZT0iZm9udC1zdHlsZTpub3JtYWw7Zm9udC12YXJpYW50Om5vcm1hbDtmb250LXdlaWdodDpub3JtYWw7Zm9udC1zdHJldGNoOm5vcm1hbDtmb250LXNpemU6Mi44MjIyMjIyM3B4O2ZvbnQtZmFtaWx5OkFyaWFsOy1pbmtzY2FwZS1mb250LXNwZWNpZmljYXRpb246J0FyaWFsLCBOb3JtYWwnO3RleHQtYWxpZ246Y2VudGVyO3dyaXRpbmctbW9kZTpsci10Yjt0ZXh0LWFuY2hvcjptaWRkbGU7ZmlsbDojZmZmZmZmO2ZpbGwtb3BhY2l0eToxO3N0cm9rZS13aWR0aDowLjI2NDU4MzMycHgiIHk9IjE2LjgxMTc3NSIgeD0iMTAuMDE3MTgzIiBpZD0idHNwYW4yMDY0IiBzb2RpcG9kaTpyb2xlPSJsaW5lIj5wb2Q8L3RzcGFuPjwvdGV4dD4mI3hhOyAgICA8ZyBpZD0iZzMzNDEiIHRyYW5zZm9ybT0idHJhbnNsYXRlKDAuMTI3NjY2NjEsMCkiPiYjeGE7ICAgICAgPHBhdGggaW5rc2NhcGU6ZXhwb3J0LXlkcGk9IjM3Ni41Nzk5OSIgaW5rc2NhcGU6ZXhwb3J0LXhkcGk9IjM3Ni41Nzk5OSIgc3R5bGU9ImZpbGw6I2ZmZmZmZjtmaWxsLXJ1bGU6ZXZlbm9kZDtzdHJva2U6bm9uZTtzdHJva2Utd2lkdGg6MC4yNjQ1ODMzMjtzdHJva2UtbGluZWNhcDpzcXVhcmU7c3Ryb2tlLW1pdGVybGltaXQ6MTAiIGlua3NjYXBlOmNvbm5lY3Rvci1jdXJ2YXR1cmU9IjAiIGQ9Ik0gNi4yNjE3OTE0LDcuMDM2MDg2IDkuODgyNjMxNyw1Ljk4NjA4NyAxMy41MDM0NjIsNy4wMzYwODYgOS44ODI2MzE3LDguMDg2MDg3IFoiIGlkPSJwYXRoOTEwIi8+JiN4YTsgICAgICA8cGF0aCBpbmtzY2FwZTpleHBvcnQteWRwaT0iMzc2LjU3OTk5IiBpbmtzY2FwZTpleHBvcnQteGRwaT0iMzc2LjU3OTk5IiBzdHlsZT0iZmlsbDojZmZmZmZmO2ZpbGwtcnVsZTpldmVub2RkO3N0cm9rZTpub25lO3N0cm9rZS13aWR0aDowLjI2NDU4MzMyO3N0cm9rZS1saW5lY2FwOnNxdWFyZTtzdHJva2UtbWl0ZXJsaW1pdDoxMCIgaW5rc2NhcGU6Y29ubmVjdG9yLWN1cnZhdHVyZT0iMCIgZD0ibSA2LjI2MTc5MTQsNy40MzgxNyAwLDMuODUyNzc4IDMuMzczNjEwMywxLjg2ODc0OSAwLjAxNjcsLTQuNzEzMTkzIHoiIGlkPSJwYXRoOTEyIi8+JiN4YTsgICAgICA8cGF0aCBpbmtzY2FwZTpleHBvcnQteWRwaT0iMzc2LjU3OTk5IiBpbmtzY2FwZTpleHBvcnQteGRwaT0iMzc2LjU3OTk5IiBzdHlsZT0iZmlsbDojZmZmZmZmO2ZpbGwtcnVsZTpldmVub2RkO3N0cm9rZTpub25lO3N0cm9rZS13aWR0aDowLjI2NDU4MzMyO3N0cm9rZS1saW5lY2FwOnNxdWFyZTtzdHJva2UtbWl0ZXJsaW1pdDoxMCIgaW5rc2NhcGU6Y29ubmVjdG9yLWN1cnZhdHVyZT0iMCIgZD0ibSAxMy41MDM0NjIsNy40MzgxNyAwLDMuODUyNzc4IC0zLjM3MzYxLDEuODY4NzQ5IC0wLjAxNjcsLTQuNzEzMTkzIHoiIGlkPSJwYXRoOTE0Ii8+JiN4YTsgICAgPC9nPiYjeGE7ICA8L2c+JiN4YTs8L3N2Zz4=" vertex="1" parent="1">
          <mxGeometry x="500" y="360" width="40" height="40" as="geometry" />
        </mxCell>
        <mxCell id="CuJ7pr3B0lwYhuTaBker-21" value="" style="shape=image;verticalLabelPosition=bottom;verticalAlign=top;imageAspect=0;aspect=fixed;image=data:image/svg+xml,PHN2ZyB4bWxuczpkYz0iaHR0cDovL3B1cmwub3JnL2RjL2VsZW1lbnRzLzEuMS8iIHhtbG5zOmNjPSJodHRwOi8vY3JlYXRpdmVjb21tb25zLm9yZy9ucyMiIHhtbG5zOnJkZj0iaHR0cDovL3d3dy53My5vcmcvMTk5OS8wMi8yMi1yZGYtc3ludGF4LW5zIyIgeG1sbnM6c3ZnPSJodHRwOi8vd3d3LnczLm9yZy8yMDAwL3N2ZyIgeG1sbnM9Imh0dHA6Ly93d3cudzMub3JnLzIwMDAvc3ZnIiB4bWxuczpzb2RpcG9kaT0iaHR0cDovL3NvZGlwb2RpLnNvdXJjZWZvcmdlLm5ldC9EVEQvc29kaXBvZGktMC5kdGQiIHhtbG5zOmlua3NjYXBlPSJodHRwOi8vd3d3Lmlua3NjYXBlLm9yZy9uYW1lc3BhY2VzL2lua3NjYXBlIiB3aWR0aD0iMTguMDM1MzM0bW0iIGhlaWdodD0iMTcuNTAwMzc4bW0iIHZpZXdCb3g9IjAgMCAxOC4wMzUzMzQgMTcuNTAwMzc4IiB2ZXJzaW9uPSIxLjEiIGlkPSJzdmcxMzgyNiIgaW5rc2NhcGU6dmVyc2lvbj0iMC45MSByMTM3MjUiIHNvZGlwb2RpOmRvY25hbWU9InBvZC5zdmciPiYjeGE7ICA8ZGVmcyBpZD0iZGVmczEzODIwIi8+JiN4YTsgIDxzb2RpcG9kaTpuYW1lZHZpZXcgaWQ9ImJhc2UiIHBhZ2Vjb2xvcj0iI2ZmZmZmZiIgYm9yZGVyY29sb3I9IiM2NjY2NjYiIGJvcmRlcm9wYWNpdHk9IjEuMCIgaW5rc2NhcGU6cGFnZW9wYWNpdHk9IjAuMCIgaW5rc2NhcGU6cGFnZXNoYWRvdz0iMiIgaW5rc2NhcGU6em9vbT0iOCIgaW5rc2NhcGU6Y3g9IjE2Ljg0NzQ5NiIgaW5rc2NhcGU6Y3k9IjMzLjc1MjIzOSIgaW5rc2NhcGU6ZG9jdW1lbnQtdW5pdHM9Im1tIiBpbmtzY2FwZTpjdXJyZW50LWxheWVyPSJsYXllcjEiIHNob3dncmlkPSJmYWxzZSIgaW5rc2NhcGU6d2luZG93LXdpZHRoPSIxNDQwIiBpbmtzY2FwZTp3aW5kb3ctaGVpZ2h0PSI3NzUiIGlua3NjYXBlOndpbmRvdy14PSIwIiBpbmtzY2FwZTp3aW5kb3cteT0iMSIgaW5rc2NhcGU6d2luZG93LW1heGltaXplZD0iMSIgZml0LW1hcmdpbi10b3A9IjAiIGZpdC1tYXJnaW4tbGVmdD0iMCIgZml0LW1hcmdpbi1yaWdodD0iMCIgZml0LW1hcmdpbi1ib3R0b209IjAiLz4mI3hhOyAgJiN4YTsgIDxnIGlua3NjYXBlOmxhYmVsPSJDYWxxdWUgMSIgaW5rc2NhcGU6Z3JvdXBtb2RlPSJsYXllciIgaWQ9ImxheWVyMSIgdHJhbnNmb3JtPSJ0cmFuc2xhdGUoLTAuOTkyNjI2MzgsLTEuMTc0MTgxKSI+JiN4YTsgICAgPGcgaWQ9Imc3MCIgdHJhbnNmb3JtPSJtYXRyaXgoMS4wMTQ4ODg3LDAsMCwxLjAxNDg4ODcsMTYuOTAyMTQ2LC0yLjY5ODcyNikiPiYjeGE7ICAgICAgPHBhdGggaW5rc2NhcGU6ZXhwb3J0LXlkcGk9IjI1MC41NSIgaW5rc2NhcGU6ZXhwb3J0LXhkcGk9IjI1MC41NSIgaW5rc2NhcGU6ZXhwb3J0LWZpbGVuYW1lPSJuZXcucG5nIiBpbmtzY2FwZTpjb25uZWN0b3ItY3VydmF0dXJlPSIwIiBpZD0icGF0aDMwNTUiIGQ9Im0gLTYuODQ5MjAxNSw0LjI3MjQ2NjggYSAxLjExOTEyNTUsMS4xMDk5NjcxIDAgMCAwIC0wLjQyODg4MTgsMC4xMDg1MzAzIGwgLTUuODUyNDAzNywyLjc5NjMzOTQgYSAxLjExOTEyNTUsMS4xMDk5NjcxIDAgMCAwIC0wLjYwNTUyNCwwLjc1Mjk3NTkgbCAtMS40NDM4MjgsNi4yODEyODQ2IGEgMS4xMTkxMjU1LDEuMTA5OTY3MSAwIDAgMCAwLjE1MTk0MywwLjg1MTAyOCAxLjExOTEyNTUsMS4xMDk5NjcxIDAgMCAwIDAuMDYzNjIsMC4wODgzMiBsIDQuMDUwOCw1LjAzNjU1NSBhIDEuMTE5MTI1NSwxLjEwOTk2NzEgMCAwIDAgMC44NzQ5NzksMC40MTc2NTQgbCA2LjQ5NjEwMTEsLTAuMDAxNSBhIDEuMTE5MTI1NSwxLjEwOTk2NzEgMCAwIDAgMC44NzQ5Nzg4LC0wLjQxNjkwNiBMIDEuMzgxODg3MiwxNS4xNDk0NTMgQSAxLjExOTEyNTUsMS4xMDk5NjcxIDAgMCAwIDEuNTk4MTk4NiwxNC4yMTAxMDQgTCAwLjE1MjEyNjU3LDcuOTI4ODE1NCBBIDEuMTE5MTI1NSwxLjEwOTk2NzEgMCAwIDAgLTAuNDUzMzk3OTQsNy4xNzU4Mzk2IEwgLTYuMzA2NTQ5Niw0LjM4MDk5NzEgQSAxLjExOTEyNTUsMS4xMDk5NjcxIDAgMCAwIC02Ljg0OTIwMTUsNC4yNzI0NjY4IFoiIHN0eWxlPSJmaWxsOiMzMjZjZTU7ZmlsbC1vcGFjaXR5OjE7c3Ryb2tlOm5vbmU7c3Ryb2tlLXdpZHRoOjA7c3Ryb2tlLW1pdGVybGltaXQ6NDtzdHJva2UtZGFzaGFycmF5Om5vbmU7c3Ryb2tlLW9wYWNpdHk6MSIvPiYjeGE7ICAgICAgPHBhdGggaWQ9InBhdGgzMDU0LTItOSIgZD0iTSAtNi44NTIzNDM1LDMuODE3NjM3MiBBIDEuMTgxNDMwNCwxLjE3MTc2MiAwIDAgMCAtNy4zMDQ0Mjg0LDMuOTMyOTA0IGwgLTYuMTc4NzQyNiwyLjk1MTI3NTggYSAxLjE4MTQzMDQsMS4xNzE3NjIgMCAwIDAgLTAuNjM5MjA2LDAuNzk0ODkxIGwgLTEuNTIzOTE1LDYuNjMwODI4MiBhIDEuMTgxNDMwNCwxLjE3MTc2MiAwIDAgMCAwLjE2MDE3NSwwLjg5ODkzIDEuMTgxNDMwNCwxLjE3MTc2MiAwIDAgMCAwLjA2NzM2LDAuMDkyODEgbCA0LjI3NjA5NCw1LjMxNzIzNiBhIDEuMTgxNDMwNCwxLjE3MTc2MiAwIDAgMCAwLjkyMzYzLDAuNDQwODU4IGwgNi44NTc2MTg4LC0wLjAwMTUgYSAxLjE4MTQzMDQsMS4xNzE3NjIgMCAwIDAgMC45MjM2MzA4LC0wLjQ0MDExIGwgNC4yNzQ1OTY2LC01LjMxNzk4NSBhIDEuMTgxNDMwNCwxLjE3MTc2MiAwIDAgMCAwLjIyODI4OCwtMC45OTA5OTMgTCAwLjUzODk0NDM5LDcuNjc3NTczOCBBIDEuMTgxNDMwNCwxLjE3MTc2MiAwIDAgMCAtMC4xMDAyNjEwMSw2Ljg4MzQzMTMgTCAtNi4yNzkwMDM3LDMuOTMyMTU1NSBBIDEuMTgxNDMwNCwxLjE3MTc2MiAwIDAgMCAtNi44NTIzNDM1LDMuODE3NjM3MiBaIG0gMC4wMDI5OSwwLjQ1NTA3ODkgYSAxLjExOTEyNTUsMS4xMDk5NjcxIDAgMCAxIDAuNTQyNjUxNywwLjEwODUzMDMgbCA1Ljg1MzE1MTY5LDIuNzk0ODQyNSBBIDEuMTE5MTI1NSwxLjEwOTk2NzEgMCAwIDEgMC4xNTE5NzgxMSw3LjkyOTA2NDggTCAxLjU5ODA1MSwxNC4yMTAzNSBhIDEuMTE5MTI1NSwxLjEwOTk2NzEgMCAwIDEgLTAuMjE2MzEyMywwLjkzOTM0OCBsIC00LjA0OTMwMzIsNS4wMzczMDQgYSAxLjExOTEyNTUsMS4xMDk5NjcxIDAgMCAxIC0wLjg3NDk3ODksMC40MTY5MDYgbCAtNi40OTYxMDA2LDAuMDAxNSBhIDEuMTE5MTI1NSwxLjEwOTk2NzEgMCAwIDEgLTAuODc0OTc5LC0wLjQxNzY1MiBsIC00LjA1MDgsLTUuMDM2NTU0IGEgMS4xMTkxMjU1LDEuMTA5OTY3MSAwIDAgMSAtMC4wNjM2MiwtMC4wODgzMiAxLjExOTEyNTUsMS4xMDk5NjcxIDAgMCAxIC0wLjE1MTk0MiwtMC44NTEwMjggbCAxLjQ0MzgyNywtNi4yODEyODUzIGEgMS4xMTkxMjU1LDEuMTA5OTY3MSAwIDAgMSAwLjYwNTUyNCwtMC43NTI5NzU4IGwgNS44NTI0MDM2LC0yLjc5NjMzOTUgYSAxLjExOTEyNTUsMS4xMDk5NjcxIDAgMCAxIDAuNDI4ODgxOSwtMC4xMDg1MzAzIHoiIHN0eWxlPSJjb2xvcjojMDAwMDAwO2ZvbnQtc3R5bGU6bm9ybWFsO2ZvbnQtdmFyaWFudDpub3JtYWw7Zm9udC13ZWlnaHQ6bm9ybWFsO2ZvbnQtc3RyZXRjaDpub3JtYWw7Zm9udC1zaXplOm1lZGl1bTtsaW5lLWhlaWdodDpub3JtYWw7Zm9udC1mYW1pbHk6U2FuczstaW5rc2NhcGUtZm9udC1zcGVjaWZpY2F0aW9uOlNhbnM7dGV4dC1pbmRlbnQ6MDt0ZXh0LWFsaWduOnN0YXJ0O3RleHQtZGVjb3JhdGlvbjpub25lO3RleHQtZGVjb3JhdGlvbi1saW5lOm5vbmU7bGV0dGVyLXNwYWNpbmc6bm9ybWFsO3dvcmQtc3BhY2luZzpub3JtYWw7dGV4dC10cmFuc2Zvcm06bm9uZTt3cml0aW5nLW1vZGU6bHItdGI7ZGlyZWN0aW9uOmx0cjtiYXNlbGluZS1zaGlmdDpiYXNlbGluZTt0ZXh0LWFuY2hvcjpzdGFydDtkaXNwbGF5OmlubGluZTtvdmVyZmxvdzp2aXNpYmxlO3Zpc2liaWxpdHk6dmlzaWJsZTtmaWxsOiNmZmZmZmY7ZmlsbC1vcGFjaXR5OjE7ZmlsbC1ydWxlOm5vbnplcm87c3Ryb2tlOm5vbmU7c3Ryb2tlLXdpZHRoOjA7c3Ryb2tlLW1pdGVybGltaXQ6NDtzdHJva2UtZGFzaGFycmF5Om5vbmU7bWFya2VyOm5vbmU7ZW5hYmxlLWJhY2tncm91bmQ6YWNjdW11bGF0ZSIgaW5rc2NhcGU6Y29ubmVjdG9yLWN1cnZhdHVyZT0iMCIvPiYjeGE7ICAgIDwvZz4mI3hhOyAgICA8dGV4dCBpZD0idGV4dDIwNjYiIHk9IjE2LjgxMTc3NSIgeD0iMTAuMDE3MTgzIiBzdHlsZT0iZm9udC1zdHlsZTpub3JtYWw7Zm9udC13ZWlnaHQ6bm9ybWFsO2ZvbnQtc2l6ZToxMC41ODMzMzMwMnB4O2xpbmUtaGVpZ2h0OjYuNjE0NTgzNDlweDtmb250LWZhbWlseTpTYW5zO2xldHRlci1zcGFjaW5nOjBweDt3b3JkLXNwYWNpbmc6MHB4O2ZpbGw6I2ZmZmZmZjtmaWxsLW9wYWNpdHk6MTtzdHJva2U6bm9uZTtzdHJva2Utd2lkdGg6MC4yNjQ1ODMzMnB4O3N0cm9rZS1saW5lY2FwOmJ1dHQ7c3Ryb2tlLWxpbmVqb2luOm1pdGVyO3N0cm9rZS1vcGFjaXR5OjEiIHhtbDpzcGFjZT0icHJlc2VydmUiPjx0c3BhbiBzdHlsZT0iZm9udC1zdHlsZTpub3JtYWw7Zm9udC12YXJpYW50Om5vcm1hbDtmb250LXdlaWdodDpub3JtYWw7Zm9udC1zdHJldGNoOm5vcm1hbDtmb250LXNpemU6Mi44MjIyMjIyM3B4O2ZvbnQtZmFtaWx5OkFyaWFsOy1pbmtzY2FwZS1mb250LXNwZWNpZmljYXRpb246J0FyaWFsLCBOb3JtYWwnO3RleHQtYWxpZ246Y2VudGVyO3dyaXRpbmctbW9kZTpsci10Yjt0ZXh0LWFuY2hvcjptaWRkbGU7ZmlsbDojZmZmZmZmO2ZpbGwtb3BhY2l0eToxO3N0cm9rZS13aWR0aDowLjI2NDU4MzMycHgiIHk9IjE2LjgxMTc3NSIgeD0iMTAuMDE3MTgzIiBpZD0idHNwYW4yMDY0IiBzb2RpcG9kaTpyb2xlPSJsaW5lIj5wb2Q8L3RzcGFuPjwvdGV4dD4mI3hhOyAgICA8ZyBpZD0iZzMzNDEiIHRyYW5zZm9ybT0idHJhbnNsYXRlKDAuMTI3NjY2NjEsMCkiPiYjeGE7ICAgICAgPHBhdGggaW5rc2NhcGU6ZXhwb3J0LXlkcGk9IjM3Ni41Nzk5OSIgaW5rc2NhcGU6ZXhwb3J0LXhkcGk9IjM3Ni41Nzk5OSIgc3R5bGU9ImZpbGw6I2ZmZmZmZjtmaWxsLXJ1bGU6ZXZlbm9kZDtzdHJva2U6bm9uZTtzdHJva2Utd2lkdGg6MC4yNjQ1ODMzMjtzdHJva2UtbGluZWNhcDpzcXVhcmU7c3Ryb2tlLW1pdGVybGltaXQ6MTAiIGlua3NjYXBlOmNvbm5lY3Rvci1jdXJ2YXR1cmU9IjAiIGQ9Ik0gNi4yNjE3OTE0LDcuMDM2MDg2IDkuODgyNjMxNyw1Ljk4NjA4NyAxMy41MDM0NjIsNy4wMzYwODYgOS44ODI2MzE3LDguMDg2MDg3IFoiIGlkPSJwYXRoOTEwIi8+JiN4YTsgICAgICA8cGF0aCBpbmtzY2FwZTpleHBvcnQteWRwaT0iMzc2LjU3OTk5IiBpbmtzY2FwZTpleHBvcnQteGRwaT0iMzc2LjU3OTk5IiBzdHlsZT0iZmlsbDojZmZmZmZmO2ZpbGwtcnVsZTpldmVub2RkO3N0cm9rZTpub25lO3N0cm9rZS13aWR0aDowLjI2NDU4MzMyO3N0cm9rZS1saW5lY2FwOnNxdWFyZTtzdHJva2UtbWl0ZXJsaW1pdDoxMCIgaW5rc2NhcGU6Y29ubmVjdG9yLWN1cnZhdHVyZT0iMCIgZD0ibSA2LjI2MTc5MTQsNy40MzgxNyAwLDMuODUyNzc4IDMuMzczNjEwMywxLjg2ODc0OSAwLjAxNjcsLTQuNzEzMTkzIHoiIGlkPSJwYXRoOTEyIi8+JiN4YTsgICAgICA8cGF0aCBpbmtzY2FwZTpleHBvcnQteWRwaT0iMzc2LjU3OTk5IiBpbmtzY2FwZTpleHBvcnQteGRwaT0iMzc2LjU3OTk5IiBzdHlsZT0iZmlsbDojZmZmZmZmO2ZpbGwtcnVsZTpldmVub2RkO3N0cm9rZTpub25lO3N0cm9rZS13aWR0aDowLjI2NDU4MzMyO3N0cm9rZS1saW5lY2FwOnNxdWFyZTtzdHJva2UtbWl0ZXJsaW1pdDoxMCIgaW5rc2NhcGU6Y29ubmVjdG9yLWN1cnZhdHVyZT0iMCIgZD0ibSAxMy41MDM0NjIsNy40MzgxNyAwLDMuODUyNzc4IC0zLjM3MzYxLDEuODY4NzQ5IC0wLjAxNjcsLTQuNzEzMTkzIHoiIGlkPSJwYXRoOTE0Ii8+JiN4YTsgICAgPC9nPiYjeGE7ICA8L2c+JiN4YTs8L3N2Zz4=" vertex="1" parent="1">
          <mxGeometry x="640" y="360" width="40" height="40" as="geometry" />
        </mxCell>
        <mxCell id="CuJ7pr3B0lwYhuTaBker-22" value="" style="shape=image;verticalLabelPosition=bottom;verticalAlign=top;imageAspect=0;aspect=fixed;image=data:image/svg+xml,PHN2ZyB4bWxuczpkYz0iaHR0cDovL3B1cmwub3JnL2RjL2VsZW1lbnRzLzEuMS8iIHhtbG5zOmNjPSJodHRwOi8vY3JlYXRpdmVjb21tb25zLm9yZy9ucyMiIHhtbG5zOnJkZj0iaHR0cDovL3d3dy53My5vcmcvMTk5OS8wMi8yMi1yZGYtc3ludGF4LW5zIyIgeG1sbnM6c3ZnPSJodHRwOi8vd3d3LnczLm9yZy8yMDAwL3N2ZyIgeG1sbnM9Imh0dHA6Ly93d3cudzMub3JnLzIwMDAvc3ZnIiB4bWxuczpzb2RpcG9kaT0iaHR0cDovL3NvZGlwb2RpLnNvdXJjZWZvcmdlLm5ldC9EVEQvc29kaXBvZGktMC5kdGQiIHhtbG5zOmlua3NjYXBlPSJodHRwOi8vd3d3Lmlua3NjYXBlLm9yZy9uYW1lc3BhY2VzL2lua3NjYXBlIiB3aWR0aD0iMTguMDM1MzM0bW0iIGhlaWdodD0iMTcuNTAwMzc4bW0iIHZpZXdCb3g9IjAgMCAxOC4wMzUzMzQgMTcuNTAwMzc4IiB2ZXJzaW9uPSIxLjEiIGlkPSJzdmcxMzgyNiIgaW5rc2NhcGU6dmVyc2lvbj0iMC45MSByMTM3MjUiIHNvZGlwb2RpOmRvY25hbWU9InBvZC5zdmciPiYjeGE7ICA8ZGVmcyBpZD0iZGVmczEzODIwIi8+JiN4YTsgIDxzb2RpcG9kaTpuYW1lZHZpZXcgaWQ9ImJhc2UiIHBhZ2Vjb2xvcj0iI2ZmZmZmZiIgYm9yZGVyY29sb3I9IiM2NjY2NjYiIGJvcmRlcm9wYWNpdHk9IjEuMCIgaW5rc2NhcGU6cGFnZW9wYWNpdHk9IjAuMCIgaW5rc2NhcGU6cGFnZXNoYWRvdz0iMiIgaW5rc2NhcGU6em9vbT0iOCIgaW5rc2NhcGU6Y3g9IjE2Ljg0NzQ5NiIgaW5rc2NhcGU6Y3k9IjMzLjc1MjIzOSIgaW5rc2NhcGU6ZG9jdW1lbnQtdW5pdHM9Im1tIiBpbmtzY2FwZTpjdXJyZW50LWxheWVyPSJsYXllcjEiIHNob3dncmlkPSJmYWxzZSIgaW5rc2NhcGU6d2luZG93LXdpZHRoPSIxNDQwIiBpbmtzY2FwZTp3aW5kb3ctaGVpZ2h0PSI3NzUiIGlua3NjYXBlOndpbmRvdy14PSIwIiBpbmtzY2FwZTp3aW5kb3cteT0iMSIgaW5rc2NhcGU6d2luZG93LW1heGltaXplZD0iMSIgZml0LW1hcmdpbi10b3A9IjAiIGZpdC1tYXJnaW4tbGVmdD0iMCIgZml0LW1hcmdpbi1yaWdodD0iMCIgZml0LW1hcmdpbi1ib3R0b209IjAiLz4mI3hhOyAgJiN4YTsgIDxnIGlua3NjYXBlOmxhYmVsPSJDYWxxdWUgMSIgaW5rc2NhcGU6Z3JvdXBtb2RlPSJsYXllciIgaWQ9ImxheWVyMSIgdHJhbnNmb3JtPSJ0cmFuc2xhdGUoLTAuOTkyNjI2MzgsLTEuMTc0MTgxKSI+JiN4YTsgICAgPGcgaWQ9Imc3MCIgdHJhbnNmb3JtPSJtYXRyaXgoMS4wMTQ4ODg3LDAsMCwxLjAxNDg4ODcsMTYuOTAyMTQ2LC0yLjY5ODcyNikiPiYjeGE7ICAgICAgPHBhdGggaW5rc2NhcGU6ZXhwb3J0LXlkcGk9IjI1MC41NSIgaW5rc2NhcGU6ZXhwb3J0LXhkcGk9IjI1MC41NSIgaW5rc2NhcGU6ZXhwb3J0LWZpbGVuYW1lPSJuZXcucG5nIiBpbmtzY2FwZTpjb25uZWN0b3ItY3VydmF0dXJlPSIwIiBpZD0icGF0aDMwNTUiIGQ9Im0gLTYuODQ5MjAxNSw0LjI3MjQ2NjggYSAxLjExOTEyNTUsMS4xMDk5NjcxIDAgMCAwIC0wLjQyODg4MTgsMC4xMDg1MzAzIGwgLTUuODUyNDAzNywyLjc5NjMzOTQgYSAxLjExOTEyNTUsMS4xMDk5NjcxIDAgMCAwIC0wLjYwNTUyNCwwLjc1Mjk3NTkgbCAtMS40NDM4MjgsNi4yODEyODQ2IGEgMS4xMTkxMjU1LDEuMTA5OTY3MSAwIDAgMCAwLjE1MTk0MywwLjg1MTAyOCAxLjExOTEyNTUsMS4xMDk5NjcxIDAgMCAwIDAuMDYzNjIsMC4wODgzMiBsIDQuMDUwOCw1LjAzNjU1NSBhIDEuMTE5MTI1NSwxLjEwOTk2NzEgMCAwIDAgMC44NzQ5NzksMC40MTc2NTQgbCA2LjQ5NjEwMTEsLTAuMDAxNSBhIDEuMTE5MTI1NSwxLjEwOTk2NzEgMCAwIDAgMC44NzQ5Nzg4LC0wLjQxNjkwNiBMIDEuMzgxODg3MiwxNS4xNDk0NTMgQSAxLjExOTEyNTUsMS4xMDk5NjcxIDAgMCAwIDEuNTk4MTk4NiwxNC4yMTAxMDQgTCAwLjE1MjEyNjU3LDcuOTI4ODE1NCBBIDEuMTE5MTI1NSwxLjEwOTk2NzEgMCAwIDAgLTAuNDUzMzk3OTQsNy4xNzU4Mzk2IEwgLTYuMzA2NTQ5Niw0LjM4MDk5NzEgQSAxLjExOTEyNTUsMS4xMDk5NjcxIDAgMCAwIC02Ljg0OTIwMTUsNC4yNzI0NjY4IFoiIHN0eWxlPSJmaWxsOiMzMjZjZTU7ZmlsbC1vcGFjaXR5OjE7c3Ryb2tlOm5vbmU7c3Ryb2tlLXdpZHRoOjA7c3Ryb2tlLW1pdGVybGltaXQ6NDtzdHJva2UtZGFzaGFycmF5Om5vbmU7c3Ryb2tlLW9wYWNpdHk6MSIvPiYjeGE7ICAgICAgPHBhdGggaWQ9InBhdGgzMDU0LTItOSIgZD0iTSAtNi44NTIzNDM1LDMuODE3NjM3MiBBIDEuMTgxNDMwNCwxLjE3MTc2MiAwIDAgMCAtNy4zMDQ0Mjg0LDMuOTMyOTA0IGwgLTYuMTc4NzQyNiwyLjk1MTI3NTggYSAxLjE4MTQzMDQsMS4xNzE3NjIgMCAwIDAgLTAuNjM5MjA2LDAuNzk0ODkxIGwgLTEuNTIzOTE1LDYuNjMwODI4MiBhIDEuMTgxNDMwNCwxLjE3MTc2MiAwIDAgMCAwLjE2MDE3NSwwLjg5ODkzIDEuMTgxNDMwNCwxLjE3MTc2MiAwIDAgMCAwLjA2NzM2LDAuMDkyODEgbCA0LjI3NjA5NCw1LjMxNzIzNiBhIDEuMTgxNDMwNCwxLjE3MTc2MiAwIDAgMCAwLjkyMzYzLDAuNDQwODU4IGwgNi44NTc2MTg4LC0wLjAwMTUgYSAxLjE4MTQzMDQsMS4xNzE3NjIgMCAwIDAgMC45MjM2MzA4LC0wLjQ0MDExIGwgNC4yNzQ1OTY2LC01LjMxNzk4NSBhIDEuMTgxNDMwNCwxLjE3MTc2MiAwIDAgMCAwLjIyODI4OCwtMC45OTA5OTMgTCAwLjUzODk0NDM5LDcuNjc3NTczOCBBIDEuMTgxNDMwNCwxLjE3MTc2MiAwIDAgMCAtMC4xMDAyNjEwMSw2Ljg4MzQzMTMgTCAtNi4yNzkwMDM3LDMuOTMyMTU1NSBBIDEuMTgxNDMwNCwxLjE3MTc2MiAwIDAgMCAtNi44NTIzNDM1LDMuODE3NjM3MiBaIG0gMC4wMDI5OSwwLjQ1NTA3ODkgYSAxLjExOTEyNTUsMS4xMDk5NjcxIDAgMCAxIDAuNTQyNjUxNywwLjEwODUzMDMgbCA1Ljg1MzE1MTY5LDIuNzk0ODQyNSBBIDEuMTE5MTI1NSwxLjEwOTk2NzEgMCAwIDEgMC4xNTE5NzgxMSw3LjkyOTA2NDggTCAxLjU5ODA1MSwxNC4yMTAzNSBhIDEuMTE5MTI1NSwxLjEwOTk2NzEgMCAwIDEgLTAuMjE2MzEyMywwLjkzOTM0OCBsIC00LjA0OTMwMzIsNS4wMzczMDQgYSAxLjExOTEyNTUsMS4xMDk5NjcxIDAgMCAxIC0wLjg3NDk3ODksMC40MTY5MDYgbCAtNi40OTYxMDA2LDAuMDAxNSBhIDEuMTE5MTI1NSwxLjEwOTk2NzEgMCAwIDEgLTAuODc0OTc5LC0wLjQxNzY1MiBsIC00LjA1MDgsLTUuMDM2NTU0IGEgMS4xMTkxMjU1LDEuMTA5OTY3MSAwIDAgMSAtMC4wNjM2MiwtMC4wODgzMiAxLjExOTEyNTUsMS4xMDk5NjcxIDAgMCAxIC0wLjE1MTk0MiwtMC44NTEwMjggbCAxLjQ0MzgyNywtNi4yODEyODUzIGEgMS4xMTkxMjU1LDEuMTA5OTY3MSAwIDAgMSAwLjYwNTUyNCwtMC43NTI5NzU4IGwgNS44NTI0MDM2LC0yLjc5NjMzOTUgYSAxLjExOTEyNTUsMS4xMDk5NjcxIDAgMCAxIDAuNDI4ODgxOSwtMC4xMDg1MzAzIHoiIHN0eWxlPSJjb2xvcjojMDAwMDAwO2ZvbnQtc3R5bGU6bm9ybWFsO2ZvbnQtdmFyaWFudDpub3JtYWw7Zm9udC13ZWlnaHQ6bm9ybWFsO2ZvbnQtc3RyZXRjaDpub3JtYWw7Zm9udC1zaXplOm1lZGl1bTtsaW5lLWhlaWdodDpub3JtYWw7Zm9udC1mYW1pbHk6U2FuczstaW5rc2NhcGUtZm9udC1zcGVjaWZpY2F0aW9uOlNhbnM7dGV4dC1pbmRlbnQ6MDt0ZXh0LWFsaWduOnN0YXJ0O3RleHQtZGVjb3JhdGlvbjpub25lO3RleHQtZGVjb3JhdGlvbi1saW5lOm5vbmU7bGV0dGVyLXNwYWNpbmc6bm9ybWFsO3dvcmQtc3BhY2luZzpub3JtYWw7dGV4dC10cmFuc2Zvcm06bm9uZTt3cml0aW5nLW1vZGU6bHItdGI7ZGlyZWN0aW9uOmx0cjtiYXNlbGluZS1zaGlmdDpiYXNlbGluZTt0ZXh0LWFuY2hvcjpzdGFydDtkaXNwbGF5OmlubGluZTtvdmVyZmxvdzp2aXNpYmxlO3Zpc2liaWxpdHk6dmlzaWJsZTtmaWxsOiNmZmZmZmY7ZmlsbC1vcGFjaXR5OjE7ZmlsbC1ydWxlOm5vbnplcm87c3Ryb2tlOm5vbmU7c3Ryb2tlLXdpZHRoOjA7c3Ryb2tlLW1pdGVybGltaXQ6NDtzdHJva2UtZGFzaGFycmF5Om5vbmU7bWFya2VyOm5vbmU7ZW5hYmxlLWJhY2tncm91bmQ6YWNjdW11bGF0ZSIgaW5rc2NhcGU6Y29ubmVjdG9yLWN1cnZhdHVyZT0iMCIvPiYjeGE7ICAgIDwvZz4mI3hhOyAgICA8dGV4dCBpZD0idGV4dDIwNjYiIHk9IjE2LjgxMTc3NSIgeD0iMTAuMDE3MTgzIiBzdHlsZT0iZm9udC1zdHlsZTpub3JtYWw7Zm9udC13ZWlnaHQ6bm9ybWFsO2ZvbnQtc2l6ZToxMC41ODMzMzMwMnB4O2xpbmUtaGVpZ2h0OjYuNjE0NTgzNDlweDtmb250LWZhbWlseTpTYW5zO2xldHRlci1zcGFjaW5nOjBweDt3b3JkLXNwYWNpbmc6MHB4O2ZpbGw6I2ZmZmZmZjtmaWxsLW9wYWNpdHk6MTtzdHJva2U6bm9uZTtzdHJva2Utd2lkdGg6MC4yNjQ1ODMzMnB4O3N0cm9rZS1saW5lY2FwOmJ1dHQ7c3Ryb2tlLWxpbmVqb2luOm1pdGVyO3N0cm9rZS1vcGFjaXR5OjEiIHhtbDpzcGFjZT0icHJlc2VydmUiPjx0c3BhbiBzdHlsZT0iZm9udC1zdHlsZTpub3JtYWw7Zm9udC12YXJpYW50Om5vcm1hbDtmb250LXdlaWdodDpub3JtYWw7Zm9udC1zdHJldGNoOm5vcm1hbDtmb250LXNpemU6Mi44MjIyMjIyM3B4O2ZvbnQtZmFtaWx5OkFyaWFsOy1pbmtzY2FwZS1mb250LXNwZWNpZmljYXRpb246J0FyaWFsLCBOb3JtYWwnO3RleHQtYWxpZ246Y2VudGVyO3dyaXRpbmctbW9kZTpsci10Yjt0ZXh0LWFuY2hvcjptaWRkbGU7ZmlsbDojZmZmZmZmO2ZpbGwtb3BhY2l0eToxO3N0cm9rZS13aWR0aDowLjI2NDU4MzMycHgiIHk9IjE2LjgxMTc3NSIgeD0iMTAuMDE3MTgzIiBpZD0idHNwYW4yMDY0IiBzb2RpcG9kaTpyb2xlPSJsaW5lIj5wb2Q8L3RzcGFuPjwvdGV4dD4mI3hhOyAgICA8ZyBpZD0iZzMzNDEiIHRyYW5zZm9ybT0idHJhbnNsYXRlKDAuMTI3NjY2NjEsMCkiPiYjeGE7ICAgICAgPHBhdGggaW5rc2NhcGU6ZXhwb3J0LXlkcGk9IjM3Ni41Nzk5OSIgaW5rc2NhcGU6ZXhwb3J0LXhkcGk9IjM3Ni41Nzk5OSIgc3R5bGU9ImZpbGw6I2ZmZmZmZjtmaWxsLXJ1bGU6ZXZlbm9kZDtzdHJva2U6bm9uZTtzdHJva2Utd2lkdGg6MC4yNjQ1ODMzMjtzdHJva2UtbGluZWNhcDpzcXVhcmU7c3Ryb2tlLW1pdGVybGltaXQ6MTAiIGlua3NjYXBlOmNvbm5lY3Rvci1jdXJ2YXR1cmU9IjAiIGQ9Ik0gNi4yNjE3OTE0LDcuMDM2MDg2IDkuODgyNjMxNyw1Ljk4NjA4NyAxMy41MDM0NjIsNy4wMzYwODYgOS44ODI2MzE3LDguMDg2MDg3IFoiIGlkPSJwYXRoOTEwIi8+JiN4YTsgICAgICA8cGF0aCBpbmtzY2FwZTpleHBvcnQteWRwaT0iMzc2LjU3OTk5IiBpbmtzY2FwZTpleHBvcnQteGRwaT0iMzc2LjU3OTk5IiBzdHlsZT0iZmlsbDojZmZmZmZmO2ZpbGwtcnVsZTpldmVub2RkO3N0cm9rZTpub25lO3N0cm9rZS13aWR0aDowLjI2NDU4MzMyO3N0cm9rZS1saW5lY2FwOnNxdWFyZTtzdHJva2UtbWl0ZXJsaW1pdDoxMCIgaW5rc2NhcGU6Y29ubmVjdG9yLWN1cnZhdHVyZT0iMCIgZD0ibSA2LjI2MTc5MTQsNy40MzgxNyAwLDMuODUyNzc4IDMuMzczNjEwMywxLjg2ODc0OSAwLjAxNjcsLTQuNzEzMTkzIHoiIGlkPSJwYXRoOTEyIi8+JiN4YTsgICAgICA8cGF0aCBpbmtzY2FwZTpleHBvcnQteWRwaT0iMzc2LjU3OTk5IiBpbmtzY2FwZTpleHBvcnQteGRwaT0iMzc2LjU3OTk5IiBzdHlsZT0iZmlsbDojZmZmZmZmO2ZpbGwtcnVsZTpldmVub2RkO3N0cm9rZTpub25lO3N0cm9rZS13aWR0aDowLjI2NDU4MzMyO3N0cm9rZS1saW5lY2FwOnNxdWFyZTtzdHJva2UtbWl0ZXJsaW1pdDoxMCIgaW5rc2NhcGU6Y29ubmVjdG9yLWN1cnZhdHVyZT0iMCIgZD0ibSAxMy41MDM0NjIsNy40MzgxNyAwLDMuODUyNzc4IC0zLjM3MzYxLDEuODY4NzQ5IC0wLjAxNjcsLTQuNzEzMTkzIHoiIGlkPSJwYXRoOTE0Ii8+JiN4YTsgICAgPC9nPiYjeGE7ICA8L2c+JiN4YTs8L3N2Zz4=" vertex="1" parent="1">
          <mxGeometry x="750" y="360" width="40" height="40" as="geometry" />
        </mxCell>
        <mxCell id="CuJ7pr3B0lwYhuTaBker-23" value="" style="shape=image;verticalLabelPosition=bottom;verticalAlign=top;imageAspect=0;aspect=fixed;image=data:image/svg+xml,PHN2ZyB4bWxuczpkYz0iaHR0cDovL3B1cmwub3JnL2RjL2VsZW1lbnRzLzEuMS8iIHhtbG5zOmNjPSJodHRwOi8vY3JlYXRpdmVjb21tb25zLm9yZy9ucyMiIHhtbG5zOnJkZj0iaHR0cDovL3d3dy53My5vcmcvMTk5OS8wMi8yMi1yZGYtc3ludGF4LW5zIyIgeG1sbnM6c3ZnPSJodHRwOi8vd3d3LnczLm9yZy8yMDAwL3N2ZyIgeG1sbnM9Imh0dHA6Ly93d3cudzMub3JnLzIwMDAvc3ZnIiB4bWxuczpzb2RpcG9kaT0iaHR0cDovL3NvZGlwb2RpLnNvdXJjZWZvcmdlLm5ldC9EVEQvc29kaXBvZGktMC5kdGQiIHhtbG5zOmlua3NjYXBlPSJodHRwOi8vd3d3Lmlua3NjYXBlLm9yZy9uYW1lc3BhY2VzL2lua3NjYXBlIiB3aWR0aD0iMTguMDM1MzM0bW0iIGhlaWdodD0iMTcuNTAwMzc4bW0iIHZpZXdCb3g9IjAgMCAxOC4wMzUzMzQgMTcuNTAwMzc4IiB2ZXJzaW9uPSIxLjEiIGlkPSJzdmcxMzgyNiIgaW5rc2NhcGU6dmVyc2lvbj0iMC45MSByMTM3MjUiIHNvZGlwb2RpOmRvY25hbWU9InBvZC5zdmciPiYjeGE7ICA8ZGVmcyBpZD0iZGVmczEzODIwIi8+JiN4YTsgIDxzb2RpcG9kaTpuYW1lZHZpZXcgaWQ9ImJhc2UiIHBhZ2Vjb2xvcj0iI2ZmZmZmZiIgYm9yZGVyY29sb3I9IiM2NjY2NjYiIGJvcmRlcm9wYWNpdHk9IjEuMCIgaW5rc2NhcGU6cGFnZW9wYWNpdHk9IjAuMCIgaW5rc2NhcGU6cGFnZXNoYWRvdz0iMiIgaW5rc2NhcGU6em9vbT0iOCIgaW5rc2NhcGU6Y3g9IjE2Ljg0NzQ5NiIgaW5rc2NhcGU6Y3k9IjMzLjc1MjIzOSIgaW5rc2NhcGU6ZG9jdW1lbnQtdW5pdHM9Im1tIiBpbmtzY2FwZTpjdXJyZW50LWxheWVyPSJsYXllcjEiIHNob3dncmlkPSJmYWxzZSIgaW5rc2NhcGU6d2luZG93LXdpZHRoPSIxNDQwIiBpbmtzY2FwZTp3aW5kb3ctaGVpZ2h0PSI3NzUiIGlua3NjYXBlOndpbmRvdy14PSIwIiBpbmtzY2FwZTp3aW5kb3cteT0iMSIgaW5rc2NhcGU6d2luZG93LW1heGltaXplZD0iMSIgZml0LW1hcmdpbi10b3A9IjAiIGZpdC1tYXJnaW4tbGVmdD0iMCIgZml0LW1hcmdpbi1yaWdodD0iMCIgZml0LW1hcmdpbi1ib3R0b209IjAiLz4mI3hhOyAgJiN4YTsgIDxnIGlua3NjYXBlOmxhYmVsPSJDYWxxdWUgMSIgaW5rc2NhcGU6Z3JvdXBtb2RlPSJsYXllciIgaWQ9ImxheWVyMSIgdHJhbnNmb3JtPSJ0cmFuc2xhdGUoLTAuOTkyNjI2MzgsLTEuMTc0MTgxKSI+JiN4YTsgICAgPGcgaWQ9Imc3MCIgdHJhbnNmb3JtPSJtYXRyaXgoMS4wMTQ4ODg3LDAsMCwxLjAxNDg4ODcsMTYuOTAyMTQ2LC0yLjY5ODcyNikiPiYjeGE7ICAgICAgPHBhdGggaW5rc2NhcGU6ZXhwb3J0LXlkcGk9IjI1MC41NSIgaW5rc2NhcGU6ZXhwb3J0LXhkcGk9IjI1MC41NSIgaW5rc2NhcGU6ZXhwb3J0LWZpbGVuYW1lPSJuZXcucG5nIiBpbmtzY2FwZTpjb25uZWN0b3ItY3VydmF0dXJlPSIwIiBpZD0icGF0aDMwNTUiIGQ9Im0gLTYuODQ5MjAxNSw0LjI3MjQ2NjggYSAxLjExOTEyNTUsMS4xMDk5NjcxIDAgMCAwIC0wLjQyODg4MTgsMC4xMDg1MzAzIGwgLTUuODUyNDAzNywyLjc5NjMzOTQgYSAxLjExOTEyNTUsMS4xMDk5NjcxIDAgMCAwIC0wLjYwNTUyNCwwLjc1Mjk3NTkgbCAtMS40NDM4MjgsNi4yODEyODQ2IGEgMS4xMTkxMjU1LDEuMTA5OTY3MSAwIDAgMCAwLjE1MTk0MywwLjg1MTAyOCAxLjExOTEyNTUsMS4xMDk5NjcxIDAgMCAwIDAuMDYzNjIsMC4wODgzMiBsIDQuMDUwOCw1LjAzNjU1NSBhIDEuMTE5MTI1NSwxLjEwOTk2NzEgMCAwIDAgMC44NzQ5NzksMC40MTc2NTQgbCA2LjQ5NjEwMTEsLTAuMDAxNSBhIDEuMTE5MTI1NSwxLjEwOTk2NzEgMCAwIDAgMC44NzQ5Nzg4LC0wLjQxNjkwNiBMIDEuMzgxODg3MiwxNS4xNDk0NTMgQSAxLjExOTEyNTUsMS4xMDk5NjcxIDAgMCAwIDEuNTk4MTk4NiwxNC4yMTAxMDQgTCAwLjE1MjEyNjU3LDcuOTI4ODE1NCBBIDEuMTE5MTI1NSwxLjEwOTk2NzEgMCAwIDAgLTAuNDUzMzk3OTQsNy4xNzU4Mzk2IEwgLTYuMzA2NTQ5Niw0LjM4MDk5NzEgQSAxLjExOTEyNTUsMS4xMDk5NjcxIDAgMCAwIC02Ljg0OTIwMTUsNC4yNzI0NjY4IFoiIHN0eWxlPSJmaWxsOiMzMjZjZTU7ZmlsbC1vcGFjaXR5OjE7c3Ryb2tlOm5vbmU7c3Ryb2tlLXdpZHRoOjA7c3Ryb2tlLW1pdGVybGltaXQ6NDtzdHJva2UtZGFzaGFycmF5Om5vbmU7c3Ryb2tlLW9wYWNpdHk6MSIvPiYjeGE7ICAgICAgPHBhdGggaWQ9InBhdGgzMDU0LTItOSIgZD0iTSAtNi44NTIzNDM1LDMuODE3NjM3MiBBIDEuMTgxNDMwNCwxLjE3MTc2MiAwIDAgMCAtNy4zMDQ0Mjg0LDMuOTMyOTA0IGwgLTYuMTc4NzQyNiwyLjk1MTI3NTggYSAxLjE4MTQzMDQsMS4xNzE3NjIgMCAwIDAgLTAuNjM5MjA2LDAuNzk0ODkxIGwgLTEuNTIzOTE1LDYuNjMwODI4MiBhIDEuMTgxNDMwNCwxLjE3MTc2MiAwIDAgMCAwLjE2MDE3NSwwLjg5ODkzIDEuMTgxNDMwNCwxLjE3MTc2MiAwIDAgMCAwLjA2NzM2LDAuMDkyODEgbCA0LjI3NjA5NCw1LjMxNzIzNiBhIDEuMTgxNDMwNCwxLjE3MTc2MiAwIDAgMCAwLjkyMzYzLDAuNDQwODU4IGwgNi44NTc2MTg4LC0wLjAwMTUgYSAxLjE4MTQzMDQsMS4xNzE3NjIgMCAwIDAgMC45MjM2MzA4LC0wLjQ0MDExIGwgNC4yNzQ1OTY2LC01LjMxNzk4NSBhIDEuMTgxNDMwNCwxLjE3MTc2MiAwIDAgMCAwLjIyODI4OCwtMC45OTA5OTMgTCAwLjUzODk0NDM5LDcuNjc3NTczOCBBIDEuMTgxNDMwNCwxLjE3MTc2MiAwIDAgMCAtMC4xMDAyNjEwMSw2Ljg4MzQzMTMgTCAtNi4yNzkwMDM3LDMuOTMyMTU1NSBBIDEuMTgxNDMwNCwxLjE3MTc2MiAwIDAgMCAtNi44NTIzNDM1LDMuODE3NjM3MiBaIG0gMC4wMDI5OSwwLjQ1NTA3ODkgYSAxLjExOTEyNTUsMS4xMDk5NjcxIDAgMCAxIDAuNTQyNjUxNywwLjEwODUzMDMgbCA1Ljg1MzE1MTY5LDIuNzk0ODQyNSBBIDEuMTE5MTI1NSwxLjEwOTk2NzEgMCAwIDEgMC4xNTE5NzgxMSw3LjkyOTA2NDggTCAxLjU5ODA1MSwxNC4yMTAzNSBhIDEuMTE5MTI1NSwxLjEwOTk2NzEgMCAwIDEgLTAuMjE2MzEyMywwLjkzOTM0OCBsIC00LjA0OTMwMzIsNS4wMzczMDQgYSAxLjExOTEyNTUsMS4xMDk5NjcxIDAgMCAxIC0wLjg3NDk3ODksMC40MTY5MDYgbCAtNi40OTYxMDA2LDAuMDAxNSBhIDEuMTE5MTI1NSwxLjEwOTk2NzEgMCAwIDEgLTAuODc0OTc5LC0wLjQxNzY1MiBsIC00LjA1MDgsLTUuMDM2NTU0IGEgMS4xMTkxMjU1LDEuMTA5OTY3MSAwIDAgMSAtMC4wNjM2MiwtMC4wODgzMiAxLjExOTEyNTUsMS4xMDk5NjcxIDAgMCAxIC0wLjE1MTk0MiwtMC44NTEwMjggbCAxLjQ0MzgyNywtNi4yODEyODUzIGEgMS4xMTkxMjU1LDEuMTA5OTY3MSAwIDAgMSAwLjYwNTUyNCwtMC43NTI5NzU4IGwgNS44NTI0MDM2LC0yLjc5NjMzOTUgYSAxLjExOTEyNTUsMS4xMDk5NjcxIDAgMCAxIDAuNDI4ODgxOSwtMC4xMDg1MzAzIHoiIHN0eWxlPSJjb2xvcjojMDAwMDAwO2ZvbnQtc3R5bGU6bm9ybWFsO2ZvbnQtdmFyaWFudDpub3JtYWw7Zm9udC13ZWlnaHQ6bm9ybWFsO2ZvbnQtc3RyZXRjaDpub3JtYWw7Zm9udC1zaXplOm1lZGl1bTtsaW5lLWhlaWdodDpub3JtYWw7Zm9udC1mYW1pbHk6U2FuczstaW5rc2NhcGUtZm9udC1zcGVjaWZpY2F0aW9uOlNhbnM7dGV4dC1pbmRlbnQ6MDt0ZXh0LWFsaWduOnN0YXJ0O3RleHQtZGVjb3JhdGlvbjpub25lO3RleHQtZGVjb3JhdGlvbi1saW5lOm5vbmU7bGV0dGVyLXNwYWNpbmc6bm9ybWFsO3dvcmQtc3BhY2luZzpub3JtYWw7dGV4dC10cmFuc2Zvcm06bm9uZTt3cml0aW5nLW1vZGU6bHItdGI7ZGlyZWN0aW9uOmx0cjtiYXNlbGluZS1zaGlmdDpiYXNlbGluZTt0ZXh0LWFuY2hvcjpzdGFydDtkaXNwbGF5OmlubGluZTtvdmVyZmxvdzp2aXNpYmxlO3Zpc2liaWxpdHk6dmlzaWJsZTtmaWxsOiNmZmZmZmY7ZmlsbC1vcGFjaXR5OjE7ZmlsbC1ydWxlOm5vbnplcm87c3Ryb2tlOm5vbmU7c3Ryb2tlLXdpZHRoOjA7c3Ryb2tlLW1pdGVybGltaXQ6NDtzdHJva2UtZGFzaGFycmF5Om5vbmU7bWFya2VyOm5vbmU7ZW5hYmxlLWJhY2tncm91bmQ6YWNjdW11bGF0ZSIgaW5rc2NhcGU6Y29ubmVjdG9yLWN1cnZhdHVyZT0iMCIvPiYjeGE7ICAgIDwvZz4mI3hhOyAgICA8dGV4dCBpZD0idGV4dDIwNjYiIHk9IjE2LjgxMTc3NSIgeD0iMTAuMDE3MTgzIiBzdHlsZT0iZm9udC1zdHlsZTpub3JtYWw7Zm9udC13ZWlnaHQ6bm9ybWFsO2ZvbnQtc2l6ZToxMC41ODMzMzMwMnB4O2xpbmUtaGVpZ2h0OjYuNjE0NTgzNDlweDtmb250LWZhbWlseTpTYW5zO2xldHRlci1zcGFjaW5nOjBweDt3b3JkLXNwYWNpbmc6MHB4O2ZpbGw6I2ZmZmZmZjtmaWxsLW9wYWNpdHk6MTtzdHJva2U6bm9uZTtzdHJva2Utd2lkdGg6MC4yNjQ1ODMzMnB4O3N0cm9rZS1saW5lY2FwOmJ1dHQ7c3Ryb2tlLWxpbmVqb2luOm1pdGVyO3N0cm9rZS1vcGFjaXR5OjEiIHhtbDpzcGFjZT0icHJlc2VydmUiPjx0c3BhbiBzdHlsZT0iZm9udC1zdHlsZTpub3JtYWw7Zm9udC12YXJpYW50Om5vcm1hbDtmb250LXdlaWdodDpub3JtYWw7Zm9udC1zdHJldGNoOm5vcm1hbDtmb250LXNpemU6Mi44MjIyMjIyM3B4O2ZvbnQtZmFtaWx5OkFyaWFsOy1pbmtzY2FwZS1mb250LXNwZWNpZmljYXRpb246J0FyaWFsLCBOb3JtYWwnO3RleHQtYWxpZ246Y2VudGVyO3dyaXRpbmctbW9kZTpsci10Yjt0ZXh0LWFuY2hvcjptaWRkbGU7ZmlsbDojZmZmZmZmO2ZpbGwtb3BhY2l0eToxO3N0cm9rZS13aWR0aDowLjI2NDU4MzMycHgiIHk9IjE2LjgxMTc3NSIgeD0iMTAuMDE3MTgzIiBpZD0idHNwYW4yMDY0IiBzb2RpcG9kaTpyb2xlPSJsaW5lIj5wb2Q8L3RzcGFuPjwvdGV4dD4mI3hhOyAgICA8ZyBpZD0iZzMzNDEiIHRyYW5zZm9ybT0idHJhbnNsYXRlKDAuMTI3NjY2NjEsMCkiPiYjeGE7ICAgICAgPHBhdGggaW5rc2NhcGU6ZXhwb3J0LXlkcGk9IjM3Ni41Nzk5OSIgaW5rc2NhcGU6ZXhwb3J0LXhkcGk9IjM3Ni41Nzk5OSIgc3R5bGU9ImZpbGw6I2ZmZmZmZjtmaWxsLXJ1bGU6ZXZlbm9kZDtzdHJva2U6bm9uZTtzdHJva2Utd2lkdGg6MC4yNjQ1ODMzMjtzdHJva2UtbGluZWNhcDpzcXVhcmU7c3Ryb2tlLW1pdGVybGltaXQ6MTAiIGlua3NjYXBlOmNvbm5lY3Rvci1jdXJ2YXR1cmU9IjAiIGQ9Ik0gNi4yNjE3OTE0LDcuMDM2MDg2IDkuODgyNjMxNyw1Ljk4NjA4NyAxMy41MDM0NjIsNy4wMzYwODYgOS44ODI2MzE3LDguMDg2MDg3IFoiIGlkPSJwYXRoOTEwIi8+JiN4YTsgICAgICA8cGF0aCBpbmtzY2FwZTpleHBvcnQteWRwaT0iMzc2LjU3OTk5IiBpbmtzY2FwZTpleHBvcnQteGRwaT0iMzc2LjU3OTk5IiBzdHlsZT0iZmlsbDojZmZmZmZmO2ZpbGwtcnVsZTpldmVub2RkO3N0cm9rZTpub25lO3N0cm9rZS13aWR0aDowLjI2NDU4MzMyO3N0cm9rZS1saW5lY2FwOnNxdWFyZTtzdHJva2UtbWl0ZXJsaW1pdDoxMCIgaW5rc2NhcGU6Y29ubmVjdG9yLWN1cnZhdHVyZT0iMCIgZD0ibSA2LjI2MTc5MTQsNy40MzgxNyAwLDMuODUyNzc4IDMuMzczNjEwMywxLjg2ODc0OSAwLjAxNjcsLTQuNzEzMTkzIHoiIGlkPSJwYXRoOTEyIi8+JiN4YTsgICAgICA8cGF0aCBpbmtzY2FwZTpleHBvcnQteWRwaT0iMzc2LjU3OTk5IiBpbmtzY2FwZTpleHBvcnQteGRwaT0iMzc2LjU3OTk5IiBzdHlsZT0iZmlsbDojZmZmZmZmO2ZpbGwtcnVsZTpldmVub2RkO3N0cm9rZTpub25lO3N0cm9rZS13aWR0aDowLjI2NDU4MzMyO3N0cm9rZS1saW5lY2FwOnNxdWFyZTtzdHJva2UtbWl0ZXJsaW1pdDoxMCIgaW5rc2NhcGU6Y29ubmVjdG9yLWN1cnZhdHVyZT0iMCIgZD0ibSAxMy41MDM0NjIsNy40MzgxNyAwLDMuODUyNzc4IC0zLjM3MzYxLDEuODY4NzQ5IC0wLjAxNjcsLTQuNzEzMTkzIHoiIGlkPSJwYXRoOTE0Ii8+JiN4YTsgICAgPC9nPiYjeGE7ICA8L2c+JiN4YTs8L3N2Zz4=" vertex="1" parent="1">
          <mxGeometry x="441" y="80" width="40" height="40" as="geometry" />
        </mxCell>
      </root>
    </mxGraphModel>
  </diagram>
</mxfile>
